<svg xmlns="http://www.w3.org/2000/svg" width="49" height="40" viewBox="0 0 49 40"><defs><style>.a{fill:#e6427a;}</style></defs><g transform="translate(-0.359)"><path class="a" d="M11.132,40a2,2,0,0,1-1.961-1.616,8.6,8.6,0,0,0-.706-2.11,9.338,9.338,0,0,0-6.519-5.092,2,2,0,0,1,.825-3.914,13.309,13.309,0,0,1,9.292,7.258,12.642,12.642,0,0,1,1.034,3.09,2,2,0,0,1-1.579,2.347A2.042,2.042,0,0,1,11.132,40Zm9.112,0a2,2,0,0,1-1.986-1.779A18.15,18.15,0,0,0,2.138,22.1a2,2,0,1,1,.442-3.976A22.129,22.129,0,0,1,22.234,37.779a2,2,0,0,1-1.767,2.208A1.877,1.877,0,0,1,20.244,40Zm22.615,0h-13.5a2,2,0,1,1,0-4h13.5a2.5,2.5,0,0,0,2.5-2.5V6.5a2.5,2.5,0,0,0-2.5-2.5h-36a2.5,2.5,0,0,0-2.5,2.5V11a2,2,0,0,1-4,0V6.5A6.508,6.508,0,0,1,6.859,0h36a6.508,6.508,0,0,1,6.5,6.5v27A6.508,6.508,0,0,1,42.859,40Z"/><path class="a" d="M2.98,39.78a2.453,2.453,0,0,1-.39-.04,2.376,2.376,0,0,1-.38-.11,2.189,2.189,0,0,1-.34-.191,2.263,2.263,0,0,1-.31-.25A2.011,2.011,0,0,1,.98,37.78a1.716,1.716,0,0,1,.04-.39,1.657,1.657,0,0,1,.11-.38,1.633,1.633,0,0,1,.19-.34,2.415,2.415,0,0,1,.24-.311,2.331,2.331,0,0,1,.31-.239,1.589,1.589,0,0,1,.34-.19,1.881,1.881,0,0,1,.38-.111,1.991,1.991,0,0,1,1.8.54,1.833,1.833,0,0,1,.25.311,2.268,2.268,0,0,1,.19.34,1.657,1.657,0,0,1,.11.38,1.716,1.716,0,0,1,.04.39,2.016,2.016,0,0,1-2,2Z"/></g></svg>