<svg xmlns="http://www.w3.org/2000/svg" width="45.5" height="41.572" viewBox="0 0 45.5 41.572"><defs><style>.a{fill:#fafafa;}</style></defs><g transform="translate(0.259 -1.75)"><path class="a" d="M22.482,2a1.063,1.063,0,0,0-.505.137L.613,14.216a1.251,1.251,0,0,0,0,2.142L21.977,28.438a1.056,1.056,0,0,0,1.045,0L44.387,16.359a1.251,1.251,0,0,0,0-2.142L23.022,2.137A1.062,1.062,0,0,0,22.482,2ZM22.5,4.576,41.448,15.287,22.5,26,3.551,15.287ZM1.118,21.318a1.144,1.144,0,0,0-1.1.929,1.239,1.239,0,0,0,.591,1.359L21.977,35.686a1.056,1.056,0,0,0,1.045,0L44.387,23.606a1.255,1.255,0,0,0,.475-1.633,1.089,1.089,0,0,0-1.52-.51L22.5,33.251,1.658,21.464a1.063,1.063,0,0,0-.54-.146Zm0,7.248a1.144,1.144,0,0,0-1.1.929,1.239,1.239,0,0,0,.591,1.359L21.977,42.933a1.056,1.056,0,0,0,1.045,0l9.939-5.62,11.425-6.46a1.255,1.255,0,0,0,.475-1.633,1.089,1.089,0,0,0-1.52-.51L22.5,40.5,1.658,28.711a1.063,1.063,0,0,0-.54-.146Z" transform="translate(0 0)"/><path class="a" d="M22.5,1.75a1.317,1.317,0,0,1,.642.169L44.51,14a1.5,1.5,0,0,1,0,2.578L23.145,28.656a1.306,1.306,0,0,1-1.291,0L.49,16.576A1.5,1.5,0,0,1,.491,14L21.854,1.919a1.32,1.32,0,0,1,.625-.169Zm0,26.576a.816.816,0,0,0,.4-.106L44.264,16.141a1,1,0,0,0,0-1.706L22.9,2.355a.816.816,0,0,0-.4-.1h-.015a.819.819,0,0,0-.388.1L.736,14.434a1,1,0,0,0,0,1.706L22.1,28.22A.816.816,0,0,0,22.5,28.326Zm0-24.037,19.456,11L22.5,26.29l-19.456-11Zm18.441,11L22.5,4.864,4.059,15.287,22.5,25.716ZM1.116,21.068h0a1.32,1.32,0,0,1,.666.18L22.5,32.963,43.218,21.246a1.317,1.317,0,0,1,.645-.171,1.364,1.364,0,0,1,1.223.789,1.51,1.51,0,0,1-.577,1.96L23.145,35.9a1.306,1.306,0,0,1-1.291,0L.492,23.825a1.485,1.485,0,0,1-.715-1.632A1.388,1.388,0,0,1,1.116,21.068ZM22.5,33.538,1.535,21.681a.82.82,0,0,0-.413-.114H1.116a.892.892,0,0,0-.85.733.983.983,0,0,0,.465,1.085l0,0L22.1,35.468a.82.82,0,0,0,.8,0L44.264,23.389a1,1,0,0,0,.373-1.305.868.868,0,0,0-.773-.508.8.8,0,0,0-.4.106ZM1.122,28.315a1.317,1.317,0,0,1,.662.18L22.5,40.211,43.218,28.494a1.317,1.317,0,0,1,.645-.171,1.364,1.364,0,0,1,1.223.789,1.51,1.51,0,0,1-.577,1.96L23.145,43.151a1.306,1.306,0,0,1-1.291,0L.493,31.073a1.485,1.485,0,0,1-.715-1.632,1.388,1.388,0,0,1,1.338-1.125ZM22.5,40.785,1.535,28.929a.82.82,0,0,0-.413-.114v-.25l0,.25a.893.893,0,0,0-.853.733.983.983,0,0,0,.465,1.085l0,0L22.1,42.716a.82.82,0,0,0,.8,0L44.264,30.636a1,1,0,0,0,.373-1.305.868.868,0,0,0-.773-.508.8.8,0,0,0-.4.106Z" transform="translate(0 0)"/></g></svg>