<svg xmlns="http://www.w3.org/2000/svg" xmlns:xlink="http://www.w3.org/1999/xlink" width="60.968" height="60.968" viewBox="0 0 60.968 60.968"><defs><style>.a{fill:none;}.b{clip-path:url(#a);}.c{fill:url(#b);}.d{clip-path:url(#c);}.e{fill:url(#d);}.f{clip-path:url(#e);}.g{fill:url(#f);}.h{clip-path:url(#g);}.i{fill:url(#h);}.j{clip-path:url(#i);}.k{fill:url(#j);}.l{clip-path:url(#k);}.m{fill:url(#l);}.n{clip-path:url(#m);}.o{fill:url(#n);}.p{fill:#7c5a7e;}</style><clipPath id="a"><path class="a" d="M352.564,233.649a.773.773,0,1,0,.772-.773.682.682,0,0,0-.772.773m1.546,0a.772.772,0,1,0,.773-.773.683.683,0,0,0-.773.773m1.545,0a.773.773,0,1,0,.773-.773.683.683,0,0,0-.773.773m1.546,0a.772.772,0,1,0,.772-.773.683.683,0,0,0-.772.773m1.545,0a.773.773,0,1,0,.773-.773.683.683,0,0,0-.773.773m-7.727-1.546a.773.773,0,1,0,.773-.772.683.683,0,0,0-.773.772m1.546,0a.773.773,0,1,0,.772-.772.682.682,0,0,0-.772.772m1.546,0a.772.772,0,1,0,.773-.772.683.683,0,0,0-.773.772m1.545,0a.773.773,0,1,0,.773-.772.683.683,0,0,0-.773.772m1.546,0a.772.772,0,1,0,.772-.772.683.683,0,0,0-.772.772m1.545,0a.773.773,0,1,0,.773-.772.683.683,0,0,0-.773.772m1.546,0a.773.773,0,1,0,.772-.772.682.682,0,0,0-.772.772m-9.273-1.546a.773.773,0,1,0,.773-.773.683.683,0,0,0-.773.773m1.546,0a.773.773,0,1,0,.772-.773.683.683,0,0,0-.772.773m1.546,0a.772.772,0,1,0,.773-.773.683.683,0,0,0-.773.773m1.545,0a.773.773,0,1,0,.773-.773.684.684,0,0,0-.773.773m1.546,0a.772.772,0,1,0,.772-.773.683.683,0,0,0-.772.773m1.545,0a.773.773,0,1,0,.773-.773.684.684,0,0,0-.773.773m1.546,0a.773.773,0,1,0,.772-.773.683.683,0,0,0-.772.773m-9.273-1.546a.773.773,0,1,0,.773-.772.683.683,0,0,0-.773.772m1.546,0a.773.773,0,1,0,.772-.772.683.683,0,0,0-.772.772m1.546,0a.772.772,0,1,0,.773-.772.683.683,0,0,0-.773.772m3.091,0a.772.772,0,1,0,.772-.772.683.683,0,0,0-.772.772m1.545,0a.773.773,0,1,0,.773-.772.683.683,0,0,0-.773.772m1.546,0a.773.773,0,1,0,.772-.772.683.683,0,0,0-.772.772m-9.273-1.545a.773.773,0,1,0,.773-.772.683.683,0,0,0-.773.772m1.546,0a.773.773,0,1,0,.772-.772.683.683,0,0,0-.772.772m1.546,0a.772.772,0,1,0,.773-.772.683.683,0,0,0-.773.772m3.091,0a.772.772,0,1,0,.772-.772.683.683,0,0,0-.772.772m1.545,0a.773.773,0,1,0,.773-.772.683.683,0,0,0-.773.772m1.546,0a.773.773,0,1,0,.772-.772.683.683,0,0,0-.772.772m-9.273-1.547a.773.773,0,1,0,.773-.773.682.682,0,0,0-.773.773m1.546,0a.773.773,0,1,0,.772-.773.682.682,0,0,0-.772.773m1.546,0a.772.772,0,1,0,.773-.773.682.682,0,0,0-.773.773m3.091,0a.772.772,0,1,0,.772-.773.682.682,0,0,0-.772.773m1.545,0a.773.773,0,1,0,.773-.773.683.683,0,0,0-.773.773m1.546,0a.773.773,0,1,0,.772-.773.682.682,0,0,0-.772.773m-9.273-1.546a.773.773,0,1,0,.773-.772.683.683,0,0,0-.773.772m1.546,0a.773.773,0,1,0,.772-.772.683.683,0,0,0-.772.772m1.546,0a.772.772,0,1,0,.773-.772.683.683,0,0,0-.773.772m3.091,0a.772.772,0,1,0,.772-.772.683.683,0,0,0-.772.772m1.545,0a.773.773,0,1,0,.773-.772.683.683,0,0,0-.773.772m1.546,0a.773.773,0,1,0,.772-.772.683.683,0,0,0-.772.772m-9.273-1.545a.773.773,0,1,0,.773-.773.683.683,0,0,0-.773.773m1.546,0a.773.773,0,1,0,.772-.773.683.683,0,0,0-.772.773m1.546,0a.772.772,0,1,0,.773-.773.683.683,0,0,0-.773.773m1.545,0a.773.773,0,1,0,.773-.773.684.684,0,0,0-.773.773m1.546,0a.772.772,0,1,0,.772-.773.683.683,0,0,0-.772.773m1.545,0a.773.773,0,1,0,.773-.773.683.683,0,0,0-.773.773m1.546,0a.773.773,0,1,0,.772-.773.683.683,0,0,0-.772.773m-9.273-1.546a.773.773,0,1,0,.773-.772.683.683,0,0,0-.773.772m1.546,0a.773.773,0,1,0,.772-.772.683.683,0,0,0-.772.772m1.546,0a.772.772,0,1,0,.773-.772.683.683,0,0,0-.773.772m1.545,0a.773.773,0,1,0,.773-.772.683.683,0,0,0-.773.772m1.546,0a.772.772,0,1,0,.772-.772.683.683,0,0,0-.772.772m1.545,0a.773.773,0,1,0,.773-.772.683.683,0,0,0-.773.772m1.546,0a.773.773,0,1,0,.772-.772.683.683,0,0,0-.772.772m-7.728-1.546a.773.773,0,1,0,.772-.773.683.683,0,0,0-.772.773m1.546,0a.772.772,0,1,0,.773-.773.683.683,0,0,0-.773.773m1.545,0a.773.773,0,1,0,.773-.773.684.684,0,0,0-.773.773m1.546,0a.772.772,0,1,0,.772-.773.683.683,0,0,0-.772.773m1.545,0a.773.773,0,1,0,.773-.773.683.683,0,0,0-.773.773" transform="translate(-351.018 -218.964)"/></clipPath><linearGradient id="b" x1="-11.967" y1="8.861" x2="-11.933" y2="8.861" gradientUnits="objectBoundingBox"><stop offset="0" stop-color="#fab428"/><stop offset="0.114" stop-color="#fab428"/><stop offset="0.25" stop-color="#f7a631"/><stop offset="0.508" stop-color="#f1814c"/><stop offset="0.858" stop-color="#e64676"/><stop offset="0.887" stop-color="#e6417a"/><stop offset="1" stop-color="#e6417a"/></linearGradient><clipPath id="c"><path class="a" d="M313.21,212.361a.773.773,0,1,0,.773-.772.683.683,0,0,0-.773.772m1.546,0a.773.773,0,1,0,.772-.772.683.683,0,0,0-.772.772m1.546,0a.773.773,0,1,0,.772-.772.683.683,0,0,0-.772.772m3.092,0a.772.772,0,1,0,.772-.772.683.683,0,0,0-.772.772m1.545,0a.773.773,0,1,0,.773-.772.683.683,0,0,0-.773.772m1.546,0a.773.773,0,1,0,.772-.772.683.683,0,0,0-.772.772m-9.273-1.545a.773.773,0,1,0,.773-.772.683.683,0,0,0-.773.772m1.546,0a.773.773,0,1,0,.772-.772.683.683,0,0,0-.772.772m1.546,0a.773.773,0,1,0,.772-.772.683.683,0,0,0-.772.772m1.546,0a.773.773,0,1,0,.773-.772.683.683,0,0,0-.773.772m1.546,0a.772.772,0,1,0,.772-.772.682.682,0,0,0-.772.772m1.545,0a.773.773,0,1,0,.773-.772.683.683,0,0,0-.773.772m1.546,0a.773.773,0,1,0,.772-.772.683.683,0,0,0-.772.772m-9.273-1.546a.773.773,0,1,0,.773-.772.683.683,0,0,0-.773.772m1.546,0a.773.773,0,1,0,.772-.772.683.683,0,0,0-.772.772m1.546,0a.773.773,0,1,0,.772-.772.683.683,0,0,0-.772.772m1.546,0a.773.773,0,1,0,.773-.772.683.683,0,0,0-.773.772m1.546,0a.772.772,0,1,0,.772-.772.683.683,0,0,0-.772.772m1.545,0a.773.773,0,1,0,.773-.772.683.683,0,0,0-.773.772m1.546,0a.773.773,0,1,0,.772-.772.683.683,0,0,0-.772.772m-7.728-1.545a.773.773,0,1,0,.772-.773.683.683,0,0,0-.772.773m1.546,0a.773.773,0,1,0,.772-.773.683.683,0,0,0-.772.773m1.546,0a.773.773,0,1,0,.773-.773.683.683,0,0,0-.773.773m1.546,0a.772.772,0,1,0,.772-.773.683.683,0,0,0-.772.773m1.545,0a.773.773,0,1,0,.773-.773.683.683,0,0,0-.773.773" transform="translate(-313.21 -206.953)"/></clipPath><linearGradient id="d" x1="-18.575" y1="13.21" x2="-18.515" y2="13.21" gradientUnits="objectBoundingBox"><stop offset="0" stop-color="#fab428"/><stop offset="0.147" stop-color="#f7a631"/><stop offset="0.423" stop-color="#f1814c"/><stop offset="0.799" stop-color="#e64676"/><stop offset="0.83" stop-color="#e6417a"/><stop offset="1" stop-color="#e6417a"/></linearGradient><clipPath id="e"><path class="a" d="M333.66,233.651a.773.773,0,1,0,.773-.773.683.683,0,0,0-.773.773m1.546,0a.773.773,0,1,0,.773-.773.683.683,0,0,0-.773.773m1.546,0a.772.772,0,1,0,.772-.773.682.682,0,0,0-.772.773m1.545,0a.773.773,0,1,0,.772-.773.683.683,0,0,0-.772.773m1.546,0a.773.773,0,1,0,.772-.773.683.683,0,0,0-.772.773m3.091-.029a.773.773,0,1,0,.772-.744.678.678,0,0,0-.772.744m-10.819-1.517a.773.773,0,1,0,.772-.772.683.683,0,0,0-.772.772m1.545,0a.773.773,0,1,0,.773-.772.683.683,0,0,0-.773.772m1.546,0a.773.773,0,1,0,.773-.772.683.683,0,0,0-.773.772m1.546,0a.772.772,0,1,0,.772-.772.682.682,0,0,0-.772.772m1.545,0a.773.773,0,1,0,.772-.772.683.683,0,0,0-.772.772m1.546,0a.773.773,0,1,0,.772-.772.683.683,0,0,0-.772.772m3.091-.028a.773.773,0,1,0,.772-.744.678.678,0,0,0-.772.744m-10.819-1.517a.773.773,0,1,0,.772-.773.684.684,0,0,0-.772.773m1.545,0a.773.773,0,1,0,.773-.773.683.683,0,0,0-.773.773m1.546,0a.773.773,0,1,0,.773-.773.684.684,0,0,0-.773.773m1.546,0a.772.772,0,1,0,.772-.773.683.683,0,0,0-.772.773m1.545,0a.773.773,0,1,0,.772-.773.683.683,0,0,0-.772.773m1.546,0a.773.773,0,1,0,.772-.773.683.683,0,0,0-.772.773m3.091-.029a.773.773,0,1,0,.772-.744.679.679,0,0,0-.772.744m-10.819-1.517a.773.773,0,1,0,.772-.772.683.683,0,0,0-.772.772m1.545,0a.773.773,0,1,0,.773-.772.683.683,0,0,0-.773.772m1.546,0a.773.773,0,1,0,.773-.772.683.683,0,0,0-.773.772m3.091,0a.773.773,0,1,0,.772-.772.683.683,0,0,0-.772.772m1.546,0a.773.773,0,1,0,.772-.772.683.683,0,0,0-.772.772m1.546,0a.773.773,0,1,0,.773-.772.683.683,0,0,0-.773.772m-9.273-3.089a.773.773,0,0,1,0,1.544.773.773,0,0,0,1.545,0,.773.773,0,0,1,0-1.544.773.773,0,0,0-1.545,0m1.545,0a.773.773,0,0,1,0,1.544.773.773,0,0,0,1.546,0,.773.773,0,0,1,0-1.544.773.773,0,0,0-1.546,0m1.546,0a.773.773,0,0,1,0,1.544,1.726,1.726,0,1,0,0-1.544m3.091,0a.773.773,0,0,1,0,1.544,1.727,1.727,0,1,0,0-1.544m1.546,0a.773.773,0,0,1,0,1.544.773.773,0,0,0,1.546,0,.773.773,0,0,1,0-1.544.773.773,0,0,0-1.546,0m1.546,0a.773.773,0,0,1,0,1.544.773.773,0,0,0,1.546,0,.773.773,0,0,1,0-1.544.773.773,0,0,0-1.546,0m-9.273-1.545a.773.773,0,1,0,.772-.773.683.683,0,0,0-.772.773m1.545,0a.773.773,0,1,0,.773-.773.683.683,0,0,0-.773.773m1.546,0a.773.773,0,1,0,.773-.773.683.683,0,0,0-.773.773m3.091,0a.773.773,0,1,0,.772-.773.683.683,0,0,0-.772.773m1.546,0a.773.773,0,1,0,.772-.773.683.683,0,0,0-.772.773m1.546,0a.773.773,0,1,0,.773-.773.683.683,0,0,0-.773.773m-9.273-1.546a.773.773,0,1,0,.772-.772.683.683,0,0,0-.772.772m1.545,0a.773.773,0,1,0,.773-.772.683.683,0,0,0-.773.772m1.546,0a.773.773,0,1,0,.773-.772.683.683,0,0,0-.773.772m1.546,0a.772.772,0,1,0,.772-.772.683.683,0,0,0-.772.772m1.545,0a.773.773,0,1,0,.772-.772.683.683,0,0,0-.772.772m1.546,0a.773.773,0,1,0,.772-.772.683.683,0,0,0-.772.772m1.546,0a.773.773,0,1,0,.773-.772.683.683,0,0,0-.773.772m-9.273-1.546a.773.773,0,1,0,.772-.772.683.683,0,0,0-.772.772m1.545,0a.773.773,0,1,0,.773-.772.683.683,0,0,0-.773.772m1.546,0a.773.773,0,1,0,.773-.772.683.683,0,0,0-.773.772m1.546,0a.772.772,0,1,0,.772-.772.683.683,0,0,0-.772.772m1.545,0a.773.773,0,1,0,.772-.772.683.683,0,0,0-.772.772m1.546,0a.773.773,0,1,0,.772-.772.683.683,0,0,0-.772.772m1.546,0a.773.773,0,1,0,.773-.772.683.683,0,0,0-.773.772m-7.728-1.545a.773.773,0,1,0,.773-.772.683.683,0,0,0-.773.772m1.546,0a.773.773,0,1,0,.773-.772.683.683,0,0,0-.773.772m1.546,0a.772.772,0,1,0,.772-.772.683.683,0,0,0-.772.772m1.545,0a.773.773,0,1,0,.772-.772.683.683,0,0,0-.772.772m1.546,0a.773.773,0,1,0,.772-.772.683.683,0,0,0-.772.772" transform="translate(-332.114 -218.971)"/></clipPath><linearGradient id="f" x1="-10.855" y1="8.28" x2="-10.821" y2="8.28" gradientUnits="objectBoundingBox"><stop offset="0" stop-color="#fab428"/><stop offset="0.162" stop-color="#fab428"/><stop offset="0.28" stop-color="#f7a631"/><stop offset="0.503" stop-color="#f1814c"/><stop offset="0.805" stop-color="#e64676"/><stop offset="0.83" stop-color="#e6417a"/><stop offset="1" stop-color="#e6417a"/></linearGradient><clipPath id="g"><path class="a" d="M336.88,212.362a.773.773,0,1,0,.773-.773.683.683,0,0,0-.773.773m1.546,0a.773.773,0,1,0,.773-.773.683.683,0,0,0-.773.773m1.546,0a.773.773,0,1,0,.772-.773.683.683,0,0,0-.772.773m-3.092-1.546a.773.773,0,1,0,.773-.772.683.683,0,0,0-.773.772m1.546,0a.773.773,0,1,0,.773-.772.683.683,0,0,0-.773.772m1.546,0a.773.773,0,1,0,.772-.772.682.682,0,0,0-.772.772m1.546,0a.773.773,0,1,0,.772-.772.682.682,0,0,0-.772.772m-4.637-1.546a.773.773,0,1,0,.773-.772.683.683,0,0,0-.773.772m1.546,0a.773.773,0,1,0,.773-.772.683.683,0,0,0-.773.772m1.546,0a.773.773,0,1,0,.772-.772.683.683,0,0,0-.772.772m1.546,0a.773.773,0,1,0,.772-.772.683.683,0,0,0-.772.772m-3.092-1.545a.773.773,0,1,0,.773-.773.683.683,0,0,0-.773.773m1.546,0a.773.773,0,1,0,.772-.773.683.683,0,0,0-.772.773m1.546,0a.773.773,0,1,0,.772-.773.683.683,0,0,0-.772.773" transform="translate(-336.88 -206.953)"/></clipPath><linearGradient id="h" x1="-25.68" y1="19.035" x2="-25.603" y2="19.035" xlink:href="#f"/><clipPath id="i"><path class="a" d="M313.21,233.653a.773.773,0,1,0,.773-.773.683.683,0,0,0-.773.773m1.546,0a.773.773,0,1,0,.772-.773.683.683,0,0,0-.772.773m1.546,0a.773.773,0,1,0,.772-.773.683.683,0,0,0-.772.773m1.546,0a.773.773,0,1,0,.773-.773.683.683,0,0,0-.773.773m1.546,0a.772.772,0,1,0,.772-.773.682.682,0,0,0-.772.773m1.545,0a.773.773,0,1,0,.773-.773.683.683,0,0,0-.773.773m-7.728-1.545a.773.773,0,1,0,.773-.773.683.683,0,0,0-.773.773m1.546,0a.773.773,0,1,0,.772-.773.682.682,0,0,0-.772.773m1.546,0a.773.773,0,1,0,.772-.773.682.682,0,0,0-.772.773m1.546,0a.773.773,0,1,0,.773-.773.683.683,0,0,0-.773.773m1.546,0a.772.772,0,1,0,.772-.773.682.682,0,0,0-.772.773m1.545,0a.773.773,0,1,0,.773-.773.682.682,0,0,0-.773.773m1.546,0a.773.773,0,1,0,.772-.773.682.682,0,0,0-.772.773m-9.273-1.546a.773.773,0,1,0,.773-.772.683.683,0,0,0-.773.772m1.546,0a.773.773,0,1,0,.772-.772.683.683,0,0,0-.772.772m1.546,0a.773.773,0,1,0,.772-.772.683.683,0,0,0-.772.772m1.546,0a.773.773,0,1,0,.773-.772.683.683,0,0,0-.773.772m1.546,0a.772.772,0,1,0,.772-.772.683.683,0,0,0-.772.772m1.545,0a.773.773,0,1,0,.773-.772.683.683,0,0,0-.773.772m1.546,0a.773.773,0,1,0,.772-.772.683.683,0,0,0-.772.772m-9.273-1.545a.773.773,0,1,0,.773-.773.683.683,0,0,0-.773.773m1.546,0a.773.773,0,1,0,.772-.773.683.683,0,0,0-.772.773m1.546,0a.773.773,0,1,0,.772-.773.683.683,0,0,0-.772.773m3.092,0a.772.772,0,1,0,.772-.773.683.683,0,0,0-.772.773m1.545,0a.773.773,0,1,0,.773-.773.683.683,0,0,0-.773.773m1.546,0a.773.773,0,1,0,.772-.773.683.683,0,0,0-.772.773m-9.273-1.546a.773.773,0,1,0,.773-.772.683.683,0,0,0-.773.772m1.546,0a.773.773,0,1,0,.772-.772.683.683,0,0,0-.772.772m1.546,0a.773.773,0,1,0,.772-.772.683.683,0,0,0-.772.772m3.092,0a.772.772,0,1,0,.772-.772.683.683,0,0,0-.772.772m1.545,0a.773.773,0,1,0,.773-.772.683.683,0,0,0-.773.772m1.546,0a.773.773,0,1,0,.772-.772.683.683,0,0,0-.772.772m-9.273-1.547a.773.773,0,1,0,.773-.772.683.683,0,0,0-.773.772m1.546,0a.773.773,0,1,0,.772-.772.683.683,0,0,0-.772.772m1.546,0a.773.773,0,1,0,.772-.772.683.683,0,0,0-.772.772m3.092,0a.772.772,0,1,0,.772-.772.683.683,0,0,0-.772.772m1.545,0a.773.773,0,1,0,.773-.772.683.683,0,0,0-.773.772m1.546,0a.773.773,0,1,0,.772-.772.683.683,0,0,0-.772.772m-9.273-1.546a.773.773,0,1,0,.773-.772.683.683,0,0,0-.773.772m1.546,0a.773.773,0,1,0,.772-.772.683.683,0,0,0-.772.772m1.546,0a.773.773,0,1,0,.772-.772.683.683,0,0,0-.772.772m3.092,0a.772.772,0,1,0,.772-.772.683.683,0,0,0-.772.772m1.545,0a.773.773,0,1,0,.773-.772.683.683,0,0,0-.773.772m1.546,0a.773.773,0,1,0,.772-.772.683.683,0,0,0-.772.772m-9.273-1.546a.773.773,0,1,0,.773-.772.683.683,0,0,0-.773.772m1.546,0a.773.773,0,1,0,.772-.772.683.683,0,0,0-.772.772m1.546,0a.773.773,0,1,0,.772-.772.683.683,0,0,0-.772.772m3.092,0a.772.772,0,1,0,.772-.772.683.683,0,0,0-.772.772m1.545,0a.773.773,0,1,0,.773-.772.683.683,0,0,0-.773.772m1.546,0a.773.773,0,1,0,.772-.772.683.683,0,0,0-.772.772m-9.273-1.546a.773.773,0,1,0,.773-.773.683.683,0,0,0-.773.773m1.546,0a.773.773,0,1,0,.772-.773.683.683,0,0,0-.772.773m1.546,0a.773.773,0,1,0,.772-.773.683.683,0,0,0-.772.773m3.092,0a.772.772,0,1,0,.772-.773.683.683,0,0,0-.772.773m1.545,0a.773.773,0,1,0,.773-.773.683.683,0,0,0-.773.773m1.546,0a.773.773,0,1,0,.772-.773.683.683,0,0,0-.772.773m-9.273-1.545a.773.773,0,1,0,.773-.773.683.683,0,0,0-.773.773m1.546,0a.773.773,0,1,0,.772-.773.682.682,0,0,0-.772.773m1.546,0a.773.773,0,1,0,.772-.773.682.682,0,0,0-.772.773m3.092,0a.772.772,0,1,0,.772-.773.682.682,0,0,0-.772.773m1.545,0a.773.773,0,1,0,.773-.773.682.682,0,0,0-.773.773m1.546,0a.773.773,0,1,0,.772-.773.682.682,0,0,0-.772.773" transform="translate(-313.21 -218.969)"/></clipPath><linearGradient id="j" x1="-10.656" y1="8.861" x2="-10.621" y2="8.861" gradientUnits="objectBoundingBox"><stop offset="0" stop-color="#fab428"/><stop offset="0.13" stop-color="#f7a631"/><stop offset="0.375" stop-color="#f1814c"/><stop offset="0.708" stop-color="#e64676"/><stop offset="0.736" stop-color="#e6417a"/><stop offset="1" stop-color="#e6417a"/></linearGradient><clipPath id="k"><path class="a" d="M313.21,248.011a.772.772,0,1,0,.773-.772.683.683,0,0,0-.773.772m1.545,0a.773.773,0,1,0,.773-.772.684.684,0,0,0-.773.772m-1.545-1.545a.772.772,0,1,0,.773-.773.683.683,0,0,0-.773.773m1.545,0a.773.773,0,1,0,.773-.773.683.683,0,0,0-.773.773m1.546,0a.773.773,0,1,0,.772-.773.682.682,0,0,0-.772.773m-3.091-1.546a.772.772,0,1,0,.773-.773.683.683,0,0,0-.773.773m1.545,0a.773.773,0,1,0,.773-.773.683.683,0,0,0-.773.773m1.546,0a.773.773,0,1,0,.772-.773.683.683,0,0,0-.772.773m-3.091-1.546a.772.772,0,1,0,.773-.773.683.683,0,0,0-.773.773m1.545,0a.773.773,0,1,0,.773-.773.683.683,0,0,0-.773.773m1.546,0a.773.773,0,1,0,.772-.773.682.682,0,0,0-.772.773" transform="translate(-313.21 -242.601)"/></clipPath><linearGradient id="l" x1="-26.387" y1="19.155" x2="-26.302" y2="19.155" xlink:href="#d"/><clipPath id="m"><path class="a" d="M341.631,248.007a.773.773,0,1,0,.773-.772.683.683,0,0,0-.773.772m1.546,0a.773.773,0,1,0,.772-.772.683.683,0,0,0-.772.772m-1.546-1.545a.773.773,0,1,0,.773-.773.683.683,0,0,0-.773.773m1.546,0a.773.773,0,1,0,.772-.773.683.683,0,0,0-.772.773m1.546,0a.773.773,0,1,0,.773-.773.683.683,0,0,0-.773.773m-3.091-1.546a.773.773,0,1,0,.773-.773.683.683,0,0,0-.773.773m1.546,0a.773.773,0,1,0,.772-.773.683.683,0,0,0-.772.773m1.546,0a.773.773,0,1,0,.773-.773.683.683,0,0,0-.773.773m-3.091-1.546a.773.773,0,1,0,.773-.773.683.683,0,0,0-.773.773m1.546,0a.773.773,0,1,0,.772-.773.683.683,0,0,0-.772.773m1.546,0a.773.773,0,1,0,.773-.773.683.683,0,0,0-.773.773" transform="translate(-341.631 -242.597)"/></clipPath><linearGradient id="n" x1="-28.801" y1="19.156" x2="-28.716" y2="19.156" xlink:href="#d"/></defs><g transform="translate(-1239.032 -34.999)"><g transform="translate(1277.547 58.793)"><g class="b" transform="translate(0 0)"><rect class="c" width="18.849" height="17.426" transform="translate(-7.001 11.002) rotate(-57.529)"/></g></g><g transform="translate(1250.986 50.081)"><g class="d" transform="translate(0 0)"><rect class="e" width="11.023" height="12.446" transform="translate(-2.8 4.4) rotate(-57.529)"/></g></g><g transform="translate(1264.326 58.798)"><g class="f" transform="translate(0 0)"><rect class="g" width="19.675" height="18.728" transform="matrix(0.537, -0.844, 0.844, 0.537, -6.999, 10.999)"/></g></g><g transform="translate(1267.437 50.081)"><g class="h" transform="translate(0 0)"><rect class="i" width="8.534" height="8.535" transform="translate(-2.8 4.4) rotate(-57.529)"/></g></g><g transform="translate(1250.986 58.796)"><g class="j" transform="translate(0 0)"><rect class="k" width="18.849" height="17.426" transform="translate(-7.001 11.002) rotate(-57.529)"/></g></g><g transform="translate(1250.89 73.969)"><g class="l" transform="translate(0)"><rect class="m" width="7.706" height="7.231" transform="translate(-2.8 4.401) rotate(-57.529)"/></g></g><g transform="translate(1270.695 73.965)"><g class="n" transform="translate(0 0)"><rect class="o" width="7.705" height="7.231" transform="matrix(0.537, -0.844, 0.844, 0.537, -2.8, 4.4)"/></g></g><path class="p" d="M357.162,246.319H296.194V185.351h60.968Zm-57.63-3.337h54.292V188.689H299.532Z" transform="translate(942.838 -150.352)"/><g transform="translate(1258.848 86.09)"><path class="p" d="M325.662,259.39c-.015-.289-.035-.638-.031-.9h-.01c-.071.243-.157.5-.262.788l-.366,1.006h-.2l-.336-.988c-.1-.292-.181-.56-.24-.806h-.006c-.006.258-.022.606-.04.916l-.056.89h-.255l.145-2.075h.341l.354,1c.087.256.158.483.21.7h.009c.052-.209.126-.437.218-.7l.37-1h.341l.129,2.075h-.261Z" transform="translate(-323.859 -258.192)"/><path class="p" d="M331.6,259.223a.972.972,0,0,1-.963,1.093.95.95,0,0,1-.932-1.052.985.985,0,0,1,.963-1.09.945.945,0,0,1,.933,1.049m-1.61.034c0,.443.24.84.662.84s.665-.391.665-.861c0-.413-.216-.843-.661-.843s-.665.409-.665.864" transform="translate(-325.88 -258.174)"/><path class="p" d="M335.479,259.647l-.215.653h-.277l.705-2.074h.323l.708,2.074h-.286l-.222-.653Zm.68-.209-.2-.6c-.046-.135-.077-.259-.107-.379h-.006c-.031.123-.065.25-.105.375l-.2.6Z" transform="translate(-327.708 -258.192)"/><path class="p" d="M340.175,258.453h-.631v-.228h1.536v.228h-.634V260.3h-.271Z" transform="translate(-329.285 -258.192)"/><path class="p" d="M344.675,258.225v.868h1v-.868h.271V260.3h-.271v-.973h-1v.973h-.268v-2.075Z" transform="translate(-330.968 -258.192)"/><path class="p" d="M350.712,259.327h-.806v.748h.9v.224h-1.166v-2.075h1.12v.225h-.852v.655h.806Z" transform="translate(-332.777 -258.192)"/><path class="p" d="M354.115,258.246a2.7,2.7,0,0,1,.514-.044.847.847,0,0,1,.6.169.519.519,0,0,1,.163.4.543.543,0,0,1-.39.528v.01a.515.515,0,0,1,.3.417,3.4,3.4,0,0,0,.16.571h-.277a2.812,2.812,0,0,1-.138-.5c-.062-.286-.172-.394-.415-.4h-.253v.9h-.267Zm.267.944h.274c.286,0,.468-.156.468-.394,0-.267-.194-.383-.477-.387a1.1,1.1,0,0,0-.264.024Z" transform="translate(-334.326 -258.184)"/></g></g></svg>