<svg xmlns="http://www.w3.org/2000/svg" xmlns:xlink="http://www.w3.org/1999/xlink" width="40.982" height="40.982" viewBox="0 0 40.982 40.982"><defs><style>.a{fill:none;}.b{clip-path:url(#a);}.c{fill:url(#b);}.d{clip-path:url(#c);}.e{fill:url(#d);}.f{clip-path:url(#e);}.g{fill:url(#f);}.h{clip-path:url(#g);}.i{fill:url(#h);}.j{clip-path:url(#i);}.k{fill:url(#j);}.l{clip-path:url(#k);}.m{fill:url(#l);}.n{clip-path:url(#m);}.o{fill:url(#n);}.p{fill:#fafafa;}.q{fill:#fff;}</style><clipPath id="a"><path class="a" d="M352.057,228.835a.519.519,0,1,0,.519-.52.459.459,0,0,0-.519.52m1.039,0a.519.519,0,1,0,.52-.52.459.459,0,0,0-.52.52m1.038,0a.52.52,0,1,0,.52-.52.459.459,0,0,0-.52.52m1.039,0a.519.519,0,1,0,.519-.52.459.459,0,0,0-.519.52m1.039,0a.52.52,0,1,0,.52-.52.459.459,0,0,0-.52.52m-5.194-1.039a.519.519,0,1,0,.52-.519.459.459,0,0,0-.52.519m1.039,0a.519.519,0,1,0,.519-.519.459.459,0,0,0-.519.519m1.039,0a.519.519,0,1,0,.52-.519.459.459,0,0,0-.52.519m1.038,0a.52.52,0,1,0,.52-.519.459.459,0,0,0-.52.519m1.039,0a.519.519,0,1,0,.519-.519.459.459,0,0,0-.519.519m1.039,0a.52.52,0,1,0,.52-.519.459.459,0,0,0-.52.519m1.039,0a.519.519,0,1,0,.519-.519.459.459,0,0,0-.519.519m-6.233-1.039a.519.519,0,1,0,.52-.52.459.459,0,0,0-.52.52m1.039,0a.519.519,0,1,0,.519-.52.459.459,0,0,0-.519.52m1.039,0a.519.519,0,1,0,.52-.52.459.459,0,0,0-.52.52m1.038,0a.52.52,0,1,0,.52-.52.46.46,0,0,0-.52.52m1.039,0a.519.519,0,1,0,.519-.52.459.459,0,0,0-.519.52m1.039,0a.52.52,0,1,0,.52-.52.459.459,0,0,0-.52.52m1.039,0a.519.519,0,1,0,.519-.52.459.459,0,0,0-.519.52m-6.233-1.039a.519.519,0,1,0,.52-.519.459.459,0,0,0-.52.519m1.039,0a.519.519,0,1,0,.519-.519.459.459,0,0,0-.519.519m1.039,0a.519.519,0,1,0,.52-.519.459.459,0,0,0-.52.519m2.078,0a.519.519,0,1,0,.519-.519.459.459,0,0,0-.519.519m1.039,0a.52.52,0,1,0,.52-.519.459.459,0,0,0-.52.519m1.039,0a.519.519,0,1,0,.519-.519.459.459,0,0,0-.519.519m-6.233-1.038a.519.519,0,1,0,.52-.519.459.459,0,0,0-.52.519m1.039,0a.519.519,0,1,0,.519-.519.459.459,0,0,0-.519.519m1.039,0a.519.519,0,1,0,.52-.519.459.459,0,0,0-.52.519m2.078,0a.519.519,0,1,0,.519-.519.459.459,0,0,0-.519.519m1.039,0a.52.52,0,1,0,.52-.519.459.459,0,0,0-.52.519m1.039,0a.519.519,0,1,0,.519-.519.459.459,0,0,0-.519.519m-6.233-1.04a.519.519,0,1,0,.52-.52.459.459,0,0,0-.52.52m1.039,0a.519.519,0,1,0,.519-.52.459.459,0,0,0-.519.52m1.039,0a.519.519,0,1,0,.52-.52.459.459,0,0,0-.52.52m2.078,0a.519.519,0,1,0,.519-.52.459.459,0,0,0-.519.52m1.039,0a.52.52,0,1,0,.52-.52.459.459,0,0,0-.52.52m1.039,0a.519.519,0,1,0,.519-.52.459.459,0,0,0-.519.52m-6.233-1.039a.519.519,0,1,0,.52-.519.459.459,0,0,0-.52.519m1.039,0a.519.519,0,1,0,.519-.519.459.459,0,0,0-.519.519m1.039,0a.519.519,0,1,0,.52-.519.459.459,0,0,0-.52.519m2.078,0a.519.519,0,1,0,.519-.519.459.459,0,0,0-.519.519m1.039,0a.52.52,0,1,0,.52-.519.459.459,0,0,0-.52.519m1.039,0a.519.519,0,1,0,.519-.519.459.459,0,0,0-.519.519m-6.233-1.038a.519.519,0,1,0,.52-.52.459.459,0,0,0-.52.52m1.039,0a.519.519,0,1,0,.519-.52.459.459,0,0,0-.519.52m1.039,0a.519.519,0,1,0,.52-.52.459.459,0,0,0-.52.52m1.038,0a.52.52,0,1,0,.52-.52.46.46,0,0,0-.52.52m1.039,0a.519.519,0,1,0,.519-.52.459.459,0,0,0-.519.52m1.039,0a.52.52,0,1,0,.52-.52.459.459,0,0,0-.52.52m1.039,0a.519.519,0,1,0,.519-.52.459.459,0,0,0-.519.52m-6.233-1.039a.519.519,0,1,0,.52-.519.459.459,0,0,0-.52.519m1.039,0a.519.519,0,1,0,.519-.519.459.459,0,0,0-.519.519m1.039,0a.519.519,0,1,0,.52-.519.459.459,0,0,0-.52.519m1.038,0a.52.52,0,1,0,.52-.519.459.459,0,0,0-.52.519m1.039,0a.519.519,0,1,0,.519-.519.459.459,0,0,0-.519.519m1.039,0a.52.52,0,1,0,.52-.519.459.459,0,0,0-.52.519m1.039,0a.519.519,0,1,0,.519-.519.459.459,0,0,0-.519.519m-5.195-1.039a.519.519,0,1,0,.519-.52.459.459,0,0,0-.519.52m1.039,0a.519.519,0,1,0,.52-.52.459.459,0,0,0-.52.52m1.038,0a.52.52,0,1,0,.52-.52.46.46,0,0,0-.52.52m1.039,0a.519.519,0,1,0,.519-.52.459.459,0,0,0-.519.52m1.039,0a.52.52,0,1,0,.52-.52.459.459,0,0,0-.52.52" transform="translate(-351.018 -218.964)"/></clipPath><linearGradient id="b" x1="-11.967" y1="8.861" x2="-11.933" y2="8.861" gradientUnits="objectBoundingBox"><stop offset="0" stop-color="#fab428"/><stop offset="0.114" stop-color="#fab428"/><stop offset="0.25" stop-color="#f7a631"/><stop offset="0.508" stop-color="#f1814c"/><stop offset="0.858" stop-color="#e64676"/><stop offset="0.887" stop-color="#e6417a"/><stop offset="1" stop-color="#e6417a"/></linearGradient><clipPath id="c"><path class="a" d="M313.21,210.589a.519.519,0,1,0,.52-.519.459.459,0,0,0-.52.519m1.039,0a.519.519,0,1,0,.519-.519.459.459,0,0,0-.519.519m1.039,0a.519.519,0,1,0,.519-.519.459.459,0,0,0-.519.519m2.078,0a.519.519,0,1,0,.519-.519.459.459,0,0,0-.519.519m1.038,0a.519.519,0,1,0,.52-.519.459.459,0,0,0-.52.519m1.039,0a.519.519,0,1,0,.519-.519.459.459,0,0,0-.519.519m-6.233-1.038a.519.519,0,1,0,.52-.519.459.459,0,0,0-.52.519m1.039,0a.519.519,0,1,0,.519-.519.459.459,0,0,0-.519.519m1.039,0a.519.519,0,1,0,.519-.519.459.459,0,0,0-.519.519m1.039,0a.52.52,0,1,0,.52-.519.459.459,0,0,0-.52.519m1.039,0a.519.519,0,1,0,.519-.519.459.459,0,0,0-.519.519m1.038,0a.519.519,0,1,0,.52-.519.459.459,0,0,0-.52.519m1.039,0a.519.519,0,1,0,.519-.519.459.459,0,0,0-.519.519m-6.233-1.039a.519.519,0,1,0,.52-.519.459.459,0,0,0-.52.519m1.039,0a.519.519,0,1,0,.519-.519.459.459,0,0,0-.519.519m1.039,0a.519.519,0,1,0,.519-.519.459.459,0,0,0-.519.519m1.039,0a.52.52,0,1,0,.52-.519.459.459,0,0,0-.52.519m1.039,0a.519.519,0,1,0,.519-.519.459.459,0,0,0-.519.519m1.038,0a.519.519,0,1,0,.52-.519.459.459,0,0,0-.52.519m1.039,0a.519.519,0,1,0,.519-.519.459.459,0,0,0-.519.519m-5.194-1.038a.519.519,0,1,0,.519-.52.459.459,0,0,0-.519.52m1.039,0a.519.519,0,1,0,.519-.52.459.459,0,0,0-.519.52m1.039,0a.52.52,0,1,0,.52-.52.459.459,0,0,0-.52.52m1.039,0a.519.519,0,1,0,.519-.52.459.459,0,0,0-.519.52m1.038,0a.519.519,0,1,0,.52-.52.459.459,0,0,0-.52.52" transform="translate(-313.21 -206.953)"/></clipPath><linearGradient id="d" x1="-18.575" y1="13.21" x2="-18.515" y2="13.21" gradientUnits="objectBoundingBox"><stop offset="0" stop-color="#fab428"/><stop offset="0.147" stop-color="#f7a631"/><stop offset="0.423" stop-color="#f1814c"/><stop offset="0.799" stop-color="#e64676"/><stop offset="0.83" stop-color="#e6417a"/><stop offset="1" stop-color="#e6417a"/></linearGradient><clipPath id="e"><path class="a" d="M333.153,228.839a.519.519,0,1,0,.52-.52.459.459,0,0,0-.52.52m1.039,0a.52.52,0,1,0,.52-.52.459.459,0,0,0-.52.52m1.039,0a.519.519,0,1,0,.519-.52.459.459,0,0,0-.519.52m1.038,0a.519.519,0,1,0,.519-.52.459.459,0,0,0-.519.52m1.039,0a.519.519,0,1,0,.519-.52.459.459,0,0,0-.519.52m2.078-.019a.52.52,0,1,0,.519-.5.456.456,0,0,0-.519.5m-7.272-1.02a.519.519,0,1,0,.519-.519.459.459,0,0,0-.519.519m1.039,0a.519.519,0,1,0,.52-.519.459.459,0,0,0-.52.519m1.039,0a.52.52,0,1,0,.52-.519.459.459,0,0,0-.52.519m1.039,0a.519.519,0,1,0,.519-.519.459.459,0,0,0-.519.519m1.038,0a.519.519,0,1,0,.519-.519.459.459,0,0,0-.519.519m1.039,0a.519.519,0,1,0,.519-.519.459.459,0,0,0-.519.519m2.078-.019a.52.52,0,1,0,.519-.5.456.456,0,0,0-.519.5m-7.272-1.02a.519.519,0,1,0,.519-.52.46.46,0,0,0-.519.52m1.039,0a.519.519,0,1,0,.52-.52.459.459,0,0,0-.52.52m1.039,0a.52.52,0,1,0,.52-.52.459.459,0,0,0-.52.52m1.039,0a.519.519,0,1,0,.519-.52.459.459,0,0,0-.519.52m1.038,0a.519.519,0,1,0,.519-.52.459.459,0,0,0-.519.52m1.039,0a.519.519,0,1,0,.519-.52.459.459,0,0,0-.519.52m2.078-.019a.52.52,0,1,0,.519-.5.456.456,0,0,0-.519.5m-7.272-1.02a.519.519,0,1,0,.519-.519.459.459,0,0,0-.519.519m1.039,0a.519.519,0,1,0,.52-.519.459.459,0,0,0-.52.519m1.039,0a.52.52,0,1,0,.52-.519.459.459,0,0,0-.52.519m2.078,0a.519.519,0,1,0,.519-.519.459.459,0,0,0-.519.519m1.039,0a.519.519,0,1,0,.519-.519.459.459,0,0,0-.519.519m1.039,0a.519.519,0,1,0,.52-.519.459.459,0,0,0-.52.519m-6.233-2.076a.52.52,0,0,1,0,1.038.519.519,0,0,0,1.039,0,.52.52,0,0,1,0-1.038.519.519,0,0,0-1.039,0m1.039,0a.52.52,0,0,1,0,1.038.519.519,0,0,0,1.039,0,.52.52,0,0,1,0-1.038.519.519,0,0,0-1.039,0m1.039,0a.52.52,0,0,1,0,1.038,1.16,1.16,0,1,0,0-1.038m2.078,0a.52.52,0,0,1,0,1.038,1.161,1.161,0,1,0,0-1.038m1.039,0a.52.52,0,0,1,0,1.038.519.519,0,0,0,1.039,0,.52.52,0,0,1,0-1.038.519.519,0,0,0-1.039,0m1.039,0a.52.52,0,0,1,0,1.038.519.519,0,0,0,1.039,0,.52.52,0,0,1,0-1.038.519.519,0,0,0-1.039,0m-6.233-1.038a.519.519,0,1,0,.519-.52.459.459,0,0,0-.519.52m1.039,0a.519.519,0,1,0,.52-.52.459.459,0,0,0-.52.52m1.039,0a.52.52,0,1,0,.52-.52.459.459,0,0,0-.52.52m2.078,0a.519.519,0,1,0,.519-.52.459.459,0,0,0-.519.52m1.039,0a.519.519,0,1,0,.519-.52.459.459,0,0,0-.519.52m1.039,0a.519.519,0,1,0,.52-.52.459.459,0,0,0-.52.52m-6.233-1.039a.519.519,0,1,0,.519-.519.459.459,0,0,0-.519.519m1.039,0a.519.519,0,1,0,.52-.519.459.459,0,0,0-.52.519m1.039,0a.52.52,0,1,0,.52-.519.459.459,0,0,0-.52.519m1.039,0a.519.519,0,1,0,.519-.519.459.459,0,0,0-.519.519m1.038,0a.519.519,0,1,0,.519-.519.459.459,0,0,0-.519.519m1.039,0a.519.519,0,1,0,.519-.519.459.459,0,0,0-.519.519m1.039,0a.519.519,0,1,0,.52-.519.459.459,0,0,0-.52.519m-6.233-1.039a.519.519,0,1,0,.519-.519.459.459,0,0,0-.519.519m1.039,0a.519.519,0,1,0,.52-.519.459.459,0,0,0-.52.519m1.039,0a.52.52,0,1,0,.52-.519.459.459,0,0,0-.52.519m1.039,0a.519.519,0,1,0,.519-.519.459.459,0,0,0-.519.519m1.038,0a.519.519,0,1,0,.519-.519.459.459,0,0,0-.519.519m1.039,0a.519.519,0,1,0,.519-.519.459.459,0,0,0-.519.519m1.039,0a.519.519,0,1,0,.52-.519.459.459,0,0,0-.52.519m-5.195-1.038a.519.519,0,1,0,.52-.519.459.459,0,0,0-.52.519m1.039,0a.52.52,0,1,0,.52-.519.459.459,0,0,0-.52.519m1.039,0a.519.519,0,1,0,.519-.519.459.459,0,0,0-.519.519m1.038,0a.519.519,0,1,0,.519-.519.459.459,0,0,0-.519.519m1.039,0a.519.519,0,1,0,.519-.519.459.459,0,0,0-.519.519" transform="translate(-332.114 -218.971)"/></clipPath><linearGradient id="f" x1="-10.855" y1="8.28" x2="-10.821" y2="8.28" gradientUnits="objectBoundingBox"><stop offset="0" stop-color="#fab428"/><stop offset="0.162" stop-color="#fab428"/><stop offset="0.28" stop-color="#f7a631"/><stop offset="0.503" stop-color="#f1814c"/><stop offset="0.805" stop-color="#e64676"/><stop offset="0.83" stop-color="#e6417a"/><stop offset="1" stop-color="#e6417a"/></linearGradient><clipPath id="g"><path class="a" d="M336.88,210.589a.519.519,0,1,0,.52-.52.459.459,0,0,0-.52.52m1.039,0a.52.52,0,1,0,.52-.52.459.459,0,0,0-.52.52m1.039,0a.519.519,0,1,0,.519-.52.459.459,0,0,0-.519.52m-2.078-1.039a.519.519,0,1,0,.52-.519.459.459,0,0,0-.52.519m1.039,0a.52.52,0,1,0,.52-.519.459.459,0,0,0-.52.519m1.039,0a.519.519,0,1,0,.519-.519.459.459,0,0,0-.519.519m1.039,0a.519.519,0,1,0,.519-.519.459.459,0,0,0-.519.519m-3.117-1.039a.519.519,0,1,0,.52-.519.459.459,0,0,0-.52.519m1.039,0a.52.52,0,1,0,.52-.519.459.459,0,0,0-.52.519m1.039,0a.519.519,0,1,0,.519-.519.459.459,0,0,0-.519.519m1.039,0a.519.519,0,1,0,.519-.519.459.459,0,0,0-.519.519m-2.078-1.038a.52.52,0,1,0,.52-.52.459.459,0,0,0-.52.52m1.039,0a.519.519,0,1,0,.519-.52.459.459,0,0,0-.519.52m1.039,0a.519.519,0,1,0,.519-.52.459.459,0,0,0-.519.52" transform="translate(-336.88 -206.953)"/></clipPath><linearGradient id="h" x1="-25.68" y1="19.035" x2="-25.603" y2="19.035" xlink:href="#f"/><clipPath id="i"><path class="a" d="M313.21,228.84a.519.519,0,1,0,.52-.52.459.459,0,0,0-.52.52m1.039,0a.519.519,0,1,0,.519-.52.459.459,0,0,0-.519.52m1.039,0a.519.519,0,1,0,.519-.52.459.459,0,0,0-.519.52m1.039,0a.52.52,0,1,0,.52-.52.459.459,0,0,0-.52.52m1.039,0a.519.519,0,1,0,.519-.52.459.459,0,0,0-.519.52m1.038,0a.519.519,0,1,0,.52-.52.459.459,0,0,0-.52.52M313.21,227.8a.519.519,0,1,0,.52-.52.459.459,0,0,0-.52.52m1.039,0a.519.519,0,1,0,.519-.52.459.459,0,0,0-.519.52m1.039,0a.519.519,0,1,0,.519-.52.459.459,0,0,0-.519.52m1.039,0a.52.52,0,1,0,.52-.52.459.459,0,0,0-.52.52m1.039,0a.519.519,0,1,0,.519-.52.459.459,0,0,0-.519.52m1.038,0a.519.519,0,1,0,.52-.52.459.459,0,0,0-.52.52m1.039,0a.519.519,0,1,0,.519-.52.459.459,0,0,0-.519.52m-6.233-1.039a.519.519,0,1,0,.52-.519.459.459,0,0,0-.52.519m1.039,0a.519.519,0,1,0,.519-.519.459.459,0,0,0-.519.519m1.039,0a.519.519,0,1,0,.519-.519.459.459,0,0,0-.519.519m1.039,0a.52.52,0,1,0,.52-.519.459.459,0,0,0-.52.519m1.039,0a.519.519,0,1,0,.519-.519.459.459,0,0,0-.519.519m1.038,0a.519.519,0,1,0,.52-.519.459.459,0,0,0-.52.519m1.039,0a.519.519,0,1,0,.519-.519.459.459,0,0,0-.519.519m-6.233-1.038a.519.519,0,1,0,.52-.52.459.459,0,0,0-.52.52m1.039,0a.519.519,0,1,0,.519-.52.459.459,0,0,0-.519.52m1.039,0a.519.519,0,1,0,.519-.52.459.459,0,0,0-.519.52m2.078,0a.519.519,0,1,0,.519-.52.459.459,0,0,0-.519.52m1.038,0a.519.519,0,1,0,.52-.52.459.459,0,0,0-.52.52m1.039,0a.519.519,0,1,0,.519-.52.459.459,0,0,0-.519.52m-6.233-1.039a.519.519,0,1,0,.52-.519.459.459,0,0,0-.52.519m1.039,0a.519.519,0,1,0,.519-.519.459.459,0,0,0-.519.519m1.039,0a.519.519,0,1,0,.519-.519.459.459,0,0,0-.519.519m2.078,0a.519.519,0,1,0,.519-.519.459.459,0,0,0-.519.519m1.038,0a.519.519,0,1,0,.52-.519.459.459,0,0,0-.52.519m1.039,0a.519.519,0,1,0,.519-.519.459.459,0,0,0-.519.519m-6.233-1.04a.519.519,0,1,0,.52-.519.459.459,0,0,0-.52.519m1.039,0a.519.519,0,1,0,.519-.519.459.459,0,0,0-.519.519m1.039,0a.519.519,0,1,0,.519-.519.459.459,0,0,0-.519.519m2.078,0a.519.519,0,1,0,.519-.519.459.459,0,0,0-.519.519m1.038,0a.519.519,0,1,0,.52-.519.459.459,0,0,0-.52.519m1.039,0a.519.519,0,1,0,.519-.519.459.459,0,0,0-.519.519M313.21,222.6a.519.519,0,1,0,.52-.519.459.459,0,0,0-.52.519m1.039,0a.519.519,0,1,0,.519-.519.459.459,0,0,0-.519.519m1.039,0a.519.519,0,1,0,.519-.519.459.459,0,0,0-.519.519m2.078,0a.519.519,0,1,0,.519-.519.459.459,0,0,0-.519.519m1.038,0a.519.519,0,1,0,.52-.519.459.459,0,0,0-.52.519m1.039,0a.519.519,0,1,0,.519-.519.459.459,0,0,0-.519.519m-6.233-1.039a.519.519,0,1,0,.52-.519.459.459,0,0,0-.52.519m1.039,0a.519.519,0,1,0,.519-.519.459.459,0,0,0-.519.519m1.039,0a.519.519,0,1,0,.519-.519.459.459,0,0,0-.519.519m2.078,0a.519.519,0,1,0,.519-.519.459.459,0,0,0-.519.519m1.038,0a.519.519,0,1,0,.52-.519.459.459,0,0,0-.52.519m1.039,0a.519.519,0,1,0,.519-.519.459.459,0,0,0-.519.519m-6.233-1.039a.519.519,0,1,0,.52-.52.459.459,0,0,0-.52.52m1.039,0a.519.519,0,1,0,.519-.52.459.459,0,0,0-.519.52m1.039,0a.519.519,0,1,0,.519-.52.459.459,0,0,0-.519.52m2.078,0a.519.519,0,1,0,.519-.52.459.459,0,0,0-.519.52m1.038,0a.519.519,0,1,0,.52-.52.459.459,0,0,0-.52.52m1.039,0a.519.519,0,1,0,.519-.52.459.459,0,0,0-.519.52m-6.233-1.038a.519.519,0,1,0,.52-.52.459.459,0,0,0-.52.52m1.039,0a.519.519,0,1,0,.519-.52.459.459,0,0,0-.519.52m1.039,0a.519.519,0,1,0,.519-.52.459.459,0,0,0-.519.52m2.078,0a.519.519,0,1,0,.519-.52.459.459,0,0,0-.519.52m1.038,0a.519.519,0,1,0,.52-.52.459.459,0,0,0-.52.52m1.039,0a.519.519,0,1,0,.519-.52.459.459,0,0,0-.519.52" transform="translate(-313.21 -218.969)"/></clipPath><linearGradient id="j" x1="-10.656" y1="8.861" x2="-10.621" y2="8.861" gradientUnits="objectBoundingBox"><stop offset="0" stop-color="#fab428"/><stop offset="0.13" stop-color="#f7a631"/><stop offset="0.375" stop-color="#f1814c"/><stop offset="0.708" stop-color="#e64676"/><stop offset="0.736" stop-color="#e6417a"/><stop offset="1" stop-color="#e6417a"/></linearGradient><clipPath id="k"><path class="a" d="M313.21,246.237a.519.519,0,1,0,.52-.519.459.459,0,0,0-.52.519m1.038,0a.52.52,0,1,0,.52-.519.46.46,0,0,0-.52.519M313.21,245.2a.519.519,0,1,0,.52-.52.459.459,0,0,0-.52.52m1.038,0a.52.52,0,1,0,.52-.52.459.459,0,0,0-.52.52m1.039,0a.519.519,0,1,0,.519-.52.459.459,0,0,0-.519.52m-2.078-1.039a.519.519,0,1,0,.52-.52.459.459,0,0,0-.52.52m1.038,0a.52.52,0,1,0,.52-.52.459.459,0,0,0-.52.52m1.039,0a.519.519,0,1,0,.519-.52.459.459,0,0,0-.519.52m-2.078-1.039a.519.519,0,1,0,.52-.52.459.459,0,0,0-.52.52m1.038,0a.52.52,0,1,0,.52-.52.459.459,0,0,0-.52.52m1.039,0a.519.519,0,1,0,.519-.52.459.459,0,0,0-.519.52" transform="translate(-313.21 -242.601)"/></clipPath><linearGradient id="l" x1="-26.387" y1="19.155" x2="-26.302" y2="19.155" xlink:href="#d"/><clipPath id="m"><path class="a" d="M341.631,246.233a.519.519,0,1,0,.52-.519.459.459,0,0,0-.52.519m1.039,0a.519.519,0,1,0,.519-.519.459.459,0,0,0-.519.519m-1.039-1.038a.519.519,0,1,0,.52-.52.459.459,0,0,0-.52.52m1.039,0a.519.519,0,1,0,.519-.52.459.459,0,0,0-.519.52m1.039,0a.519.519,0,1,0,.52-.52.459.459,0,0,0-.52.52m-2.078-1.039a.519.519,0,1,0,.52-.52.459.459,0,0,0-.52.52m1.039,0a.519.519,0,1,0,.519-.52.459.459,0,0,0-.519.52m1.039,0a.519.519,0,1,0,.52-.52.459.459,0,0,0-.52.52m-2.078-1.039a.519.519,0,1,0,.52-.52.459.459,0,0,0-.52.52m1.039,0a.519.519,0,1,0,.519-.52.459.459,0,0,0-.519.52m1.039,0a.519.519,0,1,0,.52-.52.459.459,0,0,0-.52.52" transform="translate(-341.631 -242.597)"/></clipPath><linearGradient id="n" x1="-28.801" y1="19.156" x2="-28.716" y2="19.156" xlink:href="#d"/></defs><g transform="translate(-1239.033 -35)"><g transform="translate(1264.922 50.993)"><g class="b" transform="translate(0 0)"><rect class="c" width="12.67" height="11.714" transform="translate(-4.706 7.395) rotate(-57.529)"/></g></g><g transform="translate(1247.068 45.137)"><g class="d" transform="translate(0 0)"><rect class="e" width="7.41" height="8.366" transform="translate(-1.882 2.958) rotate(-57.529)"/></g></g><g transform="translate(1256.035 50.997)"><g class="f" transform="translate(0 0)"><rect class="g" width="13.225" height="12.589" transform="matrix(0.537, -0.844, 0.844, 0.537, -4.705, 7.393)"/></g></g><g transform="translate(1258.126 45.137)"><g class="h" transform="translate(0 0)"><rect class="i" width="5.737" height="5.737" transform="translate(-1.882 2.958) rotate(-57.529)"/></g></g><g transform="translate(1247.068 50.995)"><g class="j" transform="translate(0 0)"><rect class="k" width="12.67" height="11.713" transform="translate(-4.706 7.395) rotate(-57.529)"/></g></g><g transform="translate(1247.003 61.194)"><g class="l" transform="translate(0)"><rect class="m" width="5.18" height="4.861" transform="translate(-1.882 2.958) rotate(-57.529)"/></g></g><g transform="translate(1260.316 61.192)"><g class="n" transform="translate(0 0)"><rect class="o" width="5.179" height="4.86" transform="matrix(0.537, -0.844, 0.844, 0.537, -1.882, 2.958)"/></g></g><path class="p" d="M337.176,226.333H296.194V185.351h40.982Zm-38.738-2.243h36.495V187.595H298.438Z" transform="translate(942.838 -150.352)"/><g transform="translate(1252.352 69.342)"><path class="q" d="M325.071,259.008c-.01-.194-.023-.429-.021-.6h-.007c-.047.163-.106.337-.176.529l-.246.676h-.137l-.226-.664c-.066-.2-.122-.376-.161-.542h0c0,.173-.015.408-.027.616l-.037.6h-.171l.1-1.395h.229l.238.674c.058.172.106.324.141.47h.006c.035-.141.085-.294.146-.47l.249-.674h.23l.087,1.395h-.175Z" transform="translate(-323.859 -258.203)"/><path class="q" d="M330.974,258.879a.653.653,0,0,1-.648.735.639.639,0,0,1-.626-.707.662.662,0,0,1,.647-.732.635.635,0,0,1,.627.705m-1.082.023c0,.3.161.565.445.565s.447-.263.447-.579c0-.277-.145-.567-.445-.567s-.447.275-.447.581" transform="translate(-327.132 -258.174)"/><path class="q" d="M335.317,259.181l-.145.439h-.186l.474-1.394h.217l.476,1.394h-.192l-.149-.439Zm.457-.14-.137-.4c-.031-.091-.051-.174-.072-.255h0c-.021.083-.043.168-.071.252l-.136.4Z" transform="translate(-330.094 -258.203)"/><path class="q" d="M339.968,258.378h-.424v-.153h1.032v.153h-.426v1.241h-.182Z" transform="translate(-332.648 -258.203)"/><path class="q" d="M344.588,258.225v.583h.674v-.583h.182v1.395h-.182v-.654h-.674v.654h-.18v-1.395Z" transform="translate(-335.373 -258.203)"/><path class="q" d="M350.36,258.966h-.542v.5h.6v.151h-.784v-1.395h.753v.151h-.572v.441h.542Z" transform="translate(-338.304 -258.202)"/><path class="q" d="M354.115,258.231a1.814,1.814,0,0,1,.346-.029.569.569,0,0,1,.4.113.349.349,0,0,1,.109.266.365.365,0,0,1-.262.355v.007a.346.346,0,0,1,.2.28,2.285,2.285,0,0,0,.108.384h-.186a1.892,1.892,0,0,1-.093-.334c-.041-.192-.116-.265-.279-.271h-.17v.6h-.18Zm.18.634h.184c.192,0,.314-.105.314-.265,0-.179-.13-.258-.321-.26a.742.742,0,0,0-.178.016Z" transform="translate(-340.813 -258.19)"/></g></g></svg>