<svg xmlns="http://www.w3.org/2000/svg" width="62.715" height="62.707" viewBox="0 0 62.715 62.707"><defs><style>.a{fill:#E6427A;}</style></defs><g transform="translate(0 -0.002)"><path class="a" d="M31.973,21.986l-16.3-11.852a1.966,1.966,0,0,0-3.122,1.586v23.7a1.96,1.96,0,0,0,1.074,1.753,1.98,1.98,0,0,0,.894.212A1.954,1.954,0,0,0,15.669,37l16.3-11.841a1.95,1.95,0,0,0,0-3.172Z" transform="translate(11.347 7.82)"/><path class="a" d="M31.359,0A31.354,31.354,0,1,0,62.715,31.361,31.355,31.355,0,0,0,31.359,0Zm0,57.475A26.12,26.12,0,1,1,57.475,31.361,26.117,26.117,0,0,1,31.359,57.477Z" transform="translate(0 0)"/></g></svg>