<svg xmlns="http://www.w3.org/2000/svg" width="49" height="40.553" viewBox="0 0 49 40.553"><defs><style>.a{fill:#e6427a;}</style></defs><g transform="translate(1 -1.223)"><path class="a" d="M33,29a2,2,0,0,1-2-2V23a6.007,6.007,0,0,0-6-6H9a6,6,0,0,0-6,6v4a2,2,0,0,1-4,0V23A10,10,0,0,1,9,13H25A10.011,10.011,0,0,1,35,23v4A2,2,0,0,1,33,29Z" transform="translate(0 12.776)"/><path class="a" d="M8-2A10.217,10.217,0,0,1,15.025.738a9.173,9.173,0,0,1,0,13.525A10.217,10.217,0,0,1,8,17,10.217,10.217,0,0,1,.975,14.262,9.173,9.173,0,0,1,.975.738,10.217,10.217,0,0,1,8-2ZM8,13a5.773,5.773,0,0,0,6-5.5A5.773,5.773,0,0,0,8,2,5.773,5.773,0,0,0,2,7.5,5.773,5.773,0,0,0,8,13Z" transform="translate(9.286 3.982)"/><path class="a" d="M26,28.87a2,2,0,0,1-2-2v-4a6,6,0,0,0-4.5-5.8,2,2,0,0,1,1-3.873A10,10,0,0,1,28,22.868v4A2,2,0,0,1,26,28.87Z" transform="translate(20 12.906)"/><path class="a" d="M16,20.63a2,2,0,0,1-.495-3.938,6,6,0,0,0,0-11.625A2,2,0,1,1,16.5,1.193a10,10,0,0,1,0,19.375A2,2,0,0,1,16,20.63Z" transform="translate(15.79 0.093)"/></g></svg>