<svg xmlns="http://www.w3.org/2000/svg" width="87.125" height="88.829" viewBox="0 0 87.125 88.829"><defs><style>.a{fill:#353738;}.b{fill:#3bbeba;}</style></defs><path class="a" d="M1006.378,187.547c-4.177,0-8.353.007-12.527-.012a1.136,1.136,0,0,0-1.016.5,6.944,6.944,0,0,1-9.031,1.474,6.534,6.534,0,0,1-2.419-6.763,5.675,5.675,0,0,1,4.686-4.428c.567-.094.811.045.714.662a.828.828,0,0,0,0,.222,1.388,1.388,0,0,1-1.046,1.767,3.386,3.386,0,0,0-1.856,4.361,3.669,3.669,0,0,0,4.287,2.6,3.9,3.9,0,0,0,3.3-4.039c.009-3.1.016-6.206-.01-9.311,0-.57.155-.751.686-.7a6.559,6.559,0,0,0,1.36,0c.51-.048.633.154.63.667-.021,3.277.012,6.556-.029,9.833-.009.7.191.848.825.838,2.386-.041,4.771-.033,7.157-.006.583.007.838,0,.619-.77a7.641,7.641,0,0,1,.05-4.118,3.793,3.793,0,0,1,2.838-2.858,6.939,6.939,0,0,1,3.612.03,3.785,3.785,0,0,1,2.82,3.295,8.627,8.627,0,0,1-.11,3.835c-.135.484-.025.635.438.577a5.05,5.05,0,0,1,.574,0c.979-.012,1.294-.277,1.322-1.319.045-1.665.042-3.328.016-4.992-.009-.517.12-.707.632-.661.638.058,1.485-.2,1.868.132.447.393.131,1.3.144,1.983q.035,2.163,0,4.321c-.007.406.076.607.494.539a1.722,1.722,0,0,1,.287,0c2.2,0,2.849-.593,2.907-2.923.064-2.552.045-5.114.015-7.67-.007-.607.17-.781.72-.725.612.065,1.407-.254,1.8.12s.121,1.222.126,1.861c.015,2.132.006,4.267-.006,6.4a9.1,9.1,0,0,1-.113,1.333c-.425,2.671-1.7,3.886-4.306,3.919-4.151.048-8.3.01-12.452.01Zm.927-2.341a1.858,1.858,0,0,0,2.141-1.6,5.725,5.725,0,0,0-.033-2.431,2.148,2.148,0,0,0-4.17-.02,6.12,6.12,0,0,0-.1,1.99c.116,1.461.748,2.061,2.165,2.062" transform="translate(-981.079 -110.817)"/><path class="b" d="M991.249,141.579c1.661,1.055,3.186,2.018,4.707,2.987q10.377,6.614,20.759,13.217a1.341,1.341,0,0,1,.729,1.352c-.054,1.49,0,2.98-.026,4.469-.006.458.083.673.584.664,1.552-.028,3.1-.023,4.656,0,.452.007.564-.172.558-.612-.021-1.538.016-3.08-.022-4.618a1.185,1.185,0,0,1,.622-1.188q8.713-5.52,17.4-11.073,3.661-2.331,7.326-4.667a1.624,1.624,0,0,1,.8-.4,1.23,1.23,0,0,1-.665,1.12l-18.893,14.506c-.884.68-1.753,1.377-2.655,2.026a1.115,1.115,0,0,0-.506,1.045q.028,5.14,0,10.282a6.325,6.325,0,0,1-2.711,5.372c-.186.136-.386.4-.62.268-.2-.115-.081-.412-.083-.623-.008-1.242-.016-2.484,0-3.724.007-.451-.074-.67-.58-.661-1.551.033-3.1.029-4.654,0-.449-.006-.571.152-.562.6.023,1.316-.009,2.632.016,3.947.012.574-.158.583-.558.312a6.3,6.3,0,0,1-2.867-5.434c-.033-3.4-.023-6.8,0-10.207a1.412,1.412,0,0,0-.636-1.278q-10.759-8.227-21.494-16.484a1.434,1.434,0,0,1-.635-1.2m29.034,27.718c.812,0,1.622-.006,2.432,0,.3,0,.507-.035.5-.433-.019-.719-.014-1.438,0-2.157,0-.326-.132-.435-.43-.433-1.645.007-3.29.01-4.935,0-.307,0-.425.117-.419.438.011.717.016,1.438,0,2.157-.012.4.207.432.5.429.785-.009,1.573,0,2.359,0" transform="translate(-976.577 -125.111)"/><path class="b" d="M1038.587,132.7c-1.915.09-3.789.039-5.661.132a49.128,49.128,0,0,0-23.3,7.154,96.956,96.956,0,0,0-12.069,8.909c-.184.152-.375.3-.593.471-.127-.29.071-.446.165-.609,5.679-9.765,13.816-15.941,24.649-18.051a26.969,26.969,0,0,1,15.478,1.368c.452.181.886.415,1.329.625" transform="translate(-974.026 -130.158)"/><path class="b" d="M1022.985,159.287q1.452,2.724,2.9,5.453a1.044,1.044,0,0,1,0,.726,11.455,11.455,0,0,1-8.986,9.268,4.112,4.112,0,0,0-1.618.9c-.34.248-.608.31-.94,0a5.309,5.309,0,0,0-2.321-1.052c-4.538-1.28-7.3-4.373-8.379-9.111a1.16,1.16,0,0,1,.064-.861c.909-1.686,1.8-3.381,2.706-5.074.045-.086.094-.173.322-.12,0,.7.014,1.429,0,2.16a10.774,10.774,0,0,0,.894,5.429,8.211,8.211,0,0,0,4.625,4.092c.777.283.781.273.783-.557,0-1.763.016-3.526-.012-5.289-.007-.493.139-.658.607-.635.738.029,1.48.038,2.218,0,.56-.036.676.209.667.739-.027,1.787.009,3.573-.022,5.361-.009.555.152.59.613.449a8.335,8.335,0,0,0,5.692-7.751c.02-1.358,0-2.713,0-4.073.061-.02.121-.038.182-.059" transform="translate(-971.03 -117.233)"/><path class="a" d="M1043.943,183.874c0,1.064.058,2.136-.013,3.2a3.347,3.347,0,0,1-2.574,3.257,15.75,15.75,0,0,1-4.55.325c-1.294.013-1.294,0-1.329-1.349-.023-.938-.023-.93.92-.944a22.752,22.752,0,0,0,3.5-.113,1.528,1.528,0,0,0,1.446-1.475c.018-.348-.078-.483-.432-.473-.787.017-1.576.019-2.362-.014-2.792-.12-4.12-1.523-4.224-4.428a8.688,8.688,0,0,1,.1-1.7,3.727,3.727,0,0,1,2.873-3.316,7.537,7.537,0,0,1,3.825.01,3.622,3.622,0,0,1,2.768,3.383,27.536,27.536,0,0,1,.05,3.645m-2.616-1.636c0-.446.025-.893,0-1.339a1.866,1.866,0,0,0-2.09-2,1.9,1.9,0,0,0-2.234,1.934c-.217,2.757.7,3.215,2.684,3.142,1.654-.059,1.655-.012,1.644-1.735" transform="translate(-957.221 -109.573)"/><path class="b" d="M1031.934,148.02c-6.2-5.271-12.572-10.123-20.115-13.123a1,1,0,0,1,.577-.333c1.3-.473,2.644-.826,3.967-1.236a2.475,2.475,0,0,1,2.212.316,37.445,37.445,0,0,1,13.132,13.6c.1.17.184.345.267.523.016.036-.013.094-.039.255" transform="translate(-967.333 -128.793)"/><path class="a" d="M1021.138,176.667c3.828.033,5.064,2.138,4.647,6.025a3.478,3.478,0,0,1-3.315,3.463,8.715,8.715,0,0,1-3.126-.046A3.574,3.574,0,0,1,1016.3,183a7.933,7.933,0,0,1-.007-2.957,3.807,3.807,0,0,1,3.565-3.289c.424-.055.853-.059,1.282-.088m-.07,2.441c-1.628-.006-2.245.632-2.257,2.325-.01,1.8.587,2.477,2.185,2.478,1.573.006,2.228-.687,2.244-2.373.017-1.71-.622-2.425-2.173-2.431" transform="translate(-965.383 -109.54)"/><path class="b" d="M1013.446,134.58a48.716,48.716,0,0,0-6.521,18.668,2.484,2.484,0,0,1-.4-1.17,11.313,11.313,0,0,1-.193-1.171,27.951,27.951,0,0,1,2.032-13.819.84.84,0,0,1,.274-.417,27.482,27.482,0,0,1,4.81-2.091" transform="translate(-969.877 -128.173)"/><path class="b" d="M1018.093,153.23a50.115,50.115,0,0,0-6.584-18.564c.239-.184.4-.02.565.051,1.052.461,2.084.983,3.156,1.391a2.937,2.937,0,0,1,1.786,2.018,27.449,27.449,0,0,1,1.381,13.74c-.078.457-.2.91-.3,1.364" transform="translate(-967.472 -128.17)"/><path class="a" d="M1035.3,181.018a26.328,26.328,0,0,1-.191,4.473c-.538,2.877-1.992,4.241-4.807,4.309-2.253.054-1.709.474-1.8-1.867-.013-.374.139-.451.463-.457,2.224-.038,3.648-.609,3.674-4.135.013-1.96.015-3.921-.009-5.877,0-.448.1-.629.552-.593a11.37,11.37,0,0,0,1.571,0c.459-.035.563.157.551.6-.026,1.112-.009,2.231-.009,3.545" transform="translate(-959.833 -109.451)"/><path class="a" d="M1028.375,181.349a26.152,26.152,0,0,1-.2,4.192c-.48,2.732-1.945,4.092-4.622,4.274l-.215.016c-1.855.1-1.922.017-1.772-1.91.024-.319.114-.455.42-.422a.775.775,0,0,0,.142,0c2.615-.191,3.513-1.129,3.576-3.864.048-2.031.038-4.066.012-6.1-.007-.536.158-.687.646-.649.636.052,1.465-.2,1.865.136.426.354.113,1.251.138,1.909.025.7.006,1.39.006,2.422" transform="translate(-962.973 -109.463)"/><path class="a" d="M1011.3,180.743c0-2.084.012-4.171-.01-6.254,0-.445.088-.636.549-.6a10.385,10.385,0,0,0,1.574,0c.456-.033.549.161.548.6q-.021,6.216,0,12.437c0,.435-.09.635-.551.6a9.678,9.678,0,0,0-1.574,0c-.471.035-.549-.178-.546-.607.019-2.06.009-4.121.009-6.183" transform="translate(-967.57 -110.791)"/><path class="a" d="M1030.023,180.785c0,2.035-.018,4.073.011,6.108.007.525-.135.706-.638.649-.634-.07-1.461.275-1.86-.136s-.121-1.271-.123-1.933c-.013-3.6,0-7.2-.016-10.8,0-.535.058-.857.681-.764s1.473-.284,1.835.162c.31.386.1,1.231.107,1.871.006,1.613,0,3.228,0,4.841" transform="translate(-960.365 -110.808)"/><path class="b" d="M1010.109,147.113c0-1.462.017-2.926-.01-4.384-.009-.5.093-.719.623-.69.783.043,1.571.026,2.358.007.358-.009.506.109.5.507q-.016,4.611,0,9.22c0,.4-.162.5-.515.5-.785-.019-1.572-.032-2.357,0-.463.019-.623-.128-.614-.626.027-1.51.01-3.023.01-4.535" transform="translate(-968.106 -124.883)"/><path class="b" d="M1013.579,154.581c0,1.341-.015,2.678.007,4.016.007.455-.083.68-.584.658-.784-.041-1.571-.026-2.357,0-.388.01-.548-.112-.545-.546q.024-4.129,0-8.254c0-.435.159-.551.546-.542.762.02,1.526.033,2.286,0,.49-.02.671.128.658.662-.033,1.338-.011,2.677-.011,4.015" transform="translate(-968.104 -121.387)"/><path class="b" d="M1013.579,140.863c0,.891-.017,1.784.007,2.679.012.435-.1.625-.558.61-.809-.033-1.619-.023-2.429,0-.367,0-.5-.129-.5-.519.015-1.781.007-3.568,0-5.351a1.125,1.125,0,0,1,.149-.567c.455-.81.922-1.619,1.361-2.439.232-.435.388-.384.626,0,.846,1.362,1.622,2.739,1.345,4.474a7.141,7.141,0,0,0-.009,1.115" transform="translate(-968.103 -127.997)"/><path class="a" d="M1020.031,189.914c-.3.4-.6.813-.9,1.215-.474.635-.565.629-1.03-.043-.249-.362-.5-.726-.752-1.086-.019-.03-.08-.028-.2-.058,0,1-.033,1.983.013,2.958.029.615-.323.536-.681.536s-.693.081-.674-.538c.046-1.539,0-3.076.025-4.616,0-.255-.193-.7.206-.739.431-.033.958-.274,1.312.257s.716,1.055,1.062,1.59c.165.255.29.265.462.006.326-.488.676-.961,1.006-1.448a.8.8,0,0,1,.674-.451c.984-.028.981-.048.981.968,0,1.467-.027,2.929.01,4.392.015.555-.232.6-.644.584-.38-.022-.762.084-.728-.574.049-.962.012-1.929.012-2.894-.051-.019-.1-.036-.151-.058" transform="translate(-965.551 -104.69)"/><path class="a" d="M1023.588,190.329c0,.833-.036,1.661.011,2.48.034.57-.2.646-.662.632-.423-.01-.709,0-.693-.606.043-1.538.007-3.076.023-4.609,0-.236-.177-.646.193-.684.408-.036.9-.261,1.22.288.481.829.988,1.636,1.493,2.448.081.132.116.326.4.359,0-.845.033-1.676-.011-2.5-.032-.554.188-.654.658-.639.427.013.7.013.682.612-.043,1.51,0,3.023-.025,4.535,0,.264.236.725-.267.771-.421.039-.883.167-1.184-.4-.438-.823-.955-1.6-1.445-2.392-.07-.112-.1-.28-.4-.3" transform="translate(-962.655 -104.689)"/><path class="a" d="M995.448,190.624c0-.829.033-1.662-.011-2.494-.032-.559.2-.648.664-.638.433.009.7.022.684.615-.04,1.51,0,3.025-.023,4.537,0,.259.194.7-.206.754-.429.062-.922.213-1.25-.387a18.613,18.613,0,0,0-1.864-2.789c0,.86-.035,1.725.013,2.586.03.565-.194.645-.659.633-.441-.009-.7-.035-.68-.622.042-1.512,0-3.025.025-4.537,0-.257-.2-.7.21-.746s.926-.233,1.255.367c.52.944,1.115,1.844,1.677,2.76.055-.01.11-.023.165-.038" transform="translate(-976.198 -104.685)"/><path class="a" d="M1006.955,190.433c0-.794.017-1.59-.007-2.383-.013-.4.084-.586.51-.561.643.032,1.288-.006,1.932.015a1.57,1.57,0,0,1,1.624.981,2.13,2.13,0,0,1-.306,2.3c-.351.37-.3.564-.007.875a1.82,1.82,0,0,1,.388.616c.125.361.629.7.284,1.093-.306.349-1.26-.061-1.51-.551a9.906,9.906,0,0,0-.568-.941.683.683,0,0,0-.784-.206c-.354.071-.167.4-.208.615a1.528,1.528,0,0,0,0,.3c0,.8-.349,1.054-1.1.836-.313-.09-.239-.325-.241-.532-.006-.816,0-1.638,0-2.455m1.329-.855c.136.316-.3.945.51.92.694-.026.986-.281,1-.951.019-.706-.374-.844-.957-.884-.791-.057-.465.531-.555.915" transform="translate(-969.522 -104.678)"/><path class="a" d="M1034.48,190.423c0-.822.011-1.638-.006-2.46-.008-.342.083-.488.438-.474.643.029,1.288-.007,1.932.013a1.6,1.6,0,0,1,1.686.993,2.166,2.166,0,0,1-.313,2.3c-.3.323-.33.5-.034.828a4.4,4.4,0,0,1,.762,1.339c.119.284.113.457-.267.465-.6.012-1.2.1-1.381-.761a2.542,2.542,0,0,0-.449-.749.717.717,0,0,0-.843-.243c-.343.077-.156.4-.2.623a2.135,2.135,0,0,0,0,.371.78.78,0,0,1-1.174.729c-.238-.125-.145-.343-.148-.522-.011-.819,0-1.638,0-2.454m1.315-.812c.113.323-.278.936.525.887.686-.041.985-.287,1-.948.011-.677-.352-.849-.945-.887-.819-.055-.5.545-.577.948" transform="translate(-957.154 -104.678)"/><path class="a" d="M984.618,190.456c0-.822.016-1.639-.007-2.46-.012-.388.116-.523.49-.506.643.025,1.289-.006,1.932.013a1.589,1.589,0,0,1,1.642.96,2.148,2.148,0,0,1-.28,2.3c-.306.346-.359.551-.036.886a1.946,1.946,0,0,1,.427.677c.123.345.639.717.206,1.057-.415.328-1.184-.067-1.451-.555-.26-.473-.384-1.1-1.061-1.175-.329-.039-.572.022-.52.459a3.534,3.534,0,0,1,0,.449c0,.842-.281,1.046-1.08.857-.322-.072-.26-.3-.262-.507,0-.823,0-1.641,0-2.458m1.339-.936c0,.977,0,.977.545.968.692-.009.954-.283.964-.967.011-.707-.4-.818-.965-.859-.771-.052-.487.512-.543.858" transform="translate(-979.56 -104.677)"/><path class="a" d="M1002.754,190.463c.022-2.29,1.261-3.383,3.349-2.944a2.136,2.136,0,0,1,1.739,1.658,5.245,5.245,0,0,1,.061,2.281,2.587,2.587,0,0,1-5.051.033,9.32,9.32,0,0,1-.1-1.029m1.41.151c0,.051,0,.274.032.5.1.786.461,1.165,1.121,1.194.7.03,1.115-.348,1.236-1.149a4.377,4.377,0,0,0-.023-1.548,1.1,1.1,0,0,0-1.238-.964c-.816.055-1.126.549-1.128,1.971" transform="translate(-971.406 -104.705)"/><path class="a" d="M990.566,187.517c.7-.188.989.168,1.2.8.51,1.519.993,3.047,1.384,4.6.1.416.01.506-.38.523-.622.033-1.148.027-1.146-.846,0-.361-.219-.5-.571-.467a2.66,2.66,0,0,1-.712,0c-.575-.091-.878.107-.954.746-.058.477-.855.773-1.275.538-.184-.106-.109-.241-.075-.38a41.291,41.291,0,0,1,1.581-5.16c.212-.555.635-.277.946-.354m.615,3.339a10.94,10.94,0,0,0-.622-2.194c-.146.467-.255.786-.349,1.112-.374,1.278-.372,1.278.971,1.083" transform="translate(-978.039 -104.686)"/><path class="a" d="M1000.879,187.5c.214,0,.428,0,.642,0,1.415.015,2.106.652,2.158,1.983.058,1.484-.6,2.364-2,2.409-.768.026-.993.3-.877,1.026.087.549-.274.535-.623.5-.313-.03-.744.184-.734-.474.025-1.655.02-3.316,0-4.971,0-.416.16-.51.507-.481.307.019.619,0,.928,0m-.077,2.151c0,1.1,0,1.1.467,1.1.737,0,1.035-.317,1.029-1.094-.006-.722-.245-.939-.958-.98-.928-.052-.371.688-.538.977" transform="translate(-972.893 -104.678)"/><path class="a" d="M1029.5,193.517c-.345-.048-.767-.117-1.193-.165-.352-.045-.452-.229-.473-.594-.032-.557.084-.78.661-.589a3.309,3.309,0,0,0,1.488.11.585.585,0,0,0,.117-1.154c-.365-.116-.737-.2-1.1-.322a1.705,1.705,0,0,1,.036-3.235,5.063,5.063,0,0,1,2.2-.026c.626.09.384.575.407.923.035.525-.337.258-.545.251a6.041,6.041,0,0,0-1.353-.059c-.251.051-.471.145-.493.448a.5.5,0,0,0,.4.536c.32.1.645.181.965.281a1.8,1.8,0,0,1-.18,3.516c-.28.052-.568.049-.939.078" transform="translate(-960.138 -104.702)"/><path class="a" d="M997.7,193.524a10.062,10.062,0,0,0-1.016-.132c-.606-.019-.744-.349-.7-.916.026-.346.117-.422.433-.344a4.8,4.8,0,0,0,1.413.171c.39-.017.807-.022.871-.554.059-.494-.327-.6-.677-.7-.274-.084-.554-.146-.828-.232a1.7,1.7,0,0,1,.022-3.25,4.611,4.611,0,0,1,2.266.01c.562.119.293.588.322.907.039.455-.294.259-.5.248-.381-.02-.759-.094-1.138-.091-.323.006-.722,0-.761.477-.033.426.314.506.613.594.274.087.555.145.828.232a1.8,1.8,0,0,1-.179,3.48,9.2,9.2,0,0,1-.971.1" transform="translate(-974.452 -104.704)"/><path class="a" d="M1042.8,187.587c-.394.732-.72,1.448-1.142,2.1a4.426,4.426,0,0,0-.77,3.074c.087.615-.209.668-.694.678-.506.009-.7-.148-.625-.671a4.61,4.61,0,0,0-.715-3.026c-.409-.686-.732-1.431-1.108-2.171,1.323-.181,1.322-.18,1.849.947.2.439.422.878.649,1.358a4.243,4.243,0,0,0,.77-1.4,1.244,1.244,0,0,1,1.786-.888" transform="translate(-955.679 -104.683)"/><path class="a" d="M982.668,191.037a14.316,14.316,0,0,1,.012-1.558c.072-.658-.143-.884-.778-.819-.277.029-.749.262-.773-.41-.02-.53.057-.8.674-.765,1.068.057,2.142.039,3.212,0,.483-.019.527.2.538.616.013.455-.122.594-.565.588-.98-.016-.981.013-.981,1,0,1.068-.033,2.132.013,3.193.025.609-.316.544-.678.539s-.733.094-.684-.53.012-1.235.012-1.855" transform="translate(-981.126 -104.679)"/><path class="a" d="M1032.52,191.058c0-.62-.026-1.239.009-1.857.023-.438-.133-.578-.529-.529-.187.023-.383-.013-.57.007-.416.051-.477-.194-.454-.544.021-.306-.093-.658.425-.646q1.785.039,3.573,0c.459-.009.41.278.412.58,0,.332.042.61-.452.622-1.1.028-1.1.057-1.1,1.251,0,.991-.024,1.986.014,2.973.024.554-.281.526-.627.509s-.746.135-.7-.507c.041-.616.009-1.235.009-1.857" transform="translate(-958.724 -104.678)"/><path class="a" d="M1011.767,191.047a12.409,12.409,0,0,1,.009-1.41c.084-.741-.121-1.116-.9-.962-.555.11-.7-.164-.659-.7.026-.335.1-.486.449-.481,1.19.019,2.382.025,3.57,0,.473-.01.4.3.394.588s.086.575-.382.61c-1.173.093-1.17.117-1.17,1.329,0,.967-.028,1.934.009,2.9.02.548-.281.52-.632.507s-.739.109-.7-.517.01-1.236.01-1.857" transform="translate(-968.056 -104.678)"/><path class="a" d="M1027.577,190.5c0,.816-.025,1.635.009,2.45.022.59-.354.477-.667.471s-.692.143-.682-.454c.02-1.657.03-3.318,0-4.974-.013-.648.381-.483.707-.491s.674-.112.646.475c-.041.838-.01,1.681-.01,2.523" transform="translate(-960.854 -104.678)"/><path class="a" d="M1021.856,190.422c0,.844-.025,1.687.01,2.529.023.6-.36.459-.668.464s-.668.109-.658-.474c.026-1.66.028-3.323,0-4.983-.01-.6.361-.455.665-.458s.685-.128.659.468c-.036.815-.009,1.636-.009,2.454" transform="translate(-963.412 -104.678)"/><path class="a" d="M1021.5,173.739c1.275,0,1.283,0,1.274,1.31-.009,1.2.162,1.02-1.049,1.028-1.616.01-1.593,0-1.612-1.645-.007-.551.126-.783.674-.7a4.5,4.5,0,0,0,.713.007" transform="translate(-963.605 -110.789)"/><path class="a" d="M1018.8,173.732c1.3,0,1.307,0,1.3,1.348-.007,1.125.143.977-.932.991a1.157,1.157,0,0,1-.142,0c-.51-.054-1.273.249-1.473-.136a4.7,4.7,0,0,1-.11-1.876c-.007-.268.143-.332.362-.329.332.007.664,0,1,0" transform="translate(-964.821 -110.783)"/><path class="a" d="M1000.988,176.192c-1.352,0-1.357,0-1.348-1.387.009-1.048-.135-.928.923-.938.071,0,.143,0,.213,0,.488.052,1.183-.242,1.419.133.317.506.083,1.248.1,1.884.009.275-.171.312-.381.309-.31,0-.619,0-.928,0" transform="translate(-972.807 -110.75)"/><path class="a" d="M998.337,173.852c1.292,0,1.248,0,1.309,1.368.033.765-.161,1.107-.922.957a.926.926,0,0,0-.142,0c-1.638.006-1.62.006-1.619-1.7,0-.474.107-.693.591-.63a5.878,5.878,0,0,0,.783.006" transform="translate(-974.008 -110.737)"/><path class="a" d="M1032.717,176.194c-1.334,0-1.293,0-1.356-1.4-.033-.739.144-1.077.889-.925a1.044,1.044,0,0,0,.213,0c1.568,0,1.544,0,1.567,1.628.008.545-.12.787-.669.7a4.151,4.151,0,0,0-.643-.006" transform="translate(-958.551 -110.738)"/><path class="a" d="M1005.391,173.87c1.278,0,1.278,0,1.278,1.312,0,1.012,0,1.012-1.136,1.012-1.49,0-1.451,0-1.5-1.532-.022-.673.167-.9.788-.8a3.261,3.261,0,0,0,.571,0" transform="translate(-970.833 -110.733)"/></svg>