<svg xmlns="http://www.w3.org/2000/svg" xmlns:xlink="http://www.w3.org/1999/xlink" width="70.589" height="72.468" viewBox="0 0 70.589 72.468"><defs><style>.a{fill:none;}.b{fill:#174fa0;}.c{fill:#fff;}.d{clip-path:url(#a);}.e{fill:url(#b);}.f{fill:#0057a4;}.g{clip-path:url(#c);}.h{fill:url(#d);}.i{clip-path:url(#e);}.j{fill:url(#f);}.k{clip-path:url(#g);}.l{fill:url(#h);}.m{clip-path:url(#i);}.n{fill:url(#j);}.o{clip-path:url(#k);}.p{fill:url(#l);}.q{clip-path:url(#m);}.r{fill:url(#n);}.s{clip-path:url(#o);}.t{fill:url(#p);}.u{clip-path:url(#q);}.v{fill:url(#r);}.w{fill:#fbfbfa;}.x{fill:#84c355;}.y{clip-path:url(#s);}.z{fill:url(#t);}</style><clipPath id="a"><path class="a" d="M743.12,251.932a75.75,75.75,0,0,0-12.674,1.8c-1.949.475-3.9.95-5.814,1.553a6.859,6.859,0,0,0-4.854,5.423,22.017,22.017,0,0,0-.458,2.934,80.784,80.784,0,0,0,.256,12.838c.185,2.376.448,4.754.7,7.123.308,3.026.59,6.052.971,9.068a180.5,180.5,0,0,0,3.671,20.006,12.737,12.737,0,0,0,1.7,4.309,4.079,4.079,0,0,0,2.806,1.873,8.987,8.987,0,0,0,1.306.091c3.459,0,6.928-.019,10.387-.027,3.724-.008,7.449,0,11.172,0,0,0,0,.008.017.019h16.625c1.747,0,3.486,0,5.233-.019a3.046,3.046,0,0,0,2.5-1.262,8.935,8.935,0,0,0,1.218-1.984,40.982,40.982,0,0,0,1.64-4.681,143.575,143.575,0,0,0,3.565-20.3c.592-5,1.034-10.03,1.474-15.051a84.954,84.954,0,0,0,.319-9.856,25.17,25.17,0,0,0-.574-5.065,7.087,7.087,0,0,0-4.6-5.366c-.141-.047-.284-.111-.424-.156a71.877,71.877,0,0,0-9.787-2.314,115.068,115.068,0,0,0-14.842-1.306c-.866-.035-1.731-.049-2.6-.049-2.981,0-5.961.176-8.936.4" transform="translate(-719.156 -251.536)"/></clipPath><radialGradient id="b" cx="0.503" cy="0.599" r="0.483" gradientTransform="translate(0.373 -0.663) scale(1.026 1.04)" gradientUnits="objectBoundingBox"><stop offset="0" stop-color="#51b5e7"/><stop offset="1" stop-color="#174fa0"/></radialGradient><clipPath id="c"><path class="a" d="M743.9,297.521a7.123,7.123,0,0,1,.008-4.277,3.846,3.846,0,0,1,1.059-1.876,1.542,1.542,0,0,1,1.059-.439,1.358,1.358,0,0,1,.813.276c-.1,1.064-.186,2.129-.274,3.194-.1,1.139-.2,2.324-.3,3.482-.055.66-.353.787-.891.787a1.488,1.488,0,0,1-1.474-1.147m.652,2.526a3.1,3.1,0,0,1-3.079-2.912,8.165,8.165,0,0,1,.7-4.673,4.554,4.554,0,0,1,1.324-1.8,6.477,6.477,0,0,1,.723-.467,1.169,1.169,0,0,0-.141.138,5.215,5.215,0,0,0-1.455,2.541,8.479,8.479,0,0,0,.019,5.123,2.816,2.816,0,0,0,2.488,2.056c-.058,0-.114.007-.17.007-.135,0-.268-.009-.4-.013m3.045-2.04c.106-1.166.2-2.351.3-3.487.1-1.1.184-2.2.281-3.288a1.194,1.194,0,0,0-.3-.928.925.925,0,0,0,.424-.806,3.218,3.218,0,0,1,.9-1.847,1.259,1.259,0,0,1,.088-.119v.025c-.2,2.518-.425,5.071-.635,7.542-.078.89-.151,1.787-.23,2.679l-.008.129a4.736,4.736,0,0,1-.159,1.055l-.035.056a1.914,1.914,0,0,1-.786.541,6.623,6.623,0,0,1-1.149.359,2.079,2.079,0,0,0,1.308-1.91m2.265-13.161a.967.967,0,0,0-.809.629,5.364,5.364,0,0,1-.715,1.074c-.053.067-.115.138-.169.21a5.392,5.392,0,0,0-1.1,2,4.062,4.062,0,0,0-4.351.762,6.067,6.067,0,0,0-1.747,2.324,9.53,9.53,0,0,0-.829,5.49,4.45,4.45,0,0,0,4.331,4.112c.151.011.311.011.459.011a7.893,7.893,0,0,0,3.011-.6,3.09,3.09,0,0,0,1.4-1.046.409.409,0,0,0,.079-.129l.053-.1a.475.475,0,0,0,.043-.1,5.513,5.513,0,0,0,.256-1.462l.009-.129c.081-.89.151-1.79.23-2.68.212-2.479.433-5.032.635-7.548.019-.163.035-.34.053-.523a8.967,8.967,0,0,0,.071-1.626.711.711,0,0,0-.459-.605,1.24,1.24,0,0,0-.317-.068Z" transform="translate(-740.043 -284.846)"/></clipPath><linearGradient id="d" x1="-90.532" y1="64.068" x2="-90.41" y2="64.068" gradientUnits="objectBoundingBox"><stop offset="0" stop-color="#16a1db"/><stop offset="1" stop-color="#174fa0"/></linearGradient><clipPath id="e"><path class="a" d="M727.456,298.878c-.1-.009-.2-.009-.309-.009.061-.752.123-1.5.186-2.248.141-1.681.283-3.408.431-5.116a2.183,2.183,0,0,0-.283-1.387,3.877,3.877,0,0,1,.7-.422,6.281,6.281,0,0,1,1.332-.5c-.028.028-.053.046-.08.075a2.776,2.776,0,0,0-.855,2.029c-.009.2-.036.4-.054.614-.017.127-.028.249-.035.367-.15,1.79-.292,3.589-.441,5.382l-.1,1.22c-.054,0-.109,0-.162,0-.11,0-.219,0-.332,0m5.956-3.91c.036-.412.071-.837.115-1.249a24.806,24.806,0,0,0,.158-2.81,2.19,2.19,0,0,0-.936-1.872,1.94,1.94,0,0,1,1.677,1.091,1.519,1.519,0,0,0,.106.458l.027.257v.112l-.019.209v.012l-.149,1.8c-.159,1.922-.327,3.839-.486,5.758,0,.037-.008.084-.008.12-.265,0-.53,0-.8.009.106-1.166.219-2.515.317-3.893M727.6,288.41a3.643,3.643,0,0,0-1.439,1.12l-.017.029a.852.852,0,0,0,.15,1.237c.08.066.179.149.143.569-.151,1.71-.293,3.443-.435,5.125-.07.818-.131,1.643-.2,2.46v.009a1.208,1.208,0,0,0,.2,1.011,1.116,1.116,0,0,0,.972.285c.15,0,.3.007.459.007.123.011.246.011.379.011a3.9,3.9,0,0,0,.723-.056.652.652,0,0,0,.513-.276,1.543,1.543,0,0,0,.088-.163l.044-.094a.253.253,0,0,0,.027-.045.785.785,0,0,0,.052-.282l.132-1.6c.151-1.789.291-3.589.442-5.379.009-.11.026-.23.035-.341.017-.23.044-.459.052-.7a1.427,1.427,0,0,1,.389-1.029,1.629,1.629,0,0,1,1.261-.256.774.774,0,0,1,.777.873,22.648,22.648,0,0,1-.158,2.644c-.044.42-.079.851-.115,1.283-.115,1.526-.238,3.005-.353,4.252a1.14,1.14,0,0,0,.238.874.987.987,0,0,0,.786.293c.4-.018.8-.018,1.2-.027.169,0,.337-.011.506-.011a.693.693,0,0,0,.554-.331,1.872,1.872,0,0,0,.23-.925c0-.045.008-.092.008-.139.167-1.918.325-3.837.485-5.758l.133-1.58v-.018l.035-.467v-.277l-.035-.395a.868.868,0,0,0-.052-.212.874.874,0,0,1-.035-.091.769.769,0,0,0-.046-.312,3.467,3.467,0,0,0-3.309-2.159c-.326-.025-.642-.039-.957-.039a8.482,8.482,0,0,0-3.861.875" transform="translate(-725.774 -287.535)"/></clipPath><linearGradient id="f" x1="-95.657" y1="83.216" x2="-95.525" y2="83.216" xlink:href="#d"/><clipPath id="g"><path class="a" d="M735.359,298.771a1.227,1.227,0,0,1-.617-.422,1.992,1.992,0,0,1-.283-1.5,2.616,2.616,0,0,1,.99-1.669c.106-.074.21-.149.325-.213a2.962,2.962,0,0,0-.538,1.818,2.539,2.539,0,0,0,.75,2.038,2.382,2.382,0,0,0,.274.222,5.978,5.978,0,0,1-.9-.276m1.527-.992a1.153,1.153,0,0,1-.3-.936v-.075a1.611,1.611,0,0,1,.8-1.477,5.151,5.151,0,0,1,1.376-.636c-.008.111-.018.233-.018.343-.071.815-.142,1.652-.23,2.47a.624.624,0,0,1-.556.541,2.291,2.291,0,0,1-.323.028,1.063,1.063,0,0,1-.754-.258m-1.324-6.83c-.026-.009-.079-.037-.043-.213a1.7,1.7,0,0,1,.838-1.084c.087-.052.175-.108.265-.155a3.777,3.777,0,0,0-.337.489c-.087.157-.158.32-.229.466a4.066,4.066,0,0,1-.219.442.178.178,0,0,1-.156.086.268.268,0,0,1-.118-.029m4.289,6.667c.088-.837.158-1.683.229-2.507.025-.312.053-.635.08-.947a1,1,0,0,0-.2-.762.935.935,0,0,0,.317-.689c.01-.21.027-.422.052-.644a6.181,6.181,0,0,0-.007-1.937,1.806,1.806,0,0,0-.744-1.154,1.64,1.64,0,0,1,1.291.641,3.488,3.488,0,0,1,.2,1.782l-.08,1c-.132,1.6-.273,3.249-.415,4.874-.016.175-.052.368-.087.56-.008.074-.027.147-.036.221a.78.78,0,0,1-.336.415c-.281.136-.565.256-.838.356a1.956,1.956,0,0,0,.574-1.209m-4.2-9.137a3.073,3.073,0,0,0-1.446,1.956,1.547,1.547,0,0,0,.8,1.807,1.507,1.507,0,0,0,1.968-.6c.115-.194.2-.384.29-.57.063-.127.124-.256.186-.376a1.013,1.013,0,0,1,1.155-.615.415.415,0,0,1,.389.365,5.076,5.076,0,0,1-.009,1.506c-.009.121-.027.25-.036.379-.759.21-1.534.431-2.293.7a7.835,7.835,0,0,0-1.961.992,4.036,4.036,0,0,0-1.56,2.58,3.445,3.445,0,0,0,.513,2.562,2.611,2.611,0,0,0,1.242.918,7,7,0,0,0,2.525.485,7.33,7.33,0,0,0,3.281-.815,2.156,2.156,0,0,0,1.016-1.194.639.639,0,0,0,.043-.157c.009-.091.027-.183.046-.276a5.655,5.655,0,0,0,.106-.7c.141-1.624.281-3.277.415-4.876l.079-1a4.881,4.881,0,0,0-.353-2.57A.349.349,0,0,0,742,288.9a3.141,3.141,0,0,0-2.576-1.321c-.2-.019-.391-.025-.582-.025a5.842,5.842,0,0,0-3.2.925" transform="translate(-733.079 -287.554)"/></clipPath><linearGradient id="h" x1="-103.255" y1="81.51" x2="-103.114" y2="81.51" xlink:href="#d"/><clipPath id="i"><path class="a" d="M757.022,298.21a4.145,4.145,0,0,1-.8-2.011,8.254,8.254,0,0,1-.106-1.4,7.808,7.808,0,0,1,1.272-4.285,3.238,3.238,0,0,1,.316-.4,5.38,5.38,0,0,0-1.005,2.736,7.326,7.326,0,0,0,.221,3.1,4.3,4.3,0,0,0,.777,1.461,2.9,2.9,0,0,0,2.066,1.062,2.854,2.854,0,0,0,1.755-.486,3.438,3.438,0,0,1-1.543,1.012,3.673,3.673,0,0,1-.968.142,2.538,2.538,0,0,1-1.98-.942m5.348-7.006c-.052-.119-.106-.249-.159-.393-.044-.111-.088-.241-.141-.36a2.6,2.6,0,0,0-1.5-1.5,2.178,2.178,0,0,1,.707.139,2.016,2.016,0,0,1,1.448,1.475.551.551,0,0,1-.231.672.24.24,0,0,1-.089.02c0-.011-.019-.02-.035-.058m-6.08-1.5a9.321,9.321,0,0,0-1.528,5.076v.027a9.407,9.407,0,0,0,.134,1.653,5.49,5.49,0,0,0,1.138,2.7A3.844,3.844,0,0,0,759,300.56a4.7,4.7,0,0,0,1.332-.212,4.871,4.871,0,0,0,3.363-3.949v-.026c.07-.681-.142-1.12-.636-1.313-.317-.121-.786-.128-1.209.514a.1.1,0,0,0-.036.046,6.308,6.308,0,0,1-.784.993,1.584,1.584,0,0,1-1.2.467,1.617,1.617,0,0,1-1.129-.6,2.732,2.732,0,0,1-.5-.975,5.952,5.952,0,0,1-.167-2.507,3.756,3.756,0,0,1,1.007-2.339,1.166,1.166,0,0,1,1.015-.4,1.179,1.179,0,0,1,.786.759c.044.092.079.2.115.294a5.3,5.3,0,0,0,.22.533,1.371,1.371,0,0,0,1.835.68,1.94,1.94,0,0,0,1.015-2.323,3.39,3.39,0,0,0-2.337-2.451,4.117,4.117,0,0,0-1.3-.2,4.954,4.954,0,0,0-4.1,2.154" transform="translate(-754.762 -287.555)"/></clipPath><linearGradient id="j" x1="-106.2" y1="81.569" x2="-106.059" y2="81.569" xlink:href="#d"/><clipPath id="k"><path class="a" d="M732.024,272.389a10.6,10.6,0,0,0-.768-1.279c-.448-.66-.439-.779.09-1.4.043-.047.089-.1.133-.149a4.175,4.175,0,0,0,.3-.356,2.378,2.378,0,0,0,.221,1.4,7.812,7.812,0,0,0,.484.882c.07.121.133.22.194.328a3.817,3.817,0,0,1,.459,1.1,1.148,1.148,0,0,1-.23,1.046,2.35,2.35,0,0,1-.37.368,4.321,4.321,0,0,0-.513-1.945m5.878,7.8a2.642,2.642,0,0,0,2.531-3.074c-.044-.865-.167-1.726-.291-2.553-.054-.331-.1-.677-.142-1.011-.327-2.569-.669-5.169-1.005-7.692-.126-.965-.256-1.929-.379-2.893-.046-.321-.088-.663-.125-.984-.1-.8-.193-1.625-.352-2.442-.043-.193-.043-.284.3-.522a7.052,7.052,0,0,1,6.256-1.131,29.821,29.821,0,0,0,8.3,1.214,9.289,9.289,0,0,0,2.232-.348,10.281,10.281,0,0,1-2.293.768,17.452,17.452,0,0,1-6.609-.274,14.936,14.936,0,0,0-4.882-.367,1.226,1.226,0,0,0-.952.414,1.362,1.362,0,0,0-.14,1.046c.2,1.523.4,3.039.6,4.564.458,3.515.934,7.153,1.4,10.722.026.232.062.46.1.681a11.2,11.2,0,0,1,.169,1.975,2.494,2.494,0,0,1-1.714,2.432,7.507,7.507,0,0,1-2.8.47h-1.448c-1.871,0-3.8.005-5.675-.158a7.287,7.287,0,0,1-5.533-3.315,11.789,11.789,0,0,1-2.066-5.957,7.381,7.381,0,0,1,1.431-5.289,4.237,4.237,0,0,1,3.035-1.608,4.17,4.17,0,0,1,.59-.036,5.721,5.721,0,0,1,3.123,1.028,2.179,2.179,0,0,1,.857,1.147,1.143,1.143,0,0,1-.147,1.186c-.028.035-.055.064-.083.1a1.824,1.824,0,0,0-.219-1.249,3.3,3.3,0,0,0-2.179-1.533,3.116,3.116,0,0,0-2.5.525,4.066,4.066,0,0,0-1.483,2.644,14.232,14.232,0,0,0,.856,7.8,7.852,7.852,0,0,0,.707,1.341,4.7,4.7,0,0,0,4.121,2.34c1.245.011,2.515.029,3.742.047.7.009,1.388.017,2.083.028a5.585,5.585,0,0,0,.592-.039M759.84,255.6l-.335.141c-1.871.78-4.7,1.955-6.5,1.975a28.687,28.687,0,0,1-7.933-1.167,8.381,8.381,0,0,0-7.36,1.323,1.834,1.834,0,0,0-.865,1.965c.15.76.246,1.558.336,2.331.035.323.08.661.123,1,.123.964.257,1.929.379,2.893.335,2.515.68,5.123,1.007,7.684.044.34.1.691.141,1.029.115.835.23,1.624.273,2.424.054,1.028-.344,1.5-1.323,1.605a4.282,4.282,0,0,1-.45.029l-2.083-.029c-1.228-.016-2.5-.036-3.75-.047a3.429,3.429,0,0,1-3.019-1.726,6.165,6.165,0,0,1-.592-1.1,12.845,12.845,0,0,1-.775-7.023,2.606,2.606,0,0,1,.942-1.746,1.819,1.819,0,0,1,1.447-.285,2,2,0,0,1,1.3.909.417.417,0,0,1,.026.293c-.026.158-.141.286-.335.506-.054.056-.106.121-.159.175a2.2,2.2,0,0,0-.175,3.139,9.3,9.3,0,0,1,.661,1.094c.5,1.055.5,1.6-.008,2.173a.734.734,0,0,0-.1.8.647.647,0,0,0,.688.365,4.328,4.328,0,0,0,2.55-1.5,2.634,2.634,0,0,0,.494-2.23,5.293,5.293,0,0,0-.617-1.526l-.213-.359a5.336,5.336,0,0,1-.4-.707.776.776,0,0,1,.052-.925,2.581,2.581,0,0,0,.388-2.546,3.562,3.562,0,0,0-1.4-1.862,6.624,6.624,0,0,0-4.573-1.22,5.6,5.6,0,0,0-3.936,2.128,8.835,8.835,0,0,0-1.712,6.272,13.359,13.359,0,0,0,2.312,6.664,8.6,8.6,0,0,0,6.511,3.886c1.669.145,3.363.163,5.014.163.254,0,.511,0,.776.009h1.44a8.584,8.584,0,0,0,3.281-.558,3.869,3.869,0,0,0,2.576-3.672,11.594,11.594,0,0,0-.185-2.261c-.027-.221-.062-.439-.088-.653-.459-3.569-.944-7.2-1.4-10.724-.193-1.478-.388-2.964-.583-4.443a14.279,14.279,0,0,1,4.378.36,18.68,18.68,0,0,0,7.113.274,17.8,17.8,0,0,0,7.412-3.959.817.817,0,0,0,.131-1.027.736.736,0,0,0-.628-.375.693.693,0,0,0-.262.052" transform="translate(-722.005 -255.551)"/></clipPath><radialGradient id="l" cx="0.748" cy="0.5" r="0.809" gradientTransform="translate(-7.617 -1.65) scale(0.692 1.04)" gradientUnits="objectBoundingBox"><stop offset="0" stop-color="#174fa0"/><stop offset="0.22" stop-color="#51b5e7"/><stop offset="0.45" stop-color="#3175b8"/><stop offset="0.64" stop-color="#459ed6"/><stop offset="0.814" stop-color="#4399d3"/><stop offset="1" stop-color="#387bbd"/></radialGradient><clipPath id="m"><path class="a" d="M755.736,279.821a5.964,5.964,0,0,1-2.489-.788,3.927,3.927,0,0,1-1.738-3.122c-.245-2.37-.5-4.775-.732-7.109-.106-1.036-.213-2.082-.319-3.122-.051-.541-.114-1.074-.167-1.616-.079-.724-.15-1.459-.23-2.2a12.305,12.305,0,0,0,1.351,1.882,4.988,4.988,0,0,1,1.2,2.921c.273,2.736.556,5.509.839,8.2l.077.762a3.469,3.469,0,0,0,1.951,3.03,3.659,3.659,0,0,0,1.668.312c.672,0,1.351-.008,2-.008,1.4-.008,2.858-.017,4.288-.064,2.057-.072,3.283-1.131,3.865-3.324a12.909,12.909,0,0,0,.071-5.354,12.709,12.709,0,0,0-.565-2.265,6.244,6.244,0,0,0-2.92-3.537.559.559,0,0,1-.222-.475,1.087,1.087,0,0,1,.169-.1.805.805,0,0,1,.608-.036A5.994,5.994,0,0,1,767.8,266.3a11.355,11.355,0,0,1,1.96,5.317,9.077,9.077,0,0,1-.858,5.2,5.152,5.152,0,0,1-3.467,2.772,10.062,10.062,0,0,1-2.4.24c-.335.008-.688.016-1.032.035-.38.016-.759.016-1.165.011-.186-.011-.371-.011-.557-.011-.486,0-.989.016-1.465.027-.45.012-.889.023-1.32.023a14.239,14.239,0,0,1-1.76-.1m-6.422-20.355a.982.982,0,0,0-.716,1.237c0,.028.005.047.005.067.118,1.147.241,2.324.356,3.45.052.542.114,1.075.167,1.617.106,1.039.212,2.084.318,3.121.238,2.333.475,4.747.733,7.117a5.3,5.3,0,0,0,2.373,4.158,7.3,7.3,0,0,0,3.017.985,15.987,15.987,0,0,0,1.952.11c.448,0,.89-.011,1.34-.047.469-.009.953-.019,1.429-.019.178,0,.363.009.54.009.405.009.83.019,1.253-.009.327-.019.644-.019.979-.028a10.629,10.629,0,0,0,2.719-.283,6.57,6.57,0,0,0,4.325-3.479,10.616,10.616,0,0,0,1-6A12.564,12.564,0,0,0,768.9,265.5a7.38,7.38,0,0,0-4.094-3.027,2.043,2.043,0,0,0-1.57.137,1.531,1.531,0,0,0-.83.892,1.936,1.936,0,0,0,.874,2.167,4.788,4.788,0,0,1,2.284,2.782,11.329,11.329,0,0,1,.5,2.011,11.485,11.485,0,0,1-.036,4.754c-.423,1.6-1.156,2.24-2.612,2.3-1.42.053-2.858.053-4.255.063-.661,0-1.34,0-2.012.009a2.473,2.473,0,0,1-1.1-.193,2.086,2.086,0,0,1-1.163-1.9l-.082-.76c-.281-2.691-.566-5.465-.838-8.2a6.383,6.383,0,0,0-1.543-3.728,9.357,9.357,0,0,1-1.669-2.605,1.139,1.139,0,0,0-1.068-.775,1.572,1.572,0,0,0-.376.05" transform="translate(-748.579 -259.416)"/></clipPath><radialGradient id="n" cx="-0.279" cy="0.382" r="1" gradientTransform="translate(-1.86 -2.028) scale(0.958 1.04)" xlink:href="#l"/><clipPath id="o"><path class="a" d="M740.068,266.775a1.467,1.467,0,0,1-.273-1.286,3.186,3.186,0,0,1,3.114-2.617,6,6,0,0,1,5.746,2.738,12.162,12.162,0,0,1,2.109,5.849,9.977,9.977,0,0,1-.343,4.479,4.029,4.029,0,0,1-3.2,3.012,9.8,9.8,0,0,1-1.933.075H745.2c-.1,0-.187-.009-.3-.009a6.575,6.575,0,0,1-1.72-.232,1.759,1.759,0,0,1-1.253-1.027c-.038-.092-.08-.185-.116-.274a6.7,6.7,0,0,1-.45-1.249.817.817,0,0,1-.009-.331.533.533,0,0,1,.292.035,6.418,6.418,0,0,1,1.2.6l.037.019a3.714,3.714,0,0,0,4.454-.3,4.984,4.984,0,0,0,1.493-2.515,10.519,10.519,0,0,0-.821-7.429,5.54,5.54,0,0,0-2.225-2.36,2.826,2.826,0,0,0-3.838,1.039,6.684,6.684,0,0,0-.626,1.6c-.159.561-.327.577-.459.6-.028,0-.06,0-.093,0a.862.862,0,0,1-.7-.408m3.455-5.333c-.237,0-.478.02-.719.044a4.516,4.516,0,0,0-4.3,3.71,2.919,2.919,0,0,0,.529,2.454,2.156,2.156,0,0,0,2,.917,1.9,1.9,0,0,0,1.6-1.578,5.034,5.034,0,0,1,.486-1.269,1.508,1.508,0,0,1,2.056-.542,4.066,4.066,0,0,1,1.667,1.782,9.19,9.19,0,0,1,.707,6.438,3.632,3.632,0,0,1-1.086,1.809,2.444,2.444,0,0,1-2.9.129l-.036-.019a6.852,6.852,0,0,0-1.48-.726,1.5,1.5,0,0,0-1.6.268,1.7,1.7,0,0,0-.4,1.652,7.414,7.414,0,0,0,.537,1.541c.035.094.079.174.115.266a3.136,3.136,0,0,0,2.1,1.809,8.631,8.631,0,0,0,2.04.286c.1.009.194.009.284.017h.132c.278,0,.545.008.8.008a7.609,7.609,0,0,0,1.4-.1,5.358,5.358,0,0,0,4.236-3.928,11.473,11.473,0,0,0,.415-5.117,13.627,13.627,0,0,0-2.364-6.518,7.361,7.361,0,0,0-5.974-3.332Z" transform="translate(-738.432 -261.442)"/></clipPath><radialGradient id="p" cx="0.513" cy="0.298" r="1.153" gradientTransform="translate(24.852 -2.333) scale(1.353 1.04)" xlink:href="#l"/><clipPath id="q"><path class="a" d="M757.973,269.331a4.736,4.736,0,0,1-1.933-3.985,4.307,4.307,0,0,1,.865-1.827,7.487,7.487,0,0,0,1.73,3.435c.159.21.273.376.371.532a.81.81,0,0,1-.079,1.158,4.055,4.055,0,0,1-.769.7.11.11,0,0,1-.07.031.254.254,0,0,1-.115-.041m-.688-7.9c-.027.008-.055.027-.08.035-.071.039-.159.084-.248.138l-.034.027a2.368,2.368,0,0,0-.4.3,5.908,5.908,0,0,0-1.8,3.131,6.068,6.068,0,0,0,2.647,5.526,1.546,1.546,0,0,0,.724.192,1.333,1.333,0,0,0,.838-.3,5.2,5.2,0,0,0,1.024-.937,2.2,2.2,0,0,0,.177-2.79,7.806,7.806,0,0,0-.46-.663c-.908-1.177-1.693-2.36-1.428-3.912a.712.712,0,0,0-.256-.679.647.647,0,0,0-.706-.063" transform="translate(-754.665 -261.351)"/></clipPath><radialGradient id="r" cx="-2.344" cy="0.613" r="2.324" gradientTransform="translate(84.941 -4.705) scale(1.521 1.04)" xlink:href="#l"/><clipPath id="s"><path class="a" d="M751.285,299.01A2.885,2.885,0,0,1,749.273,297a6.7,6.7,0,0,1-.3-2.141,8.72,8.72,0,0,1,.53-3.048c-.044.2-.071.376-.088.507a.9.9,0,0,0,.194.7.817.817,0,0,0,.256.21.912.912,0,0,0-.211.2,1.555,1.555,0,0,0-.185,1.131,6.036,6.036,0,0,0,.352,1.716,3.437,3.437,0,0,0,1.87,2.047,3.22,3.22,0,0,0,2.719-.166,3.878,3.878,0,0,0,.458-.273,3.4,3.4,0,0,1-2.617,1.266,3.588,3.588,0,0,1-.965-.137m1.192-8.906a1.553,1.553,0,0,1,.2-.009.865.865,0,0,1,.6.2,1.9,1.9,0,0,1,.424,1.076,22.889,22.889,0,0,1-2.842.494c.2-.708.644-1.644,1.614-1.762m2.613,1.872a3.823,3.823,0,0,0-.874-2.68,2.363,2.363,0,0,0-.38-.293c.114.028.24.054.363.092a2.979,2.979,0,0,1,1.783,3.028.072.072,0,0,0-.009.036.3.3,0,0,1-.072.02c-.308.044-.617.1-.926.147a.671.671,0,0,0,.116-.351m-6.275-1.865a9.612,9.612,0,0,0-1.191,4.747v.031a8.265,8.265,0,0,0,.379,2.6,4.24,4.24,0,0,0,2.922,2.884,5.046,5.046,0,0,0,1.323.182,4.663,4.663,0,0,0,2.383-.66,5.449,5.449,0,0,0,2.339-3.149,1.85,1.85,0,0,0,.114-.622,1.057,1.057,0,0,0-.546-.929c-.283-.157-.838-.3-1.342.451a.325.325,0,0,1-.043.063,4.032,4.032,0,0,1-1.341,1.2,1.938,1.938,0,0,1-1.633.13,2.049,2.049,0,0,1-1.111-1.25,4.839,4.839,0,0,1-.266-1.312.148.148,0,0,1-.008-.063c.018,0,.036-.011.054-.011l.035-.009c.865-.129,1.739-.266,2.586-.4.863-.138,1.748-.274,2.62-.414a1.37,1.37,0,0,0,1.21-1.221,4.395,4.395,0,0,0-2.7-4.58,4.3,4.3,0,0,0-1.359-.216,5.223,5.223,0,0,0-4.422,2.554" transform="translate(-747.624 -287.556)"/></clipPath><linearGradient id="t" x1="-100.555" y1="81.644" x2="-100.42" y2="81.644" xlink:href="#d"/></defs><path class="b" d="M752.753,322.107c-7.122,0-14.252.009-21.373-.019a10.147,10.147,0,0,1-2.577-.345,6.363,6.363,0,0,1-3.786-3.019,16.169,16.169,0,0,1-1.924-5.167c-.715-3.294-1.457-6.586-2.073-9.905-.9-4.809-1.624-9.657-2.093-14.542-.361-3.811-.8-7.618-1.128-11.431a95.651,95.651,0,0,1-.407-11.8,26.847,26.847,0,0,1,.574-4.874,9.453,9.453,0,0,1,6.363-7.42c1.941-.667,3.953-1.131,5.947-1.625a76.808,76.808,0,0,1,12.893-1.886c3.557-.265,7.113-.495,10.67-.421a129.044,129.044,0,0,1,14.675,1.081,78.118,78.118,0,0,1,11.851,2.616,10.668,10.668,0,0,1,1.289.5,9.6,9.6,0,0,1,5.718,7.453,31.753,31.753,0,0,1,.538,7.437c-.1,3.155-.248,6.319-.486,9.465-.212,2.88-.556,5.754-.856,8.624-.229,2.2-.415,4.418-.705,6.613a147.359,147.359,0,0,1-3.5,19.105,29.249,29.249,0,0,1-1.966,5.423c-.16.323-.336.631-.522.944a5.823,5.823,0,0,1-5.427,3.18c-3.785-.025-7.572-.009-11.356-.009H752.743c.009,0,.009.009.009.019m0-1.051v.02h2.8c3.37,0,6.751-.009,10.121-.009,2.931,0,5.852-.011,8.781-.011a4.9,4.9,0,0,0,2.621-.639,6.533,6.533,0,0,0,2.25-2.591,29.079,29.079,0,0,0,2.392-6.691,115.1,115.1,0,0,0,2.232-11.491c.432-2.89.847-5.786,1.183-8.694.388-3.368.661-6.751,1.023-10.126a121.118,121.118,0,0,0,.732-13.288,30.42,30.42,0,0,0-.467-5.735,9.431,9.431,0,0,0-2.718-5.387,10.161,10.161,0,0,0-4.228-2.222,81.743,81.743,0,0,0-15.628-2.9c-3.778-.3-7.555-.612-11.34-.557-3.062.045-6.125.228-9.177.419a70.74,70.74,0,0,0-12.557,1.795c-2.031.5-4.078.985-6.063,1.635a8.031,8.031,0,0,0-5.374,5.426,15.109,15.109,0,0,0-.557,2.286,45.416,45.416,0,0,0-.344,8.686c.124,4.263.557,8.5.989,12.731.485,4.729.908,9.477,1.659,14.177.75,4.719,1.562,9.429,2.708,14.068a39.611,39.611,0,0,0,1.28,4.515c1.078,2.835,2.9,4.638,6.611,4.6,7.024-.064,14.048-.02,21.073-.02" transform="translate(-717.344 -249.641)"/><path class="c" d="M752.491,320.775c-7.024,0-14.048-.045-21.073.019-3.707.037-5.534-1.764-6.61-4.6a39.338,39.338,0,0,1-1.279-4.517c-1.148-4.635-1.96-9.347-2.709-14.065-.751-4.7-1.174-9.437-1.66-14.175-.44-4.232-.865-8.468-.988-12.728a44.757,44.757,0,0,1,.344-8.688,15.775,15.775,0,0,1,.557-2.285,7.986,7.986,0,0,1,5.374-5.423c1.985-.657,4.032-1.145,6.063-1.639a71.346,71.346,0,0,1,12.557-1.792c3.052-.191,6.115-.385,9.178-.42,3.785-.056,7.562.256,11.339.559a81.145,81.145,0,0,1,15.628,2.9,10.087,10.087,0,0,1,4.228,2.221,9.488,9.488,0,0,1,2.717,5.385,30.4,30.4,0,0,1,.467,5.733,121.636,121.636,0,0,1-.732,13.285c-.354,3.377-.635,6.76-1.023,10.124-.336,2.909-.751,5.809-1.183,8.7a115.253,115.253,0,0,1-2.233,11.483,28.958,28.958,0,0,1-2.391,6.695,6.608,6.608,0,0,1-2.25,2.589,4.883,4.883,0,0,1-2.621.639c-2.929.008-5.85.008-8.781.008-3.37.011-6.75.011-10.121.011h-2.8Zm.15-1.481v.009h16.626c1.747,0,3.486,0,5.233-.017a3.045,3.045,0,0,0,2.5-1.261,8.576,8.576,0,0,0,1.218-1.983,42.119,42.119,0,0,0,1.641-4.684,142.243,142.243,0,0,0,3.566-20.3c.59-5,1.032-10.029,1.473-15.049a81.587,81.587,0,0,0,.318-9.857,25.115,25.115,0,0,0-.574-5.067,7.1,7.1,0,0,0-4.6-5.371c-.142-.053-.283-.108-.425-.153a73.87,73.87,0,0,0-9.786-2.315,112.328,112.328,0,0,0-14.844-1.307,104.7,104.7,0,0,0-11.533.348,76.682,76.682,0,0,0-12.672,1.8c-1.95.476-3.9.952-5.815,1.556a6.868,6.868,0,0,0-4.854,5.42,21.846,21.846,0,0,0-.458,2.935,80.943,80.943,0,0,0,.256,12.84c.185,2.377.45,4.747.7,7.124.308,3.028.59,6.053.971,9.073a184.847,184.847,0,0,0,3.671,20.009,13.216,13.216,0,0,0,1.7,4.3,4.044,4.044,0,0,0,2.806,1.875,8.7,8.7,0,0,0,1.307.093c3.459,0,6.928-.028,10.387-.028q5.613,0,11.189.008" transform="translate(-717.083 -249.364)"/><g transform="translate(2.426 2.537)"><g class="d" transform="translate(0 0)"><rect class="e" width="66.01" height="67.414" transform="translate(-0.191 0)"/></g></g><path class="f" d="M744.98,301.707c-.159,0-.309-.009-.469-.016A4.636,4.636,0,0,1,740,297.41a9.658,9.658,0,0,1,.848-5.6,6.15,6.15,0,0,1,1.8-2.39,4.276,4.276,0,0,1,4.343-.862,6.038,6.038,0,0,1,1.076-1.865c.052-.071.115-.146.167-.21a5.478,5.478,0,0,0,.688-1.027,1.137,1.137,0,0,1,1.491-.669.881.881,0,0,1,.582.78,9.213,9.213,0,0,1-.069,1.651c-.019.185-.036.349-.054.525-.2,2.513-.423,5.068-.635,7.545-.08.89-.151,1.79-.23,2.681L750,298.1a5.657,5.657,0,0,1-.265,1.506c-.017.046-.035.082-.052.13l-.052.091a.855.855,0,0,1-.1.165,3.245,3.245,0,0,1-1.482,1.111,8.325,8.325,0,0,1-3.071.605m-1.995-10.155a6.364,6.364,0,0,0-.6,1.047,7.917,7.917,0,0,0-.688,4.557,2.89,2.89,0,0,0,1.905,2.56,3.4,3.4,0,0,1-1.1-1.605,8.792,8.792,0,0,1-.026-5.242,6.8,6.8,0,0,1,.511-1.316m5.216-1.165a1.445,1.445,0,0,1,.219.91c-.1,1.091-.185,2.186-.282,3.285-.1,1.141-.194,2.323-.3,3.489a2.664,2.664,0,0,1-.485,1.388c.027-.008.044-.019.071-.029a1.685,1.685,0,0,0,.7-.475l.017-.029a5.346,5.346,0,0,0,.151-.989l.008-.141c.081-.89.15-1.79.23-2.68.194-2.268.4-4.6.582-6.914a2.456,2.456,0,0,0-.565,1.34,1.186,1.186,0,0,1-.344.846m-2.127.79a1.373,1.373,0,0,0-.934.386,3.686,3.686,0,0,0-1.007,1.78,6.942,6.942,0,0,0-.017,4.161,1.308,1.308,0,0,0,1.3,1.017.911.911,0,0,0,.546-.126.858.858,0,0,0,.168-.481c.1-1.155.2-2.34.3-3.477.088-1.031.177-2.059.265-3.076a1.1,1.1,0,0,0-.619-.185" transform="translate(-709.705 -238.046)"/><g transform="translate(30.387 46.847)"><g class="g" transform="translate(0 0)"><rect class="h" width="10.941" height="16.615" transform="translate(-0.167 0)"/></g></g><path class="c" d="M749.923,285.406a13.007,13.007,0,0,1-.123,2.031q-.424,5.109-.865,10.218a5.941,5.941,0,0,1-.229,1.412c-.019.039-.044.084-.063.119l-.008.031a2.5,2.5,0,0,1-1.112.815,7.233,7.233,0,0,1-3.177.541,3.753,3.753,0,0,1-3.705-3.507,8.744,8.744,0,0,1,.767-5.078,5.264,5.264,0,0,1,1.535-2.056c1.307-.98,2.656-1.367,4.148-.44.2.13.388.083.4-.194a3.867,3.867,0,0,1,1.05-2.266,7.3,7.3,0,0,0,.962-1.422c.089-.238.212-.276.423-.2m-4.73,13.79a1.4,1.4,0,0,0,1.572-1.422c.194-2.26.379-4.518.573-6.766a.507.507,0,0,0-.194-.471,2.079,2.079,0,0,0-2.806.15,4.532,4.532,0,0,0-1.253,2.212,7.837,7.837,0,0,0,.008,4.7,2.163,2.163,0,0,0,2.1,1.6" transform="translate(-709.485 -237.821)"/><path class="f" d="M727.849,300.514c-.133,0-.256,0-.379-.009-.159,0-.309-.011-.45-.011a1.274,1.274,0,0,1-1.113-.349,1.367,1.367,0,0,1-.256-1.155v-.009c.071-.815.133-1.641.2-2.462.141-1.68.281-3.415.431-5.122.027-.32-.025-.365-.07-.395a1.045,1.045,0,0,1-.186-1.506l.019-.019a3.867,3.867,0,0,1,1.509-1.182,8.987,8.987,0,0,1,4.914-.857,3.668,3.668,0,0,1,3.46,2.277.98.98,0,0,1,.062.36c.008.016.008.025.017.044a1.02,1.02,0,0,1,.071.276l.035.395v.312l-.035.469v.02l-.132,1.577q-.239,2.881-.486,5.756c0,.047-.009.086-.009.131a2.007,2.007,0,0,1-.256,1.019.868.868,0,0,1-.715.42c-.167,0-.335,0-.5.011-.4.009-.8.009-1.2.025a1.168,1.168,0,0,1-.926-.355,1.309,1.309,0,0,1-.292-1.021c.115-1.249.238-2.726.353-4.242.036-.43.071-.87.115-1.285a24.661,24.661,0,0,0,.159-2.616.593.593,0,0,0-.609-.68,1.486,1.486,0,0,0-1.112.21,1.229,1.229,0,0,0-.319.892c-.008.248-.035.479-.052.708-.008.11-.026.221-.035.34-.15,1.791-.292,3.588-.442,5.378l-.131,1.592a.939.939,0,0,1-.071.347c-.009.019-.017.048-.027.064l-.036.084a.613.613,0,0,1-.114.2.873.873,0,0,1-.644.36c-.256,0-.5.009-.751.009m-.45-1.79h.115c.106,0,.212.009.317.009l.088-1.05c.15-1.79.291-3.588.442-5.378.008-.119.017-.25.035-.369.017-.21.044-.411.044-.6a3.308,3.308,0,0,1,.5-1.7,5.927,5.927,0,0,0-.626.276,4.71,4.71,0,0,0-.53.3,2.473,2.473,0,0,1,.221,1.361c-.15,1.706-.292,3.431-.432,5.113-.062.669-.115,1.351-.177,2.031m6.054-9.276a2.587,2.587,0,0,1,.467,1.5,22.261,22.261,0,0,1-.167,2.826c-.044.414-.079.837-.114,1.24-.1,1.3-.2,2.562-.3,3.683.14,0,.281,0,.431-.009q.239-2.852.478-5.7l.141-1.8v-.011l.017-.2v-.094l-.017-.22a1.845,1.845,0,0,1-.106-.45,1.551,1.551,0,0,0-.83-.763" transform="translate(-714.538 -237.136)"/><g transform="translate(11.286 50.446)"><g class="i" transform="translate(0 0)"><rect class="j" width="10.157" height="12.749" transform="translate(-0.039 0)"/></g></g><path class="c" d="M735.038,291.033c0,.046-.01.1-.01.146a.38.38,0,0,1-.008.1c-.2,2.44-.406,4.892-.618,7.333a1.581,1.581,0,0,1-.141.755c-.574.009-1.147.009-1.72.026-.292.009-.353-.119-.336-.4.123-1.423.247-2.837.353-4.26.1-1.329.3-2.653.273-3.995a1.455,1.455,0,0,0-1.368-1.55,1.892,1.892,0,0,0-2.391,1.945c-.017.34-.054.671-.088,1.011-.194,2.351-.379,4.7-.573,7.052v-.009l-.08.165.009-.009a8.584,8.584,0,0,1-1.562.046c-.547.009-.538,0-.494-.541.212-2.525.415-5.058.636-7.584a1.254,1.254,0,0,0-.4-1.185c-.15-.119-.088-.175,0-.292a3.076,3.076,0,0,1,1.191-.912,8.265,8.265,0,0,1,4.474-.768,2.8,2.8,0,0,1,2.735,1.715.772.772,0,0,0,.088.422c.009.13.027.269.036.395v.166c0,.094-.009.165-.009.238" transform="translate(-714.322 -236.912)"/><path class="f" d="M737.463,300.816a7.036,7.036,0,0,1-2.594-.5,2.708,2.708,0,0,1-1.323-.992,3.6,3.6,0,0,1-.54-2.706,4.245,4.245,0,0,1,1.641-2.711,8.349,8.349,0,0,1,2-1.02c.724-.256,1.466-.466,2.179-.66.009-.082.019-.166.028-.246a4.709,4.709,0,0,0,.008-1.451c-.027-.11-.052-.185-.238-.213a.824.824,0,0,0-.961.514c-.063.11-.125.24-.186.369a6.067,6.067,0,0,1-.3.585,1.7,1.7,0,0,1-2.206.671,1.736,1.736,0,0,1-.909-2.028,3.284,3.284,0,0,1,1.526-2.074,6.117,6.117,0,0,1,3.884-.93,3.312,3.312,0,0,1,2.718,1.406.773.773,0,0,1,.061.11,5.13,5.13,0,0,1,.371,2.672l-.079,1c-.133,1.6-.273,3.252-.415,4.877-.027.257-.062.486-.106.716-.017.091-.036.185-.044.276a.9.9,0,0,1-.054.2,2.364,2.364,0,0,1-1.1,1.292,7.427,7.427,0,0,1-3.362.845m-2.2-5.1a2.52,2.52,0,0,0-.565,1.221,1.827,1.827,0,0,0,.246,1.351,1.072,1.072,0,0,0,.53.347c.044.019.1.039.141.055a2.8,2.8,0,0,1-.511-1.853,2.927,2.927,0,0,1,.159-1.12m4.976-2.23a1.3,1.3,0,0,1,.15.76c-.025.312-.052.634-.079.945-.071.826-.141,1.671-.229,2.515a2.367,2.367,0,0,1-.221.762c.07-.036.15-.071.221-.11s.141-.091.238-.3c.008-.066.027-.13.035-.194a4.728,4.728,0,0,0,.08-.541c.141-1.627.281-3.277.414-4.877l.08-1a3.42,3.42,0,0,0-.177-1.672,1.147,1.147,0,0,0-.521-.4,2.2,2.2,0,0,1,.317.779,6.966,6.966,0,0,1,.017,2c-.027.221-.044.432-.052.632a1.227,1.227,0,0,1-.274.7m-1.641,1.506a4.336,4.336,0,0,0-1.067.511,1.434,1.434,0,0,0-.724,1.313v.092a.939.939,0,0,0,.238.779,1.043,1.043,0,0,0,.918.175c.362-.064.388-.3.4-.376.088-.815.159-1.651.23-2.461.008,0,.008-.019.008-.035m-2.629-4.648a1.41,1.41,0,0,0-.212.431c.062-.11.114-.23.177-.356.008-.02.026-.047.035-.075" transform="translate(-712.061 -237.136)"/><g transform="translate(21.065 50.472)"><g class="k" transform="translate(0 0)"><rect class="l" width="9.503" height="13.015" transform="translate(-0.102 0)"/></g></g><path class="c" d="M741.267,289.113a4.234,4.234,0,0,1,.292,2.193c-.169,1.956-.327,3.921-.5,5.877-.026.3-.1.614-.141.917a1.455,1.455,0,0,1-.688.837,6.227,6.227,0,0,1-5.277.312,1.911,1.911,0,0,1-.927-.671,3.2,3.2,0,0,1,.882-4.159,7.381,7.381,0,0,1,1.8-.908c.778-.274,1.572-.5,2.366-.716.15-.047.344-.055.363-.274a9.1,9.1,0,0,0,.052-2.4,1.077,1.077,0,0,0-.944-.909,1.675,1.675,0,0,0-1.845.955c-.167.3-.292.632-.467.926a.855.855,0,0,1-1.122.32.843.843,0,0,1-.423-1.009,2.356,2.356,0,0,1,1.139-1.513,5.253,5.253,0,0,1,3.361-.8,2.451,2.451,0,0,1,2.074,1.02m-5.533,7.509a1.712,1.712,0,0,0,2.162,1.9,1.285,1.285,0,0,0,1.1-1.155c.132-1.15.211-2.3.308-3.446.027-.256-.1-.376-.335-.3a7.568,7.568,0,0,0-2.135.9,2.388,2.388,0,0,0-1.1,2.1" transform="translate(-711.843 -236.908)"/><path class="f" d="M759.036,300.8a4.047,4.047,0,0,1-3.1-1.456,5.638,5.638,0,0,1-1.182-2.8,9.651,9.651,0,0,1-.133-1.68v-.036a9.576,9.576,0,0,1,1.554-5.181,5.082,5.082,0,0,1,2.637-1.981,4.741,4.741,0,0,1,2.967-.046,3.545,3.545,0,0,1,2.461,2.578,2.141,2.141,0,0,1-1.119,2.554,1.555,1.555,0,0,1-2.075-.771,5.746,5.746,0,0,1-.229-.553c-.036-.1-.071-.192-.106-.282a1.012,1.012,0,0,0-.644-.655.994.994,0,0,0-.857.36,3.529,3.529,0,0,0-.953,2.221,5.873,5.873,0,0,0,.159,2.424,2.662,2.662,0,0,0,.467.908,1.371,1.371,0,0,0,2.073.119,6.2,6.2,0,0,0,.759-.964.484.484,0,0,0,.027-.045,1.12,1.12,0,0,1,1.42-.585,1.27,1.27,0,0,1,.759,1.514v.025a5.1,5.1,0,0,1-3.5,4.123,4.923,4.923,0,0,1-1.385.21m-2.691-5.939a7.585,7.585,0,0,0,.106,1.359,3.853,3.853,0,0,0,.759,1.918,2.441,2.441,0,0,0,2.753.734,2.275,2.275,0,0,0,.432-.174,3.335,3.335,0,0,1-.6.029,3.1,3.1,0,0,1-2.2-1.13,4.313,4.313,0,0,1-.813-1.535,7.085,7.085,0,0,1-.264-2.8,9.051,9.051,0,0,0-.177,1.6M761.7,289.5a3.247,3.247,0,0,1,.582.92c.052.126.1.246.141.365.036.091.071.185.106.266a.427.427,0,0,0,.053-.395,1.754,1.754,0,0,0-.882-1.157" transform="translate(-704.718 -237.135)"/><g transform="translate(50.091 50.472)"><g class="m" transform="translate(0 0)"><rect class="n" width="9.514" height="13.006" transform="translate(0 0)"/></g></g><path class="c" d="M755.263,294.629a8.578,8.578,0,0,1,1.4-4.692,4.22,4.22,0,0,1,4.641-1.7A2.659,2.659,0,0,1,763.2,290.2a1.224,1.224,0,0,1-.619,1.5.7.7,0,0,1-.979-.357c-.123-.249-.2-.525-.317-.79a1.653,1.653,0,0,0-2.877-.58,4.433,4.433,0,0,0-1.21,2.775,6.712,6.712,0,0,0,.194,2.807,3.472,3.472,0,0,0,.636,1.221,2.2,2.2,0,0,0,3.292.185,6.948,6.948,0,0,0,.882-1.1c.115-.165.23-.4.459-.311.265.1.221.376.194.607a4.231,4.231,0,0,1-2.877,3.351,3.28,3.28,0,0,1-3.618-1,4.746,4.746,0,0,1-.971-2.36,8.724,8.724,0,0,1-.123-1.517" transform="translate(-704.502 -236.908)"/><path class="f" d="M735.928,282.83c-1.659,0-3.354-.019-5.031-.166a8.762,8.762,0,0,1-6.644-3.967,13.537,13.537,0,0,1-2.348-6.767,9.037,9.037,0,0,1,1.756-6.408,5.7,5.7,0,0,1,4.059-2.191,6.756,6.756,0,0,1,4.695,1.256,3.728,3.728,0,0,1,1.474,1.956,2.813,2.813,0,0,1-.423,2.736c-.133.165-.213.311-.027.716a7.045,7.045,0,0,0,.379.689c.071.119.15.24.221.366a5.405,5.405,0,0,1,.644,1.58,2.826,2.826,0,0,1-.538,2.4,4.594,4.594,0,0,1-2.664,1.572.841.841,0,0,1-.883-.47.934.934,0,0,1,.132-1.027c.388-.44.494-.865-.017-1.956a8.168,8.168,0,0,0-.644-1.064,2.392,2.392,0,0,1,.194-3.381c.052-.062.106-.117.159-.181.167-.2.273-.305.291-.415a.282.282,0,0,0,0-.155,1.777,1.777,0,0,0-1.183-.817,1.667,1.667,0,0,0-1.305.246,2.411,2.411,0,0,0-.874,1.616,12.635,12.635,0,0,0,.759,6.913,6.389,6.389,0,0,0,.573,1.075,3.208,3.208,0,0,0,2.859,1.636c1.253.007,2.525.025,3.751.045l2.083.025a3.912,3.912,0,0,0,.423-.025c.892-.094,1.209-.47,1.157-1.406-.044-.79-.159-1.58-.274-2.406-.052-.34-.1-.689-.141-1.027-.327-2.564-.671-5.171-1.007-7.687-.123-.963-.256-1.926-.379-2.892-.044-.34-.088-.68-.123-1.011-.1-.806-.186-1.561-.336-2.312a2.035,2.035,0,0,1,.944-2.166,8.522,8.522,0,0,1,7.51-1.351,28.2,28.2,0,0,0,7.881,1.155c1.755-.019,4.57-1.185,6.432-1.956l.344-.135a.91.91,0,0,1,1.12.395,1.046,1.046,0,0,1-.158,1.276,18.11,18.11,0,0,1-7.5,4,18.608,18.608,0,0,1-7.174-.276,14.358,14.358,0,0,0-4.13-.376q.277,2.119.556,4.249c.458,3.517.944,7.153,1.4,10.724.027.212.062.424.089.645a12.092,12.092,0,0,1,.185,2.293,4.055,4.055,0,0,1-2.7,3.846,8.775,8.775,0,0,1-3.354.57H736.7c-.265.009-.521.009-.776.009m-7.449-17.758a3.656,3.656,0,0,0-.565.039A4.043,4.043,0,0,0,725,266.643a7.152,7.152,0,0,0-1.386,5.151,11.677,11.677,0,0,0,2.029,5.869,7.138,7.138,0,0,0,5.4,3.232c1.872.165,3.8.154,5.658.154H738.2a7.079,7.079,0,0,0,2.691-.459,2.283,2.283,0,0,0,1.589-2.257,10.606,10.606,0,0,0-.167-1.938c-.036-.221-.071-.449-.1-.677-.467-3.572-.944-7.208-1.4-10.724-.2-1.526-.4-3.042-.6-4.564a1.475,1.475,0,0,1,.185-1.185,1.422,1.422,0,0,1,1.076-.486,15.366,15.366,0,0,1,4.943.365,17.257,17.257,0,0,0,6.548.266c.053-.009.106-.016.158-.025h-.06a29.892,29.892,0,0,1-8.34-1.221,6.862,6.862,0,0,0-6.106,1.1c-.256.175-.248.2-.221.32.158.826.256,1.656.352,2.461.036.321.08.661.125.983.123.964.256,1.93.379,2.894.336,2.522.68,5.133,1.006,7.693.043.331.087.671.141,1,.125.835.248,1.7.292,2.572a2.851,2.851,0,0,1-2.7,3.277c-.2.019-.4.035-.619.035l-2.083-.025c-1.226-.02-2.5-.039-3.742-.046a4.895,4.895,0,0,1-4.28-2.436,7.8,7.8,0,0,1-.723-1.375,14.473,14.473,0,0,1-.874-7.914,4.236,4.236,0,0,1,1.562-2.766,3.354,3.354,0,0,1,2.639-.56,3.471,3.471,0,0,1,2.3,1.616,1.816,1.816,0,0,1,.175.395,1.434,1.434,0,0,0-.062-.256,1.951,1.951,0,0,0-.776-1.047,5.623,5.623,0,0,0-3.027-.993m3.142,4.711c-.027.036-.062.066-.089.1-.336.395-.361.534-.371.57s.009.175.292.586a9.9,9.9,0,0,1,.784,1.305,5.15,5.15,0,0,1,.513,1.614c.017-.025.043-.043.062-.074a.952.952,0,0,0,.185-.881,3.731,3.731,0,0,0-.442-1.047c-.062-.11-.123-.209-.194-.319a8.542,8.542,0,0,1-.493-.9,2.843,2.843,0,0,1-.248-.956" transform="translate(-715.812 -247.688)"/><path class="f" d="M757.567,281.573a16.244,16.244,0,0,1-1.967-.11,7.453,7.453,0,0,1-3.1-1.011,5.484,5.484,0,0,1-2.461-4.307c-.257-2.371-.5-4.783-.734-7.118-.106-1.036-.211-2.082-.317-3.121-.053-.542-.115-1.072-.167-1.608-.115-1.129-.238-2.3-.354-3.451,0-.019-.009-.035-.009-.056a1.165,1.165,0,0,1,.857-1.45,1.327,1.327,0,0,1,1.659.845,9.209,9.209,0,0,0,1.632,2.553,6.648,6.648,0,0,1,1.6,3.837c.273,2.736.556,5.511.838,8.2l.079.764a1.925,1.925,0,0,0,1.059,1.742,2.42,2.42,0,0,0,1.024.175c.671-.011,1.351-.011,2.012-.011,1.394-.007,2.833-.007,4.245-.062,1.376-.048,2.038-.635,2.435-2.15a11.464,11.464,0,0,0,.036-4.673,11.066,11.066,0,0,0-.5-1.975,4.645,4.645,0,0,0-2.2-2.68,2.145,2.145,0,0,1-.97-2.406,1.663,1.663,0,0,1,.918-1,2.213,2.213,0,0,1,1.7-.157,7.613,7.613,0,0,1,4.2,3.106,12.846,12.846,0,0,1,2.242,6.079,10.817,10.817,0,0,1-1.024,6.1,6.758,6.758,0,0,1-4.439,3.581,11.217,11.217,0,0,1-2.762.3c-.336.009-.653.009-.971.025-.432.029-.857.019-1.27.009-.177,0-.353-.009-.538-.009-.477,0-.963.009-1.431.019-.431,0-.882.02-1.332.02m-7.192-18.88c.044.471.1.937.141,1.4.053.541.115,1.075.169,1.616.106,1.038.211,2.086.317,3.133.238,2.331.485,4.736.732,7.1a3.718,3.718,0,0,0,1.651,2.975,5.68,5.68,0,0,0,2.41.762,19.362,19.362,0,0,0,3.052.074c.486-.009.98-.025,1.474-.025.185,0,.371,0,.556.007.4.009.776.009,1.147-.007.354-.02.7-.029,1.032-.039a9.26,9.26,0,0,0,2.356-.237,5.021,5.021,0,0,0,3.354-2.673,8.9,8.9,0,0,0,.839-5.084,11.146,11.146,0,0,0-1.925-5.226,5.741,5.741,0,0,0-3.229-2.412.589.589,0,0,0-.477.016c-.017.009-.036.019-.053.029a.3.3,0,0,0,.115.19,6.486,6.486,0,0,1,3.009,3.647,15.054,15.054,0,0,1,.511,7.739c-.59,2.26-1.914,3.388-4.041,3.462-1.438.046-2.885.055-4.3.064-.653,0-1.332.011-2,.011a4.112,4.112,0,0,1-1.748-.331,3.65,3.65,0,0,1-2.056-3.188l-.079-.76c-.282-2.691-.565-5.471-.838-8.209a4.7,4.7,0,0,0-1.155-2.811,11.561,11.561,0,0,1-.963-1.221" transform="translate(-706.813 -246.447)"/><path class="f" d="M746.124,280.687c-.256,0-.521-.008-.811-.008h-.142c-.088-.012-.177-.012-.282-.021a8.494,8.494,0,0,1-2.083-.293,3.3,3.3,0,0,1-2.214-1.908c-.035-.084-.071-.175-.115-.26a7.443,7.443,0,0,1-.546-1.578,1.9,1.9,0,0,1,.45-1.838,1.7,1.7,0,0,1,1.774-.311,7.433,7.433,0,0,1,1.517.746l.036.016a2.257,2.257,0,0,0,2.673-.1,3.4,3.4,0,0,0,1.024-1.706,8.959,8.959,0,0,0-.688-6.3,3.959,3.959,0,0,0-1.6-1.709,1.344,1.344,0,0,0-1.81.469,5.493,5.493,0,0,0-.467,1.221,2.08,2.08,0,0,1-1.756,1.716,2.318,2.318,0,0,1-2.171-.991,3.157,3.157,0,0,1-.573-2.617,4.707,4.707,0,0,1,4.464-3.865,7.5,7.5,0,0,1,7.122,3.36,13.839,13.839,0,0,1,2.4,6.611,11.666,11.666,0,0,1-.423,5.206,5.541,5.541,0,0,1-4.378,4.058,8.385,8.385,0,0,1-1.4.1m-.865-1.81h.088a8.912,8.912,0,0,0,1.9-.075,3.786,3.786,0,0,0,3.053-2.882,9.864,9.864,0,0,0,.335-4.4,12.062,12.062,0,0,0-2.074-5.758,5.791,5.791,0,0,0-5.577-2.652,3.012,3.012,0,0,0-2.956,2.467,1.288,1.288,0,0,0,.238,1.12.641.641,0,0,0,.627.331c.079-.008.177-.016.309-.457a7,7,0,0,1,.653-1.645,3.014,3.014,0,0,1,4.086-1.111,5.626,5.626,0,0,1,2.293,2.442,10.759,10.759,0,0,1,.839,7.568,5.284,5.284,0,0,1-1.545,2.617,3.894,3.894,0,0,1-4.668.321l-.035-.021a5.378,5.378,0,0,0-1.165-.576.327.327,0,0,1-.062-.02.257.257,0,0,0,.017.082,6.747,6.747,0,0,0,.432,1.214c.035.09.079.182.114.276a1.611,1.611,0,0,0,1.13.925,7.011,7.011,0,0,0,1.676.23c.115-.009.2,0,.292,0" transform="translate(-710.258 -245.773)"/><path class="f" d="M758.144,271.02a1.782,1.782,0,0,1-.813-.214,6.239,6.239,0,0,1-2.744-5.747,6.043,6.043,0,0,1,1.862-3.241,3.526,3.526,0,0,1,.423-.321l.036-.026a2.044,2.044,0,0,1,.264-.149c.027-.007.053-.028.079-.038a.845.845,0,0,1,.9.086.9.9,0,0,1,.327.87c-.23,1.34.308,2.352,1.393,3.756a6.967,6.967,0,0,1,.477.677,2.389,2.389,0,0,1-.194,3.022,5.453,5.453,0,0,1-1.059.974,1.47,1.47,0,0,1-.952.349m-1.289-7a4.036,4.036,0,0,0-.592,1.416,4.577,4.577,0,0,0,1.835,3.771c.01,0,.01.011.019.011a4.124,4.124,0,0,0,.715-.644c.308-.385.317-.513.06-.928a5.344,5.344,0,0,0-.361-.514,8.445,8.445,0,0,1-1.676-3.112" transform="translate(-704.752 -245.798)"/><g transform="translate(6.239 7.911)"><g class="o" transform="translate(0 0)"><rect class="p" width="39.092" height="27.047" transform="translate(-0.163 0)"/></g></g><g transform="translate(41.813 13.012)"><g class="q" transform="translate(0 0)"><rect class="r" width="22.882" height="21.911" transform="translate(-0.113 0)"/></g></g><g transform="translate(28.23 15.715)"><g class="s" transform="translate(0 0)"><rect class="t" width="14.039" height="18.995" transform="translate(-0.119 0)"/></g></g><g transform="translate(49.961 15.606)"><g class="u" transform="translate(0 0)"><rect class="v" width="6.194" height="9.42" transform="translate(-0.115)"/></g></g><path class="w" d="M740.824,260.074c-.08-.578-.062-.6.511-.671a14.372,14.372,0,0,1,4.677.36,17.873,17.873,0,0,0,6.857.276,17.2,17.2,0,0,0,7.076-3.793c.063-.064,0-.2-.06-.174-1.9.78-5.04,2.137-7.078,2.155a29.4,29.4,0,0,1-8.11-1.185,7.66,7.66,0,0,0-6.8,1.23,1.137,1.137,0,0,0-.584,1.252c.221,1.108.319,2.249.469,3.376.467,3.526.934,7.063,1.394,10.588.15,1.167.363,2.333.423,3.507a1.977,1.977,0,0,1-1.932,2.341,3.566,3.566,0,0,1-.521.027c-1.941-.027-3.882-.066-5.825-.075a4.048,4.048,0,0,1-3.573-2.038,7.593,7.593,0,0,1-.653-1.221,13.466,13.466,0,0,1-.813-7.408,3.34,3.34,0,0,1,1.218-2.2,2.616,2.616,0,0,1,3.715.817,1.133,1.133,0,0,1,.115.809,2.173,2.173,0,0,1-.653,1.012,1.5,1.5,0,0,0-.131,2.265,10.18,10.18,0,0,1,.714,1.185c.477,1,.742,1.992-.114,2.957a3.721,3.721,0,0,0,2.126-1.249,1.888,1.888,0,0,0,.363-1.643,4.625,4.625,0,0,0-.538-1.315,11.154,11.154,0,0,1-.645-1.135,1.491,1.491,0,0,1,.15-1.663,1.87,1.87,0,0,0,.274-1.866,2.841,2.841,0,0,0-1.13-1.5,5.937,5.937,0,0,0-4.13-1.12,4.882,4.882,0,0,0-3.486,1.866,8.093,8.093,0,0,0-1.572,5.772,12.672,12.672,0,0,0,2.19,6.319,7.992,7.992,0,0,0,6.017,3.6c2.383.2,4.783.149,7.166.158a8.243,8.243,0,0,0,3.044-.514,3.166,3.166,0,0,0,2.145-3.049,15.589,15.589,0,0,0-.273-2.783q-1.006-7.615-2.021-15.268" transform="translate(-715.592 -247.464)"/><path class="w" d="M770.265,271.374a11.945,11.945,0,0,0-2.083-5.647,6.612,6.612,0,0,0-3.724-2.762,1.456,1.456,0,0,0-1.094.09.871.871,0,0,0-.494.486,1.235,1.235,0,0,0,.547,1.333,5.515,5.515,0,0,1,2.6,3.157,11.729,11.729,0,0,1,.538,2.142,12.142,12.142,0,0,1-.052,5.047c-.494,1.873-1.457,2.746-3.238,2.813-2.092.071-4.183.055-6.275.071a3.158,3.158,0,0,1-1.386-.246,2.807,2.807,0,0,1-1.562-2.462q-.462-4.478-.918-8.96a5.669,5.669,0,0,0-1.376-3.325,10.217,10.217,0,0,1-1.791-2.8.483.483,0,0,0-.671-.321c-.309.076-.212.34-.194.542q.253,2.534.521,5.06c.353,3.414.688,6.83,1.059,10.236a4.639,4.639,0,0,0,2.056,3.645,6.765,6.765,0,0,0,2.754.89,37.289,37.289,0,0,0,4.624.056c.582,0,1.174.026,1.755-.011a16.4,16.4,0,0,0,3.566-.293,5.892,5.892,0,0,0,3.9-3.122,9.946,9.946,0,0,0,.936-5.619" transform="translate(-706.6 -246.222)"/><path class="w" d="M749.042,265.018a6.623,6.623,0,0,0-6.353-3.011,3.852,3.852,0,0,0-3.707,3.167,2.191,2.191,0,0,0,.407,1.865,1.5,1.5,0,0,0,1.394.66c.609-.074.865-.533,1.032-1.092a6.239,6.239,0,0,1,.556-1.432,2.178,2.178,0,0,1,2.949-.79,4.848,4.848,0,0,1,1.949,2.075,9.834,9.834,0,0,1,.768,6.934,4.25,4.25,0,0,1-1.289,2.155,3.078,3.078,0,0,1-3.671.211,5.948,5.948,0,0,0-1.376-.677c-.839-.269-1.316.21-1.139,1.1a8.545,8.545,0,0,0,.609,1.661,2.5,2.5,0,0,0,1.677,1.424,9.359,9.359,0,0,0,2.17.276,10.842,10.842,0,0,0,2.171-.084,4.684,4.684,0,0,0,3.715-3.471,10.911,10.911,0,0,0,.379-4.8,13.156,13.156,0,0,0-2.241-6.17" transform="translate(-710.034 -245.551)"/><path class="w" d="M757.5,269.778a.777.777,0,0,0,.882-.044,4.543,4.543,0,0,0,.9-.819,1.483,1.483,0,0,0,.123-1.972,6.842,6.842,0,0,0-.415-.6c-1.005-1.307-1.879-2.647-1.572-4.473a2.783,2.783,0,0,0-.273.146,2.079,2.079,0,0,0-.334.241,5.214,5.214,0,0,0-1.6,2.762,5.36,5.36,0,0,0,2.285,4.755" transform="translate(-704.534 -245.568)"/><path class="c" d="M740.824,260.074c-.08-.578-.062-.6.511-.671a14.372,14.372,0,0,1,4.677.36,17.873,17.873,0,0,0,6.857.276,17.2,17.2,0,0,0,7.076-3.793c.063-.064,0-.2-.06-.174-1.9.78-5.04,2.137-7.078,2.155a29.4,29.4,0,0,1-8.11-1.185,7.66,7.66,0,0,0-6.8,1.23,1.137,1.137,0,0,0-.584,1.252c.221,1.108.319,2.249.469,3.376.467,3.526.934,7.063,1.394,10.588.15,1.167.363,2.333.423,3.507a1.977,1.977,0,0,1-1.932,2.341,3.566,3.566,0,0,1-.521.027c-1.941-.027-3.882-.066-5.825-.075a4.048,4.048,0,0,1-3.573-2.038,7.593,7.593,0,0,1-.653-1.221,13.466,13.466,0,0,1-.813-7.408,3.34,3.34,0,0,1,1.218-2.2,2.616,2.616,0,0,1,3.715.817,1.133,1.133,0,0,1,.115.809,2.173,2.173,0,0,1-.653,1.012,1.5,1.5,0,0,0-.131,2.265,10.18,10.18,0,0,1,.714,1.185c.477,1,.742,1.992-.114,2.957a3.721,3.721,0,0,0,2.126-1.249,1.888,1.888,0,0,0,.363-1.643,4.625,4.625,0,0,0-.538-1.315,11.154,11.154,0,0,1-.645-1.135,1.491,1.491,0,0,1,.15-1.663,1.87,1.87,0,0,0,.274-1.866,2.841,2.841,0,0,0-1.13-1.5,5.937,5.937,0,0,0-4.13-1.12,4.882,4.882,0,0,0-3.486,1.866,8.093,8.093,0,0,0-1.572,5.772,12.672,12.672,0,0,0,2.19,6.319,7.992,7.992,0,0,0,6.017,3.6c2.383.2,4.783.149,7.166.158a8.243,8.243,0,0,0,3.044-.514,3.166,3.166,0,0,0,2.145-3.049,15.589,15.589,0,0,0-.273-2.783q-1.006-7.615-2.021-15.268" transform="translate(-715.592 -247.464)"/><path class="c" d="M770.265,271.374a11.945,11.945,0,0,0-2.083-5.647,6.612,6.612,0,0,0-3.724-2.762,1.456,1.456,0,0,0-1.094.09.871.871,0,0,0-.494.486,1.235,1.235,0,0,0,.547,1.333,5.515,5.515,0,0,1,2.6,3.157,11.729,11.729,0,0,1,.538,2.142,12.142,12.142,0,0,1-.052,5.047c-.494,1.873-1.457,2.746-3.238,2.813-2.092.071-4.183.055-6.275.071a3.158,3.158,0,0,1-1.386-.246,2.807,2.807,0,0,1-1.562-2.462q-.462-4.478-.918-8.96a5.669,5.669,0,0,0-1.376-3.325,10.217,10.217,0,0,1-1.791-2.8.483.483,0,0,0-.671-.321c-.309.076-.212.34-.194.542q.253,2.534.521,5.06c.353,3.414.688,6.83,1.059,10.236a4.639,4.639,0,0,0,2.056,3.645,6.765,6.765,0,0,0,2.754.89,37.289,37.289,0,0,0,4.624.056c.582,0,1.174.026,1.755-.011a16.4,16.4,0,0,0,3.566-.293,5.892,5.892,0,0,0,3.9-3.122,9.946,9.946,0,0,0,.936-5.619" transform="translate(-706.6 -246.222)"/><path class="c" d="M749.042,265.018a6.623,6.623,0,0,0-6.353-3.011,3.852,3.852,0,0,0-3.707,3.167,2.191,2.191,0,0,0,.407,1.865,1.5,1.5,0,0,0,1.394.66c.609-.074.865-.533,1.032-1.092a6.239,6.239,0,0,1,.556-1.432,2.178,2.178,0,0,1,2.949-.79,4.848,4.848,0,0,1,1.949,2.075,9.834,9.834,0,0,1,.768,6.934,4.25,4.25,0,0,1-1.289,2.155,3.078,3.078,0,0,1-3.671.211,5.948,5.948,0,0,0-1.376-.677c-.839-.269-1.316.21-1.139,1.1a8.545,8.545,0,0,0,.609,1.661,2.5,2.5,0,0,0,1.677,1.424,9.359,9.359,0,0,0,2.17.276,10.842,10.842,0,0,0,2.171-.084,4.684,4.684,0,0,0,3.715-3.471,10.911,10.911,0,0,0,.379-4.8,13.156,13.156,0,0,0-2.241-6.17" transform="translate(-710.034 -245.551)"/><path class="c" d="M757.5,269.778a.777.777,0,0,0,.882-.044,4.543,4.543,0,0,0,.9-.819,1.483,1.483,0,0,0,.123-1.972,6.842,6.842,0,0,0-.415-.6c-1.005-1.307-1.879-2.647-1.572-4.473a2.783,2.783,0,0,0-.273.146,2.079,2.079,0,0,0-.334.241,5.214,5.214,0,0,0-1.6,2.762,5.36,5.36,0,0,0,2.285,4.755" transform="translate(-704.534 -245.568)"/><path class="x" d="M767.36,285.58a3.8,3.8,0,0,1,.432-.8,3.748,3.748,0,0,0,.989-2.12s-1.589-1.313-5.622-1.688a47.034,47.034,0,0,0-11.208.8c-2.841.434-14.145,2.59-22.4-2.681,0,0,3.972,6.244,8.886,7.523a13.618,13.618,0,0,0,9.532-1.066c.794-.4,14.6-7.189,19.387.035" transform="translate(-713.208 -239.841)"/><path class="x" d="M728.573,277.809s1.6,2.984,8.719,3.758,12.6.539,14.5-.26a10.185,10.185,0,0,1-5.984-1.09c-2.6-1.561-5.277-3.922-11.781-3.05a4.138,4.138,0,0,0-.521.111c-.8.221-3.45.881-4.933.53" transform="translate(-713.541 -240.536)"/><path class="f" d="M752.292,300.795a4.922,4.922,0,0,1-1.367-.194,4.4,4.4,0,0,1-3.044-3,8.43,8.43,0,0,1-.39-2.661v-.03a9.82,9.82,0,0,1,1.218-4.847,5.288,5.288,0,0,1,5.992-2.431,4.154,4.154,0,0,1,2.216,1.892,4.512,4.512,0,0,1,.617,2.91,1.553,1.553,0,0,1-1.367,1.376c-.874.137-1.756.274-2.621.414-.822.127-1.668.266-2.507.394a4.147,4.147,0,0,0,.248,1.15,1.858,1.858,0,0,0,1.005,1.135,1.739,1.739,0,0,0,1.483-.116,3.861,3.861,0,0,0,1.27-1.15.428.428,0,0,0,.035-.055,1.118,1.118,0,0,1,1.581-.5,1.253,1.253,0,0,1,.644,1.094,2.363,2.363,0,0,1-.115.687,5.652,5.652,0,0,1-2.427,3.261,4.9,4.9,0,0,1-2.471.68m-3.087-5.888a6.467,6.467,0,0,0,.291,2.075,2.679,2.679,0,0,0,1.888,1.882,3.122,3.122,0,0,0,2.225-.165,3.234,3.234,0,0,1-1.943-.155,3.616,3.616,0,0,1-1.976-2.157,6.161,6.161,0,0,1-.361-1.774,1.669,1.669,0,0,1,.229-1.258l.052-.055a1.354,1.354,0,0,1-.1-.1.6.6,0,0,1-.106-.155,8.746,8.746,0,0,0-.2,1.861m5.523-5.288a4.437,4.437,0,0,1,.582,2.416c0,.035-.009.064-.009.1l.54-.083a2.9,2.9,0,0,0-1.113-2.432m-1.995.726a1.179,1.179,0,0,0-.185.011c-.248.026-.972.221-1.378,1.349.972-.119,1.81-.294,2.365-.415a1.509,1.509,0,0,0-.335-.781.579.579,0,0,0-.468-.165" transform="translate(-707.134 -237.132)"/><g transform="translate(40.536 50.474)"><g class="y" transform="translate(0 0)"><rect class="z" width="9.953" height="12.994" transform="translate(0 0)"/></g></g><path class="c" d="M754.223,288.249a4.435,4.435,0,0,0-5,2.037,8.9,8.9,0,0,0-1.094,4.4,7.6,7.6,0,0,0,.335,2.379,3.551,3.551,0,0,0,2.471,2.442,4.235,4.235,0,0,0,5.223-3.166c.08-.266.169-.572-.114-.726s-.407.154-.547.339a4.736,4.736,0,0,1-1.572,1.4,2.531,2.531,0,0,1-3.67-1.5,5.178,5.178,0,0,1-.309-1.515c-.053-.724-.044-.715.661-.826,1.739-.268,3.469-.553,5.206-.819a.68.68,0,0,0,.645-.631,3.663,3.663,0,0,0-2.233-3.813m.017,3.507a24.266,24.266,0,0,1-4.051.7h-.123a.169.169,0,0,1-.167-.2c.088-.66.521-2.782,2.329-3.011,2.153-.265,2.012,2.515,2.012,2.515" transform="translate(-706.919 -236.909)"/></svg>