<svg xmlns="http://www.w3.org/2000/svg" width="70.318" height="93.853" viewBox="0 0 70.318 93.853"><defs><style>.a{fill:#057dc0;}</style></defs><path class="a" d="M192.641,309.289v-8.6h-3.515c-.6,0-.728.3-.728.725v7.858c0,.971-.728,1-1.441,1-.68,0-1.455-.031-1.455-1V299.259c0-1.07,1.028-1.07,1.424-1.07h10.4c3.5,0,5.13,1.88,5.13,4.878v6.223c0,.971-.728,1.006-1.441,1.006-.681,0-1.441-.034-1.441-1.006v-5.749c0-1.861-.744-2.849-2.644-2.849h-1.377v8.6c0,.971-.728,1.006-1.439,1.006s-1.472-.034-1.472-1.006m45.7-14.412v14.4c0,.971.774,1,1.457,1,.711,0,1.439-.031,1.439-1v-14.4c0-.971-.728-1-1.439-1-.683,0-1.457.033-1.457,1m-5.083,4.315v10.1c0,.971.777,1.006,1.457,1.006.713,0,1.441-.034,1.441-1.006v-10.1c0-.971-.728-1.018-1.441-1.018-.68.014-1.457.047-1.457,1.018m-.11-4.381a1.568,1.568,0,1,0,1.566-1.515,1.471,1.471,0,0,0-1.566,1.515m-28.78,9.375c0-3.115,1.773-6.162,6.6-6.162,5.193,0,6.6,3.459,6.6,6.162,0,2.682-1.408,6.14-6.6,6.14-4.845,0-6.6-3.028-6.6-6.14m6.6-3.8a3.8,3.8,0,1,0,3.656,3.8,3.474,3.474,0,0,0-3.656-3.8m13.566.31h-2.154v6.275c0,.495.207.71.713.71h1.441c2.533,0,3.878-1.137,3.878-3.49-.016-2.371-1.345-3.494-3.878-3.494m-3.609-7.114c.711,0,1.455.034,1.455,1.007v3.6h2.265c4.384,0,6.727,2.667,6.727,6,0,3.407-2.406,5.994-6.727,5.994h-3.72c-.666,0-1.441-.132-1.441-1.1V294.584c0-.973.76-1.007,1.441-1.007m31.026,5.615v8.466h-2.722c-2.281,0-2.9-1.153-2.9-3.147v-5.335c0-.973-.728-1.021-1.441-1.021-.68,0-1.455.033-1.455,1.021v5.37c0,3.375,1.836,5.6,5.6,5.6h3.009c-.033.642-.285,1.894-2.882,1.894h-3.656c-.793,0-.855.678-.855,1.252s.063,1.255.855,1.255h4.115c3.626,0,5.241-2.044,5.241-5.371v-10c0-.973-.728-1.021-1.441-1.021-.7.033-1.472.066-1.472,1.037" transform="translate(-185.074 -220.693)"/><path class="a" d="M223.1,280.869v11.976c0,.559.283.857.791.857h4.464c2.375,0,3.4-1.317,3.4-3.391v-3.776c0-.8-.713-.935-1.33-.935s-1.345.017-1.345.935v3.542c0,1.007-.508,1.255-1.425,1.255h-1.9V280.905c0-.941-.666-.971-1.331-.971-.6.014-1.328.03-1.328.935m12.617,9.19v1.289h5.113c-.064-1.8-.887-3.479-2.881-3.479a2.092,2.092,0,0,0-2.232,2.19m19.835-.113v1.648c0,1.48-.713,2.108-1.964,2.108h-3.134c-.76,0-.76-.677-.76-1.184,0-.349-.094-1.187.76-1.187h1.71c.633,0,.713-.362.713-.84v-.233a2.344,2.344,0,1,0-4.687,0v2.42c0,.7-.254,1.024-.982,1.024h-3.783c-.459,2.124-2.6,4.331-6.347,4.331h-1.8c-.761,0-.761-.674-.761-1.187,0-.559,0-1.183.761-1.183H237.1c2.295,0,3.2-1.317,3.419-1.961H233.78c-.428,0-.807-.183-.807-.905v-2.174c0-2.982,1.8-5.2,5.05-5.2,4.1,0,5.651,3.458,5.667,5.913H245c.443,0,.537-.247.537-.545v-.857c0-2.5,1.742-4.511,5.019-4.511,3.388,0,4.987,2.141,4.987,4.528m-45.955-9.06v10.462H207.36a1.134,1.134,0,0,1-1.187-1.1l-.348-1.845c-.238-1.286-.793-2.8-3.673-2.8H194.9c-.855,0-.76.822-.76,1.187,0,.507,0,1.183.76,1.183h4.179v2.143c0,.869-.41,1.248-1.408,1.248h-6.9a2.949,2.949,0,0,1-.016-5.894c.523,0,.634-.346.634-1.122,0-.359.078-1.236-.6-1.236h-.539c-2.8,0-5.019,1.978-5.019,5.307,0,2.932,1.773,5.318,5.145,5.318h7.883c2.343,0,3.513-1.068,3.513-3.476v-2.274h.285c.84,0,1.14.235,1.267.908l.428,2.21a3.134,3.134,0,0,0,3.466,2.631h11.24a3.045,3.045,0,0,0,3.339-3.357v-3.789c0-.905-.681-.941-1.33-.941-.633,0-1.345.036-1.345.941v3.555c0,.789-.332,1.217-1.41,1.217h-5.429V280.905c0-.905-.681-.921-1.33-.921-.65-.036-1.361,0-1.361.9" transform="translate(-185.229 -228.171)"/><path class="a" d="M206.514,291.266A1.487,1.487,0,1,0,208,289.787a1.432,1.432,0,0,0-1.488,1.479" transform="translate(-173.174 -222.607)"/><path class="a" d="M204.078,291.266a1.5,1.5,0,1,0,1.5-1.479,1.436,1.436,0,0,0-1.5,1.479" transform="translate(-174.554 -222.607)"/><path class="a" d="M191.8,291.266a1.5,1.5,0,1,0,1.5-1.479,1.436,1.436,0,0,0-1.5,1.479" transform="translate(-181.508 -222.607)"/><path class="a" d="M189.4,291.266a1.5,1.5,0,0,0,2.992,0,1.5,1.5,0,0,0-2.992,0" transform="translate(-182.865 -222.607)"/><path class="a" d="M213.173,291.266a1.5,1.5,0,1,0,1.5-1.479,1.437,1.437,0,0,0-1.5,1.479" transform="translate(-169.404 -222.607)"/><path class="a" d="M190.584,246.764c-5.7,0-5.351,6.294-5.351,6.294v22.317a7.507,7.507,0,0,0,5.413,7.5c.886.263,30.9,8.595,43.739,11.51a1.328,1.328,0,0,0,.316.034,1.087,1.087,0,0,0,1.2-1.071,1.807,1.807,0,0,0-1.186-1.793L201,275.64s-3.324-1.845-3.324-4.993V263.04a2.889,2.889,0,0,1,3.023-3.314h19.645a2.9,2.9,0,0,1,3.023,3.314v10.112a3.737,3.737,0,0,0,1.584,3.242s9.229,4.317,9.356,4.4a1.265,1.265,0,0,0,.569.163c1.172,0,1.029-2.735,1.029-2.735V253.058s.348-6.294-5.351-6.294Z" transform="translate(-185.229 -246.764)"/></svg>