<svg xmlns="http://www.w3.org/2000/svg" width="101" height="46.077" viewBox="0 0 101 46.077"><defs><style>.a{fill:#3fbec5;}.b{fill:#302f72;}.c{fill:#04bac1;}.d{fill:#fff;}</style></defs><g transform="translate(-1722.062 7837.778)"><path class="a" d="M1132.108,371.809c0-.454.279-.593.621-.311l2.023,1.689a.654.654,0,0,1,0,1.038l-2.023,1.688c-.341.286-.621.146-.621-.308Z" transform="translate(607.513 -8197.893)"/><path class="b" d="M1144.42,376.784h.432V373.64h-.432Zm-16.794,0h.432V373.64h-.432Z" transform="translate(604.492 -8196.349)"/><path class="b" d="M1141.86,367.745a2.019,2.019,0,0,0,2.483,0,1.524,1.524,0,0,0,.529-1.259,1.547,1.547,0,0,0-.507-1.2,1.969,1.969,0,0,0-2.526,0,1.547,1.547,0,0,0-.507,1.2,1.524,1.524,0,0,0,.529,1.259" transform="translate(613.732 -8202.288)"/><path class="b" d="M1150.055,376.458a1.7,1.7,0,0,0-1.2.45,1.52,1.52,0,0,0-.485,1.169,1.449,1.449,0,0,0,.5,1.19,1.955,1.955,0,0,0,2.374,0,1.449,1.449,0,0,0,.5-1.19,1.536,1.536,0,0,0-.475-1.169,1.691,1.691,0,0,0-1.209-.45" transform="translate(618.478 -8194.447)"/><path class="b" d="M1147.257,376.458a1.7,1.7,0,0,0-1.2.45,1.519,1.519,0,0,0-.486,1.169,1.449,1.449,0,0,0,.5,1.19,1.954,1.954,0,0,0,2.374,0,1.449,1.449,0,0,0,.5-1.19,1.519,1.519,0,0,0-.485-1.169,1.7,1.7,0,0,0-1.2-.45" transform="translate(616.592 -8194.447)"/><path class="b" d="M1210.737,378.978a.717.717,0,0,1-.7.732h-8.6a4.27,4.27,0,0,1-2.687-.745.762.762,0,0,1-.285-.693c.022-.177.042-.365.058-.551.029-.32.044-.661.044-1.02v-6.8a1.24,1.24,0,0,0-1.214-1.262h-.574a1.238,1.238,0,0,0-1.214,1.262V377.1a3.075,3.075,0,0,1-.648,2.066,2.4,2.4,0,0,1-1.942.763,2.614,2.614,0,0,1-1.976-.775,3.335,3.335,0,0,1-.745-2.389v-4.174a1.238,1.238,0,0,0-1.214-1.261h-.595a1.237,1.237,0,0,0-1.214,1.261V376.9a3.156,3.156,0,0,1-.26,1.37,2.349,2.349,0,0,1-.679.866,2.443,2.443,0,0,1-.927.447,4.1,4.1,0,0,1-.983.126h-1.5a.718.718,0,0,1-.7-.732v-6.384a1.239,1.239,0,0,0-1.214-1.261h-.6a1.238,1.238,0,0,0-1.214,1.261v6.384a.716.716,0,0,1-.7.732h-10.687a.718.718,0,0,1-.7-.732v-7.505a1.238,1.238,0,0,0-1.214-1.262h-.594a1.239,1.239,0,0,0-1.214,1.262v7.505a.718.718,0,0,1-.7.732h-5.007a.718.718,0,0,1-.7-.732v-7.505a1.238,1.238,0,0,0-1.214-1.262h-.594a1.239,1.239,0,0,0-1.214,1.262v7.505a.716.716,0,0,1-.7.732h-7.782c.043-.224.079-.459.107-.7a6.591,6.591,0,0,0,.044-.742,7.2,7.2,0,0,0-.507-2.717,6.69,6.69,0,0,0-1.4-2.18,6.54,6.54,0,0,0-2.094-1.448,6.271,6.271,0,0,0-2.558-.526,5.969,5.969,0,0,0-2.515.536,6.518,6.518,0,0,0-2.049,1.473,6.925,6.925,0,0,0-1.383,2.18,7.019,7.019,0,0,0-.507,2.682c0,.254.01.5.033.742a4.114,4.114,0,0,0,.117.7h-7.544a.716.716,0,0,1-.7-.732V365.9a1.237,1.237,0,0,0-1.214-1.259h-.6a1.237,1.237,0,0,0-1.214,1.259v16.225a.716.716,0,0,0,.7.728h11.879a.691.691,0,0,1,.487.211,6.747,6.747,0,0,0,1.914,1.351,5.938,5.938,0,0,0,2.59.574,6.392,6.392,0,0,0,4.591-1.92.687.687,0,0,1,.49-.216h39.36a6.129,6.129,0,0,0,2.478-.474,6.029,6.029,0,0,0,1.493-.927.667.667,0,0,1,.956.065,3.888,3.888,0,0,0,.442.449,4.367,4.367,0,0,0,1.048.666,5.11,5.11,0,0,0,1.165.348,7.48,7.48,0,0,0,1.231.1q3.237,0,4.6-2.088a4.364,4.364,0,0,0,.487.675,3.06,3.06,0,0,0,.745.608,4.119,4.119,0,0,0,1.1.427,6.365,6.365,0,0,0,1.078.136v.018h12.078a.716.716,0,0,0,.7-.728V368.511a.717.717,0,0,1,.7-.728.717.717,0,0,0,.7-.732v-1.684a.713.713,0,0,0-.7-.727h-3.022a.714.714,0,0,0-.7.727Z" transform="translate(600.797 -8202.414)"/><path class="b" d="M1179.9,365.9v16.223a.714.714,0,0,0,.7.73h1.619a.716.716,0,0,0,.7-.73V365.9a1.239,1.239,0,0,0-1.214-1.262h-.594a1.238,1.238,0,0,0-1.214,1.262" transform="translate(639.733 -8202.416)"/><path class="c" d="M1140.557,380.22a.586.586,0,0,1-.005-.1,1.335,1.335,0,0,1,0-.223,7.226,7.226,0,0,0-.436-9.416,6.544,6.544,0,0,0-9.522,0,7.22,7.22,0,0,0,0,9.913,6.548,6.548,0,0,0,9.249.266,2.355,2.355,0,0,0,2.245,1.783v-.825a1.56,1.56,0,0,1-1.526-1.4m-1-.409a5.786,5.786,0,0,1-8.41,0,6.354,6.354,0,0,1,0-8.743,5.782,5.782,0,0,1,8.41,0,6.359,6.359,0,0,1,0,8.743" transform="translate(605.162 -8199.857)"/><path class="c" d="M1124.841,381.456a1.765,1.765,0,0,0,1.169-.407,1.637,1.637,0,0,0,.01-2.324,1.824,1.824,0,0,0-2.357,0,1.635,1.635,0,0,0,.008,2.324,1.772,1.772,0,0,0,1.17.407" transform="translate(601.495 -8193.211)"/><path class="c" d="M1127.6,381.456a1.769,1.769,0,0,0,1.169-.407,1.458,1.458,0,0,0,.489-1.184,1.479,1.479,0,0,0-.467-1.14,1.842,1.842,0,0,0-2.371,0,1.635,1.635,0,0,0,.012,2.324,1.768,1.768,0,0,0,1.168.407" transform="translate(603.353 -8193.211)"/><path class="c" d="M1139.933,382.266h-.28a1.375,1.375,0,0,0-1.345,1.4V390.9a.709.709,0,0,1-.694.72h-4.632a.706.706,0,0,1-.69-.72v-9.022a.7.7,0,0,0-.69-.717h-1.594a.7.7,0,0,0-.691.717v.388h-.425a9.255,9.255,0,0,0-3.07.474,6.748,6.748,0,0,0-2.285,1.3,5.511,5.511,0,0,0-1.426,1.969,6.273,6.273,0,0,0-.489,2.486,6.508,6.508,0,0,0,.542,2.744,5.315,5.315,0,0,0,1.508,1.945,6.462,6.462,0,0,0,2.3,1.152,10.8,10.8,0,0,0,2.922.373h11.7a.706.706,0,0,0,.693-.717V383.669a1.376,1.376,0,0,0-1.349-1.4m-10.616,8.634a.709.709,0,0,1-.693.72h-.6a4.12,4.12,0,0,1-1.274-.2,3.373,3.373,0,0,1-1.1-.6,2.887,2.887,0,0,1-1.052-2.322,2.8,2.8,0,0,1,.31-1.334,2.973,2.973,0,0,1,.815-.984,3.771,3.771,0,0,1,1.148-.611,4.152,4.152,0,0,1,1.3-.209h.455a.708.708,0,0,1,.693.718Z" transform="translate(600.442 -8191.275)"/><path class="c" d="M1133.765,390.181a1.668,1.668,0,0,0-1.18.444,1.488,1.488,0,0,0-.477,1.147,1.422,1.422,0,0,0,.489,1.173,1.906,1.906,0,0,0,2.337,0,1.422,1.422,0,0,0,.489-1.173,1.5,1.5,0,0,0-.467-1.147,1.661,1.661,0,0,0-1.19-.444" transform="translate(607.513 -8185.198)"/><path class="c" d="M1131.011,390.181a1.672,1.672,0,0,0-1.182.444,1.494,1.494,0,0,0-.477,1.147,1.42,1.42,0,0,0,.489,1.173,1.908,1.908,0,0,0,2.339,0,1.426,1.426,0,0,0,.489-1.173,1.489,1.489,0,0,0-.479-1.147,1.667,1.667,0,0,0-1.179-.444" transform="translate(605.656 -8185.198)"/><path class="c" d="M1143.932,383.478a4.646,4.646,0,0,0-1.892-1.272,7.529,7.529,0,0,0-2.53-.385,1,1,0,0,0-.978,1.015V383.9a1,1,0,0,0,.978,1.016h.3a2.373,2.373,0,0,1,1.053.233,2,2,0,0,1,.753.608,2.456,2.456,0,0,1,.436.876,4.358,4.358,0,0,1,.139,1.159v2.665a.708.708,0,0,1-.691.72h-6.036a.7.7,0,0,0-.69.716v1.661a.7.7,0,0,0,.69.717h9.012a.7.7,0,0,0,.69-.717v-5.63a10.974,10.974,0,0,0-.274-2.528,4.288,4.288,0,0,0-.958-1.915" transform="translate(609.311 -8190.833)"/><path class="c" d="M1197.714,392.663a.7.7,0,0,1-.692.718h-.944a4.216,4.216,0,0,1-2.649-.732.753.753,0,0,1-.278-.681c.022-.176.04-.36.057-.544.028-.315.042-.653.042-1.006v-6.76a1.159,1.159,0,0,0-1.133-1.179h-.687a1.159,1.159,0,0,0-1.134,1.179v7.162a3.048,3.048,0,0,1-.638,2.034,2.377,2.377,0,0,1-1.914.752,2.583,2.583,0,0,1-1.943-.763,3.3,3.3,0,0,1-.734-2.356v-4.174a1.159,1.159,0,0,0-1.133-1.18h-.708a1.159,1.159,0,0,0-1.133,1.18v4.308a3.093,3.093,0,0,1-.256,1.346,2.341,2.341,0,0,1-.668.851,2.436,2.436,0,0,1-.915.445,4.1,4.1,0,0,1-.966.119h-1.476a.7.7,0,0,1-.692-.718v-6.35a1.159,1.159,0,0,0-1.134-1.18h-.708a1.159,1.159,0,0,0-1.133,1.18v6.35a.7.7,0,0,1-.692.718H1167a.715.715,0,0,1-.646-.973l2.026-5.567a.745.745,0,0,0-.191-.8,14.741,14.741,0,0,0-2.721-1.945,7.137,7.137,0,0,0-3.464-.882,6.779,6.779,0,0,0-1.765.231,8.061,8.061,0,0,0-1.645.651,12.062,12.062,0,0,0-1.574,1q-.583.432-1.16.928a.737.737,0,0,0-.2.814l2.087,5.57a.715.715,0,0,1-.643.98h-3.462a.7.7,0,0,1-.689-.72l.017-7.755a.86.86,0,0,0-.843-.879h-2.513a9.511,9.511,0,0,0-2.933.432,6.959,6.959,0,0,0-2.305,1.227,5.569,5.569,0,0,0-1.51,1.945,6.047,6.047,0,0,0-.542,2.61,6.558,6.558,0,0,0,.564,2.841,5.181,5.181,0,0,0,1.552,1.937,6.671,6.671,0,0,0,2.316,1.107,11.212,11.212,0,0,0,2.859.353h.339a2.418,2.418,0,0,1-.264.926,1.447,1.447,0,0,1-.532.544,2.029,2.029,0,0,1-.8.241,8.987,8.987,0,0,1-1.085.055,8.428,8.428,0,0,1-1.487-.132c-.221-.037-.45-.089-.687-.149a.7.7,0,0,0-.86.747l.109,1.592a.719.719,0,0,0,.511.643l.4.109c.256.059.5.109.733.156s.472.079.712.1.5.034.787.034a7.261,7.261,0,0,0,2.424-.353,4.278,4.278,0,0,0,1.636-1,4.1,4.1,0,0,0,.957-1.535,7.241,7.241,0,0,0,.337-1.385.689.689,0,0,1,.678-.593h25.548a6.025,6.025,0,0,0,2.438-.469,5.914,5.914,0,0,0,2.007-1.433,4.023,4.023,0,0,0,.839,1.026,4.225,4.225,0,0,0,1.031.653,4.907,4.907,0,0,0,1.149.345,7.634,7.634,0,0,0,1.21.1q3.189,0,4.527-2.056a4.032,4.032,0,0,0,.479.663,3,3,0,0,0,.734.6,4.112,4.112,0,0,0,1.083.42,6.046,6.046,0,0,0,1.063.132v.024H1200a.707.707,0,0,0,.69-.722v-13.4a.708.708,0,0,1,.692-.72.7.7,0,0,0,.691-.715v-1.662a.7.7,0,0,0-.691-.715h-2.975a.7.7,0,0,0-.691.715Zm-47.715,0a.7.7,0,0,1-.69.718h-.564a4.512,4.512,0,0,1-1.35-.2,3.109,3.109,0,0,1-1.095-.6,2.8,2.8,0,0,1-.733-.981,3.3,3.3,0,0,1-.264-1.361,2.854,2.854,0,0,1,.286-1.284,3.142,3.142,0,0,1,.765-.983,3.525,3.525,0,0,1,1.3-.693,4.574,4.574,0,0,1,1.306-.156h.2A.858.858,0,0,1,1150,388Zm12.816.718h-1.572a.688.688,0,0,1-.651-.477L1159,388.2a.739.739,0,0,1,.295-.854,5.509,5.509,0,0,1,1.082-.571,4.5,4.5,0,0,1,1.636-.288,4.691,4.691,0,0,1,1.625.265,5.906,5.906,0,0,1,1.12.579.738.738,0,0,1,.3.859l-1.592,4.715a.691.691,0,0,1-.652.481" transform="translate(614.402 -8193.043)"/><path class="c" d="M1180.17,379.262v16.5a.7.7,0,0,0,.69.718h1.594a.7.7,0,0,0,.692-.718v-16.5a.707.707,0,0,0-.692-.718h-1.594a.706.706,0,0,0-.69.718" transform="translate(639.918 -8193.043)"/><path class="c" d="M1141.792,375.352a6.529,6.529,0,1,1-6.524-6.789,6.663,6.663,0,0,1,6.524,6.789" transform="translate(605.245 -8199.771)"/><path class="d" d="M1131.913,372.43a3.15,3.15,0,0,0-.295.929.441.441,0,0,1-.308.378l-.157.043-.459.129-.432.114a.427.427,0,0,1-.529-.415,4.072,4.072,0,0,1,.785-2.538.418.418,0,0,1,.668-.008l.268.341.38.484.041.045a.471.471,0,0,1,.039.5" transform="translate(605.909 -8198.195)"/><path class="d" d="M1133.058,375l-.019.355-.015.258-.026.5a.435.435,0,0,1-.544.4,3.657,3.657,0,0,1-1.172-.6,3.868,3.868,0,0,1-.9-.974.451.451,0,0,1,.2-.665l.438-.174.307-.129.256-.1a.427.427,0,0,1,.466.114,2.922,2.922,0,0,0,.767.588.442.442,0,0,1,.248.422" transform="translate(606.297 -8196.208)"/><path class="d" d="M1135.911,374.94a3.9,3.9,0,0,1-.9.976,3.7,3.7,0,0,1-1.172.6.434.434,0,0,1-.544-.4l-.027-.507-.014-.256-.018-.355a.44.44,0,0,1,.248-.422,3.045,3.045,0,0,0,.76-.576.422.422,0,0,1,.472-.119l.256.1.306.122.44.177a.447.447,0,0,1,.2.66" transform="translate(608.271 -8196.207)"/><path class="d" d="M1136.35,373.609a.429.429,0,0,1-.531.415l-.432-.114-.459-.129-.157-.043a.451.451,0,0,1-.315-.378,2.976,2.976,0,0,0-.288-.929.468.468,0,0,1,.04-.5l.039-.045.38-.492.263-.333a.42.42,0,0,1,.668.005,4.035,4.035,0,0,1,.614,1.2,3.948,3.948,0,0,1,.178,1.343" transform="translate(608.867 -8198.196)"/><path class="d" d="M1134.713,370.527l-.216.35-.374.6v.007a.431.431,0,0,1-.432.194,2.463,2.463,0,0,0-.472-.045,2.4,2.4,0,0,0-.472.045.431.431,0,0,1-.432-.194v-.007l-.374-.6-.216-.35a.452.452,0,0,1,.21-.66,3.706,3.706,0,0,1,2.567,0,.453.453,0,0,1,.209.66" transform="translate(607.209 -8199.047)"/><path class="b" d="M1131.339,372.032a3.136,3.136,0,0,0-.295.929.442.442,0,0,1-.308.378l-.157.044a3.506,3.506,0,0,1,.681-1.893l.04.045a.471.471,0,0,1,.039.5" transform="translate(606.482 -8197.798)"/><path class="b" d="M1132.648,375l-.019.355a3.386,3.386,0,0,1-1.718-1.374l.257-.1a.427.427,0,0,1,.465.114,2.927,2.927,0,0,0,.767.588.441.441,0,0,1,.248.422" transform="translate(606.708 -8196.208)"/><path class="b" d="M1132.955,370.658a3.3,3.3,0,0,1,.9.131v.007a.422.422,0,0,1-.434.191,2.677,2.677,0,0,0-.943,0,.418.418,0,0,1-.43-.191v-.007a3.273,3.273,0,0,1,.9-.131" transform="translate(607.475 -8198.358)"/><path class="b" d="M1134.713,373.878l.255.1a3.426,3.426,0,0,1-1.716,1.368l-.02-.355a.448.448,0,0,1,.25-.422,2.954,2.954,0,0,0,.76-.579.426.426,0,0,1,.472-.116" transform="translate(608.271 -8196.207)"/><path class="b" d="M1134.928,373.383l-.157-.039a.457.457,0,0,1-.315-.383,2.994,2.994,0,0,0-.288-.928.468.468,0,0,1,.04-.5l.039-.047a3.5,3.5,0,0,1,.681,1.894" transform="translate(608.867 -8197.799)"/><path class="d" d="M1135.167,381.77a6.53,6.53,0,1,1,6.27-6.523,6.409,6.409,0,0,1-6.27,6.523m0-12.947a6.428,6.428,0,1,0,6.172,6.424,6.311,6.311,0,0,0-6.172-6.424" transform="translate(605.348 -8199.664)"/><path class="b" d="M1137.567,377v.825a2.359,2.359,0,0,1-2.247-1.783c.191-.166.708-.763.708-.763a1.176,1.176,0,0,0,.007.223c0,.04.007.069.007.1a1.557,1.557,0,0,0,1.525,1.4" transform="translate(609.68 -8195.24)"/><path class="b" d="M1130.925,373.536l-.157.04-.458.134a.923.923,0,0,1-.007-.134,4.03,4.03,0,0,1,.766-2.377l.38.487.038.047a.468.468,0,0,1,.04.5,3.136,3.136,0,0,0-.295.924.441.441,0,0,1-.308.382" transform="translate(606.296 -8197.996)"/><path class="b" d="M1132.771,375l-.018.355-.016.258a3.8,3.8,0,0,1-2.009-1.5l.306-.129.256-.1a.427.427,0,0,1,.466.114,2.924,2.924,0,0,0,.767.588.441.441,0,0,1,.248.422" transform="translate(606.584 -8196.208)"/><path class="b" d="M1134.382,370.472l-.373.6v.007a.424.424,0,0,1-.432.193,2.591,2.591,0,0,0-.472-.042,2.508,2.508,0,0,0-.471.042.425.425,0,0,1-.433-.193v-.007l-.374-.6a3.623,3.623,0,0,1,2.555,0" transform="translate(607.325 -8198.641)"/><path class="b" d="M1134.969,373.979l.308.122a3.822,3.822,0,0,1-2.011,1.508l-.013-.261-.02-.355a.444.444,0,0,1,.249-.422,2.914,2.914,0,0,0,.76-.578.43.43,0,0,1,.472-.117Z" transform="translate(608.271 -8196.207)"/><path class="b" d="M1135.393,373.58a.868.868,0,0,1-.007.131l-.459-.131-.157-.038a.459.459,0,0,1-.315-.383,2.993,2.993,0,0,0-.288-.928.469.469,0,0,1,.04-.5l.039-.047.38-.491a4.045,4.045,0,0,1,.767,2.384" transform="translate(608.867 -8197.996)"/></g></svg>