<svg xmlns="http://www.w3.org/2000/svg" width="100" height="60.28" viewBox="0 0 100 60.28"><defs><style>.a{fill:#23376e;}</style></defs><path class="a" d="M555.022,369.877a2.3,2.3,0,0,0,1.332-.348.206.206,0,0,0,.052-.274.186.186,0,0,0-.24-.07,1.056,1.056,0,0,1-.475.117c-.711,0-.939-.514-.939-2.631V366.5c0-1.672.241-2.437.939-2.437s.939.764.939,2.437v.781c0,2.348.633,2.6,1.573,2.6a2.125,2.125,0,0,0,1.111-.267.239.239,0,0,0,.111-.246.228.228,0,0,0-.216-.193c-.425-.013-.456-.108-.456-.764V366.5c0-2.028-.582-3.3-3.062-3.3s-3.06,1.342-3.06,3.3v.175c0,1.369.453,3.205,2.392,3.205m4.486-6.283c.224.1.709.452.709,1.7v3.833c0,2.357-1.146,2.219-1.546,2.034a.2.2,0,0,0-.237.061.214.214,0,0,0,.015.271,2.24,2.24,0,0,0,1.545.741c1.567,0,2.345-1.047,2.345-3.449V365.1c0-1.534-.886-1.9-2.222-1.9a4.953,4.953,0,0,0-.559.034.189.189,0,0,0-.05.36m-14.493-3.214c.224.1.71.449.71,1.7v4.5c0,2.029.581,3.294,3.06,3.294s3.062-1.336,3.062-3.294v-.219c0-2.207-.886-3.113-2.223-3.113a5.1,5.1,0,0,0-.557.03.19.19,0,0,0-.161.187.182.182,0,0,0,.111.173c.224.1.709.428.709,2.7v.244c0,1.671-.243,2.433-.941,2.433s-.939-.763-.939-2.433V362.5a2.232,2.232,0,0,0-2.222-2.512,4.62,4.62,0,0,0-.557.033.184.184,0,0,0-.161.185.188.188,0,0,0,.109.176m16.075,1.925c.841,0,1.249-.483,1.249-1.08s-.407-1.077-1.249-1.077-1.247.483-1.247,1.077.407,1.08,1.247,1.08m4.6,7.571a2.291,2.291,0,0,0,1.33-.348.2.2,0,0,0,.053-.274.186.186,0,0,0-.24-.07,1.061,1.061,0,0,1-.475.117c-.711,0-.939-.514-.939-2.631V366.5c0-1.672.243-2.437.939-2.437s.94.764.94,2.437v.781c0,2.348.631,2.6,1.572,2.6a2.124,2.124,0,0,0,1.111-.267.239.239,0,0,0,.111-.246.229.229,0,0,0-.216-.193c-.424-.013-.456-.108-.456-.764V366.5c0-2.028-.581-3.3-3.061-3.3s-3.06,1.342-3.06,3.3v.175c0,1.369.453,3.205,2.392,3.205m-35.351,2.353c3.238,0,4.812-1.857,4.812-4.151s-1.574-4.15-4.812-4.15-4.812,1.856-4.812,4.15,1.573,4.151,4.812,4.151m63.949,39.727c-3.239,0-4.812,1.859-4.812,4.152s1.573,4.158,4.812,4.158,4.812-1.859,4.812-4.158-1.573-4.152-4.812-4.152m4.079-35.92a24.68,24.68,0,0,0-2.742.154.938.938,0,0,0-.249,1.779c1.1.474,3.485,2.1,3.485,13.259v1.212c0,8.225-1.189,11.981-4.62,11.981s-4.623-3.756-4.623-11.981V372.333c0-7.543-4.356-12.347-10.931-12.347a24.681,24.681,0,0,0-2.743.155.915.915,0,0,0-.794.923.927.927,0,0,0,.545.856c1.1.473,3.486,2.205,3.486,8.357V392.44c0,9.975,2.856,16.215,15.059,16.215S609.3,402.068,609.3,392.44v-1.075c0-10.87-4.356-15.328-10.932-15.328m-38.773,35.92c-3.239,0-4.814,1.859-4.814,4.152s1.574,4.158,4.814,4.158,4.812-1.859,4.812-4.158-1.574-4.152-4.812-4.152m.15-36.451c-9.29,0-14.608,4.464-15.69,10.473a12.813,12.813,0,0,0-.148,3.316,1.064,1.064,0,0,0,.831.966l.038.008a1.027,1.027,0,0,0,1.043-.431,6.114,6.114,0,0,1,1.924-1.791c1.372-.788,4.394-1.979,12-1.979,7.908,0,11.231,1.832,11.231,5.895s-3.324,6.156-11.231,6.156h-16.39c-3.862,0-3.938-1.608-3.938-5.243v-.859c0-9.974-2.857-16.212-15.059-16.212S509.3,382.389,509.3,392.017v.859c0,6.742,2.229,15.78,11.769,15.78a11.177,11.177,0,0,0,6.547-1.732.992.992,0,0,0,.258-1.336.9.9,0,0,0-1.177-.345,5.135,5.135,0,0,1-2.339.585c-3.5,0-4.621-2.545-4.621-12.953v-.859c0-8.223,1.191-11.978,4.621-11.978s4.621,3.755,4.621,11.978v.871c0,10.4,2.354,15.475,13.871,15.475l16.072.022h.824c9.589,0,15.584-2.884,15.584-16.421,0-13.188-6.33-16.457-15.584-16.457m-41.334-3.276c3.239,0,4.812-1.857,4.812-4.151s-1.573-4.15-4.812-4.15-4.813,1.856-4.813,4.15,1.575,4.151,4.813,4.151" transform="translate(-509.298 -359.986)"/></svg>