<svg xmlns="http://www.w3.org/2000/svg" width="147.593" height="30.161" viewBox="0 0 147.593 30.161"><defs><style>.a{fill:#f4ab33;}.b{fill:#244180;}</style></defs><g transform="translate(-32.399 -25.928)"><path class="a" d="M1358.036,476.342H1389.1l-15.754,28.069Z" transform="translate(-1273.024 -448.322)"/><path class="b" d="M1341.751,492.755l-1.24,2.427v8.149H1336.5V476.8h4.007v11.555l5.247-11.555h4.008l-5.573,11.827,5.573,14.7h-4.117Z" transform="translate(-1304.106 -447.657)"/><path class="b" d="M1345.845,476.8v20.467c0,1.9.8,2.58,2.077,2.58s2.077-.684,2.077-2.58V476.8h3.787v20.206c0,4.245-2.04,6.668-5.974,6.668s-5.975-2.424-5.975-6.668V476.8Z" transform="translate(-1296.405 -447.664)"/><path class="b" d="M1347.142,476.8h6.339c4.007,0,5.974,2.314,5.974,6.561v13.415c0,4.244-1.967,6.561-5.974,6.561h-6.339Zm4.008,3.79v18.954h2.258c1.275,0,2.04-.679,2.04-2.578v-13.8c0-1.9-.765-2.58-2.04-2.58Z" transform="translate(-1288.751 -447.664)"/><path class="b" d="M1356.563,476.8v20.467c0,1.9.8,2.58,2.076,2.58s2.077-.684,2.077-2.58V476.8h3.787v20.206c0,4.245-2.042,6.668-5.974,6.668s-5.975-2.424-5.975-6.668V476.8Z" transform="translate(-1280.936 -447.664)"/><path class="b" d="M1377.391,494.417c-1.116.909-2.323,5.652,1.126,4.557s8.208-6.109,10.107-9.119.953-12.758-7.858-10.478c-4.748,1.823-3.375,5.466-2.937,5.923s2.16,2.006,4.831-1.1c.782-.914,3.8.369,1.992,3.465s-7.26,6.749-7.26,6.749" transform="translate(-1246.744 -444.433)"/><path class="b" d="M1378.092,478.951c-4.3-.139-6.583,3.367-6.678,6.893a4.926,4.926,0,0,0,3.548,5.031h4.535a22.575,22.575,0,0,1-1.591,1.64,7.551,7.551,0,0,1-5.358,1.659c-.345.073-3.116-.354-2.83,2.778s3.927,2.492,8.188,1.151a11.133,11.133,0,0,0,7.585-10.624c-.068-5-3.1-8.4-7.4-8.528m-1.885,6.81v-.8a2.529,2.529,0,0,1,2.207-.747,2.473,2.473,0,0,1,1.935,1.706Z" transform="translate(-1256.189 -444.563)"/><path class="b" d="M1413.1,482.352c-1.014.105-8.565,0-9.388,0s-1.53-1.972-.049-1.972h7.25a2.906,2.906,0,0,0,2.188-2.766,2.113,2.113,0,0,0-1.882-2.128H1403.2c-1.423,0-5.305,2.128-5.305,5.96s3.323,5.852,4.338,5.852h10.517c1.224-.113,1.483,2.184.457,2.184s-15.868.367-15.868.367-1.229-6.334-7.36-6.38-6.631,5.958-6.476,7.451,1.227,4.2,3.213,4.411a31.851,31.851,0,0,0,4.746,0,8.447,8.447,0,0,1-7.908,3.2c-1.529.213-4.19,5.742,2.813,5.107a12.084,12.084,0,0,0,10.771-8.731h16.069a6.732,6.732,0,0,0,5.561-6.7,5.729,5.729,0,0,0-5.668-5.85m-24.995,7.5s-.526-1.647,1.473-1.591a2.538,2.538,0,0,1,2.448,1.749Z" transform="translate(-1238.775 -449.558)"/></g></svg>