<svg xmlns="http://www.w3.org/2000/svg" width="89.437" height="53.947" viewBox="0 0 89.437 53.947"><defs><style>.a{fill:#0f5940;}.b{fill:#f4af32;}.c{fill:#f28f35;}.d{fill:#18713f;}.e{fill:#1ba058;}</style></defs><g transform="translate(-42.294 6.293)"><path class="a" d="M222.188,373.153a6.035,6.035,0,0,0-.034-.946l-.025.1c.027.449.039.884.031,1.3a3.6,3.6,0,0,0,.028-.447" transform="translate(-119.65 -361.216)"/><path class="a" d="M258.5,392.94a19.545,19.545,0,0,0-4.75-10.887c-4.839-5.439-10.932-6.758-17.706-5.691a19.8,19.8,0,0,0-6.725,2.522,14.892,14.892,0,0,1-3.414,9.349c-.016.041-.03.061-.042.042a9.133,9.133,0,0,1-.641-1.134c-.275-.524-.585-1.031-.867-1.553-.21-.386-.41-.776-.607-1.169a.293.293,0,0,1-.038.019,28.307,28.307,0,0,0-4.144,8.758c-.339,1.378-.948,1.785-2.262,1.682-.851-.067-1.008-.316-1.05-1.144-.3-5.63-.135-11.27-.175-16.9a11.7,11.7,0,0,1,.064-1.327c.3-2.735-.019-5.5.346-8.23a1.774,1.774,0,0,0-.147-.624c-.707-2.688-2.864-3.27-5.067-3.68-1.719-.319-1.885-.088-1.746,1.68.011.131,0,.266,0,.4.189,3.93.476,7.861.544,11.791a164.335,164.335,0,0,1-.6,20.713c-.124,1.129.022,1.289,1.034,1.287q20.481-.047,40.961-.009a12.439,12.439,0,0,0,2.525-.263c2.987-.605,4.845-2.814,4.5-5.627m-6.932,1.466c-1.613.077-3.227.125-4.84.161q-1.612.028-3.226.041c-5.917.044-11.835-.08-17.751,0,0,0-.006-.221-.006-.208,0-2.807,1.687-5.618,3.32-7.741a16.3,16.3,0,0,1,12.195-6.442,12.47,12.47,0,0,1,8.209,2.556c.1.078.191.158.283.241a14.459,14.459,0,0,1,3.573,4.973q.232.509.443,1.036a15.465,15.465,0,0,1,.865,2.481,2.388,2.388,0,0,1-.7,2.121,3.547,3.547,0,0,1-2.359.776" transform="translate(-126.811 -366.498)"/><path class="a" d="M210.591,403.3a16.4,16.4,0,0,1-11.52-1.993c-4.6-2.52-6.621-7.947-5.425-13.19,1.977-8.661,5.216-11.858,13.3-13.263,2.81-.485,3.981-2.339,3.282-5.208-.138-.56-.235-.929-1.073-.7-3.342.936-6.788.562-10.194.6a30.133,30.133,0,0,1-6.506-.792c-2.911-.616-5.884-1.053-8.036-3.535-.178-.207-.266-.6-.732-.455a8.884,8.884,0,0,0,2.753,7.468c2.068,1.929,4.685,2.39,7.393,2.719a21.99,21.99,0,0,0-6.478,10.518,17.025,17.025,0,0,0-.33,8.285c1.777,7.719,9.606,13.476,17.2,12.7a8.533,8.533,0,0,0,6.364-3.149" transform="translate(-141.364 -365.436)"/><path class="a" d="M206.523,377.781c-.821-.07-1.926-.114-2.489.607-.369.471.2,1.292.4,1.946a3.552,3.552,0,0,1,.056.391,44.033,44.033,0,0,1,.271,14.609,30.033,30.033,0,0,1-1.469,6.492c-.609,1.6-1.93,2.517-3.011,3.9,6.264.271,10.151-3.245,10.636-9.438.357-4.56.016-9.135.171-13.7.121-3.531-1.5-4.552-4.563-4.814" transform="translate(-131.983 -358.09)"/><path class="a" d="M198.245,378.208a3.75,3.75,0,0,0-.255,7.492,3.616,3.616,0,0,0,3.714-3.667,3.691,3.691,0,0,0-3.459-3.825" transform="translate(-135.249 -357.829)"/><path class="a" d="M206.22,378.015a3.794,3.794,0,0,0-.111-7.577,3.836,3.836,0,0,0-3.55,3.786,3.776,3.776,0,0,0,3.661,3.791" transform="translate(-130.695 -362.214)"/><path class="b" d="M248.751,385.245a15.339,15.339,0,0,0-.865-2.483q-.209-.528-.443-1.037a14.437,14.437,0,0,0-3.573-4.973c-.092-.083-.186-.163-.282-.241a12.476,12.476,0,0,0-8.21-2.556,16.3,16.3,0,0,0-12.195,6.441c-1.633,2.125-3.323,4.936-3.32,7.742,0-.013,0,.2.006.2,5.917-.081,11.835.042,17.751,0q1.612-.012,3.226-.041c1.614-.034,3.227-.085,4.84-.161a3.541,3.541,0,0,0,2.359-.776,2.388,2.388,0,0,0,.7-2.118m-9.515,1.466a1.087,1.087,0,1,1,1.042-1.084,1.066,1.066,0,0,1-1.042,1.084m1.161-3.751a1.044,1.044,0,1,1,1.044,1.084,1.067,1.067,0,0,1-1.044-1.084m1.8,3.751a1.087,1.087,0,1,1,1.043-1.084,1.065,1.065,0,0,1-1.043,1.084m.286-5.493a1.086,1.086,0,1,1,1.043-1.086,1.064,1.064,0,0,1-1.043,1.086m1.1,1.27a1.044,1.044,0,1,1,1.043,1.084,1.067,1.067,0,0,1-1.043-1.084m1.668,4.222a1.087,1.087,0,1,1,1.043-1.084,1.064,1.064,0,0,1-1.043,1.084" transform="translate(-120.928 -360.232)"/><path class="c" d="M236.47,380.719a1.087,1.087,0,1,0,1.044,1.084,1.066,1.066,0,0,0-1.044-1.084" transform="translate(-112.145 -356.411)"/><path class="c" d="M237.115,379.8a1.044,1.044,0,1,0-1.043,1.086,1.064,1.064,0,0,0,1.043-1.086" transform="translate(-112.37 -357.543)"/><path class="c" d="M234.7,377.208a1.088,1.088,0,1,0,1.043,1.086,1.066,1.066,0,0,0-1.043-1.086" transform="translate(-113.144 -358.393)"/><path class="c" d="M235.077,380.1a1.044,1.044,0,1,0-1.043,1.086,1.063,1.063,0,0,0,1.043-1.086" transform="translate(-113.52 -357.371)"/><path class="c" d="M234.515,380.719a1.087,1.087,0,1,0,1.043,1.084,1.065,1.065,0,0,0-1.043-1.084" transform="translate(-113.248 -356.411)"/><path class="c" d="M232.622,380.719a1.087,1.087,0,1,0,1.043,1.084,1.066,1.066,0,0,0-1.043-1.084" transform="translate(-114.315 -356.411)"/><path class="d" d="M217.69,364.914a49.461,49.461,0,0,1,1.907,4.751c.555,1.611,1.036,3.256,1.45,4.919a35.4,35.4,0,0,1,1.27,11.966c-.028.3-.232,2.275-.347,2.616a15.224,15.224,0,0,0,3.276-9.347c.006-.41,0-.848-.03-1.3-.343-5.96-3.581-14.793-9.266-17.331q.444.972.889,1.943c.274.6.574,1.181.851,1.78" transform="translate(-123.137 -367.433)"/><path class="e" d="M215.927,361.158a.075.075,0,0,1,.025.02l.011-.019h-.036" transform="translate(-123.151 -367.451)"/><path class="e" d="M221.737,388.089a9.647,9.647,0,0,0,.64,1.136q.019.021.042-.047c.122-.34.333-2.309.363-2.616a34.072,34.072,0,0,0-1.323-11.968q-.648-2.492-1.511-4.917a48.754,48.754,0,0,0-1.987-4.751c-.291-.6-.6-1.18-.889-1.777l-.925-1.946-.022-.033a1.979,1.979,0,0,0-.092.607c-.031.222-.061.449-.088.671-.055.447-.1.9-.144,1.349-.083.887-.139,1.78-.164,2.677a36.064,36.064,0,0,0,.232,5.308,31.926,31.926,0,0,0,.781,4.158,42.668,42.668,0,0,0,1.647,4.954c.319.81.656,1.613,1,2.406.3.7.626,1.386.967,2.066.2.393.4.784.605,1.169.283.522.593,1.029.868,1.553" transform="translate(-123.323 -367.446)"/></g></svg>