<svg xmlns="http://www.w3.org/2000/svg" width="98.819" height="77.017" viewBox="0 0 98.819 77.017"><defs><style>.a{fill:#2c3470;}.b{fill:#3fbec5;}</style></defs><g transform="translate(26.571 -14.036)"><path class="a" d="M684.043,264.446a1.176,1.176,0,0,0,.072-.638c0-5.067.011-10.136-.012-15.2,0-.566.18-.69.683-.681,1.829.025,3.661.084,5.485-.013a5.019,5.019,0,0,1,4.185,1.853c.982,1.078,2,2.119,3.014,3.169a1.181,1.181,0,0,0,1.9.02c1.2-1.223,2.379-2.475,3.581-3.7a4.1,4.1,0,0,1,3.074-1.32c2.046.013,4.093.015,6.139-.008.506-.005.659.188.658.69q-.012,14.528-.008,29.052c0,.666-.069.73-.731.731q-3.586,0-7.171,0c-.724,0-.773-.049-.774-.8q0-6.553,0-13.111c0-.151,0-.3,0-.452,0-.11.019-.244-.09-.306-.144-.083-.239.044-.324.134q-1.556,1.61-3.106,3.231c-.639.673-1.24,1.38-2.3,1.268a2.206,2.206,0,0,1-1.5-.673c-1.176-1.255-2.379-2.481-3.572-3.713-.127-.133-.268-.248-.41-.376-.184.19-.107.409-.107.6q-.008,6.643-.007,13.282c0,.9-.019.915-.886.916-1.629,0-3.259,0-4.888,0a9.22,9.22,0,0,1-4.659-1.083,8.48,8.48,0,0,1-2.856-2.877c-1.729-2.622-3.416-5.274-5.1-7.931-.983-1.554-1.917-3.142-2.958-4.659a3.183,3.183,0,0,0-1.858-1.542,2.506,2.506,0,0,0-2.7,1.267c-1.28,1.8-2.377,3.728-3.589,5.573a61.818,61.818,0,0,1-3.9,5.963,15.142,15.142,0,0,1-6.06,4.339,14.724,14.724,0,0,1-5.473,1,13.3,13.3,0,0,1-5.148-.96,14.132,14.132,0,0,1-3.958-2.408.539.539,0,0,0-.836,0c-2.163,1.825-4.49,1.048-7.252,1.359a10.909,10.909,0,0,1-6.677-1.161,10,10,0,0,1-5.376-4.786c-1.2-1.973-2.826-3.506-3.027-5.872a13.286,13.286,0,0,1,.707-6.4c.612-1.685,1.5-2.178,2.66-3.515,1.456-1.689,2.517-3.542,4.54-4.4,3.4-1.452,5.823-1.813,9.343-.55a13.611,13.611,0,0,1,2.737.874c.433.252.338-.015-.028.356-1.454,1.454-1.546,3.227-2.368,5.131a16.239,16.239,0,0,0-.524,1.541c-.105.332-.262.348-.525.167a5.7,5.7,0,0,0-5.454-.689c-2.352.884-5.262,3.262-5.346,6.092-.093,3.193,3.166,7.112,6.167,7.73,1.959.4,3.864-1.54,5.308-2.95a3.53,3.53,0,0,1,2.226-1.164c2.031-.2,4.049-.566,6.079-.9h-.52c-3.459,0-6.71-1.408-10.168-1.4-1.124,0-1.259.621-1.774-.313-.53-.964-.4-1.128.2-2.022.509-.755.461-1.407,1.368-1.433.923-.023,1.869.017,2.792.04.417.009.542-.649.623-1.092a13.511,13.511,0,0,1,2.331-5.421,15.411,15.411,0,0,1,5.674-4.967,13.726,13.726,0,0,1,8.945-1.148,15.11,15.11,0,0,1,6.215,2.841c.321.238.361.434.137.782-1.388,2.155-2.74,4.337-4.144,6.48-.45.691-.439.6-.931.149a5.668,5.668,0,0,0-5.378-1.353,5.869,5.869,0,0,0-3.687,2.781c-.131.2-.195.374.125.444.24.052.294.244.314.465a16.217,16.217,0,0,1-.2,5.663.9.9,0,0,0,.234.962,5.685,5.685,0,0,0,3.494,1.77,5.916,5.916,0,0,0,5.971-2.258c.848-1.143,1.513-2.432,2.272-3.647q2.985-4.779,5.976-9.556a17.074,17.074,0,0,1,2.857-3.673,7.808,7.808,0,0,1,10.891.434,32.529,32.529,0,0,1,3.306,4.6c1.264,1.949,2.491,3.921,3.729,5.89.623.988,1.236,1.987,1.855,2.981a1.014,1.014,0,0,0,.469.506" transform="translate(-640.579 -233.865)"/><path class="a" d="M645.33,288.567c.025-.748-.029-1.633.041-2.517.027-.34.118-.483.45-.449.178.021.362,0,.542.008s.381.008.4.272c.015.21.021.451-.217.522-.357.1-.353.372-.353.663q0,2.317,0,4.632c0,.658-.077.7-.685.683-.8-.016-1.59.027-2.385.044a1.232,1.232,0,0,0-.586.276,2.262,2.262,0,0,1-2.7-.065,1.253,1.253,0,0,0-.821-.22,2.8,2.8,0,0,1-2.016-.478.278.278,0,0,0-.393.016,2.046,2.046,0,0,1-2.744-.013.291.291,0,0,0-.4-.013c-.842.69-1.829.461-2.774.477-.9.013-1.807.013-2.712.017a1.041,1.041,0,0,0-.549.213,2.311,2.311,0,0,1-2.843-.025.958.958,0,0,0-.61-.192c-.381,0-.763.027-1.141-.008-.531-.044-.892.059-.988.717a1.21,1.21,0,0,1-.935.931,2.607,2.607,0,0,1-1.606-.032c-.265-.087-.457-.249-.341-.585.108-.316.321-.288.574-.205a1.693,1.693,0,0,0,1.173-.007.587.587,0,0,0,.418-.6c-.031-.282-.309-.209-.488-.236a4.338,4.338,0,0,1-1.3-.372,2.037,2.037,0,0,1-1.149-1.782,2.127,2.127,0,0,1,.88-1.9,3.548,3.548,0,0,1,2.549-.547c.322.015.349.27.35.529,0,.866.015,1.734,0,2.6-.008.433.137.645.567.594.053-.005.108,0,.162,0,.954,0,.923,0,.992-.958a2.313,2.313,0,0,1,2.3-2.377,2.41,2.41,0,0,1,2.387,2.42c.019.915.019.915.934.915,1.02,0,1.02,0,1.021-1.083,0-.582,0-1.168,0-1.749,0-.309.11-.522.44-.514s.357.238.354.511c-.01.733.017,1.468-.015,2.2-.022.509.175.69.635.635.089-.008.181,0,.272,0,.972-.007,1.233-.276,1.24-1.268,0-.507,0-1.015,0-1.524,0-.27.008-.561.38-.553s.422.249.411.575q-.028.823,0,1.641a1.142,1.142,0,0,0,1.213,1.217c.658-.007,1.027-.437,1.032-1.227.007-.828,0-1.656.005-2.484,0-.285.043-.541.393-.55.369-.012.389.257.39.537,0,.848,0,1.694,0,2.543,0,.73.251,1.013.951,1.081.144.011.29,0,.434.011.365.041.473-.113.43-.493a2.42,2.42,0,0,1,.671-2.114,2.4,2.4,0,0,1,2.669-.49,2.429,2.429,0,0,1,1.316,2.4c-.079.646.161.714.668.7,1.1-.023,1.1,0,1.1-1.123v-1.834m-17.749,2.086a1.547,1.547,0,1,0-1.567,1.621,1.653,1.653,0,0,0,1.567-1.621m12.111.033a1.532,1.532,0,0,0,1.512,1.585,1.632,1.632,0,0,0,1.582-1.654,1.614,1.614,0,0,0-1.594-1.581,1.568,1.568,0,0,0-1.5,1.65m-18.507-.641h-.005c0-.338,0-.677,0-1.014a.375.375,0,0,0-.288-.413,1.768,1.768,0,0,0-1.913,1.291,1.5,1.5,0,0,0,1.3,1.582c.784.125.9.027.9-.77v-.677" transform="translate(-639.67 -221.354)"/><path class="a" d="M677.56,285.892q-8.419,0-16.839,0a3.132,3.132,0,0,1-2.087-.65,2.067,2.067,0,0,1-.688-2.131,2.091,2.091,0,0,1,1.417-1.641,2.744,2.744,0,0,1,1.005-.213.5.5,0,0,0,.484-.2.419.419,0,0,1,.566-.184c.241.105.264.34.265.57,0,.963.031,1.925,0,2.882-.02.558.139.758.7.753q3.938-.046,7.877,0c.522.005.7-.164.682-.707-.035-.831-.009-1.661-.005-2.489,0-.288,0-.594.393-.606.411-.011.394.3.394.589,0,.866.013,1.732-.005,2.6-.008.422.12.614.557.61q2.961-.026,5.922,0c.4,0,.545-.146.534-.562-.02-.847-.012-1.693,0-2.541,0-.3-.1-.71.4-.691.465.021.388.417.39.722.009.791.024,1.585,0,2.373-.016.5.135.713.649.7q2.092-.046,4.182,0c.5.011.63-.193.6-.669a2,2,0,0,1,.9-2.034,1.615,1.615,0,0,1,2.439,1.239,6.8,6.8,0,0,1,.049,1.07c.005.221.075.368.306.374.2.007.455.031.485-.238a3.326,3.326,0,0,0-.582-2.876,2.51,2.51,0,0,0-3.029-.372c-.257.1-.478.216-.634-.128-.108-.236-.1-.437.16-.562,2.292-1.093,4.788-.273,4.932,2.777.005.112,0,.227,0,.338,0,1.105-.209,1.069,1,1.068H693.9c.707,0,.713,0,.714-.767,0-1.488,0-2.978,0-4.467,0-.25-.074-.589.24-.678a1.3,1.3,0,0,1,1.107.055.343.343,0,0,1-.064.627c-.433.14-.431.432-.431.784q.006,2.176,0,4.353c0,.851-.069.92-.91.922h-17M660.83,283.6h-.005c0-.374,0-.747,0-1.121,0-.278-.147-.389-.406-.412a1.7,1.7,0,0,0-1.722,1.383,1.591,1.591,0,0,0,1.325,1.592c.65.123.8-.009.81-.71,0-.241,0-.487,0-.731m25.813,1.468c.875,0,.9-.02.9-.759,0-.79-.35-1.321-.882-1.321s-.939.554-.935,1.292c.005.706.1.79.915.788" transform="translate(-626.491 -223.526)"/><path class="a" d="M646.432,285.893H634.157c-.79,0-.817-.029-.818-.863q0-2.515,0-5.032c0-.13,0-.264.005-.4.012-.262.059-.5.389-.486s.362.258.369.518,0,.525,0,.791c0,1.336.012,2.673,0,4.01-.005.449.135.643.594.641q5.294-.02,10.591,0c.464,0,.537-.161.361-.57-.23-.529-.422-1.081-.666-1.606a.638.638,0,0,1,.184-.885,2.964,2.964,0,0,1,4.125.048.544.544,0,0,1,.168.7c-.22.538-.426,1.078-.658,1.608s-.152.689.4.69c3.006.007,6.012,0,9.017.012.412,0,.53-.164.527-.571-.015-1.564-.009-3.127,0-4.688,0-.248-.1-.59.235-.671a1.214,1.214,0,0,1,1.052.057.364.364,0,0,1-.129.658c-.349.113-.373.346-.372.645q0,2.262,0,4.523c0,.83-.032.866-.821.866H646.432m.727-.832c.3.021.552,0,.675-.338.217-.593.443-1.185.686-1.769a.346.346,0,0,0-.159-.509,2.06,2.06,0,0,0-2.114-.105.521.521,0,0,0-.3.723c.191.506.4,1.006.555,1.521.112.366.307.53.656.477" transform="translate(-634.639 -223.526)"/><path class="a" d="M626.009,284.624c2.371,0,4.742-.008,7.112.008.446,0,.6-.1.522-.613a2.438,2.438,0,0,1,1.718-2.717,2.363,2.363,0,0,1,2.758,1.433,2.58,2.58,0,0,1-.923,3.082,2.475,2.475,0,0,1-2.622-.115,1.284,1.284,0,0,0-.917-.25q-8.089,0-16.18,0a4.36,4.36,0,0,1-1.49-.244,2.16,2.16,0,0,1-1.481-2.132,2.22,2.22,0,0,1,1.516-2.058,4.511,4.511,0,0,1,.847-.188.815.815,0,0,0,.666-.3.411.411,0,0,1,.545-.1c.2.084.214.288.214.477,0,1.035.02,2.074,0,3.107-.011.473.159.617.6.614,2.37-.017,4.741-.008,7.114-.008m8.466-.907a1.446,1.446,0,0,0,1.5,1.6,1.559,1.559,0,0,0,1.532-1.618,1.6,1.6,0,0,0-1.551-1.61,1.488,1.488,0,0,0-1.482,1.633m-16.971-.579h0c0-.357,0-.711,0-1.071a.381.381,0,0,0-.329-.433,1.564,1.564,0,0,0-1.77,1.875,1.54,1.54,0,0,0,1.38,1.1c.577.116.715-.013.724-.619,0-.282,0-.566,0-.849" transform="translate(-640.89 -223.087)"/><path class="a" d="M665.534,288.582c0-.807,0-1.618,0-2.427,0-.229.008-.506.3-.515.38-.012.815-.2,1.121.161a.36.36,0,0,1-.141.571c-.471.141-.418.5-.418.851,0,1.451,0,2.9,0,4.346,0,.783-.065.846-.795.851-.4,0-.8,0-1.194,0a3.49,3.49,0,0,0-1.875.365,2.275,2.275,0,0,1-2.565-.156c-.646-.43-1.409-.192-2.12-.162-.247.012-.205.314-.237.51a1.233,1.233,0,0,1-1.4,1.165c-.191-.024-.382-.057-.386-.3s.057-.491.334-.5c.626-.009.671-.438.671-.927q0-2,0-4.009c0-.218-.047-.493.221-.577.346-.111.568.019.569.433,0,.848,0,1.693,0,2.54,0,.706.021.7.767.724.517.023.743-.1.721-.714a2.315,2.315,0,1,1,4.6-.478c.067,1.216.065,1.2,1.225,1.191.449,0,.612-.169.6-.631-.024-.77-.007-1.542-.007-2.315Zm-2.607,2.066a1.5,1.5,0,0,0-1.569-1.6,1.541,1.541,0,0,0-1.472,1.609,1.588,1.588,0,0,0,1.528,1.628,1.567,1.567,0,0,0,1.513-1.633" transform="translate(-627.177 -221.359)"/><path class="a" d="M654.469,263.834v-2.65a.835.835,0,0,1,.365-.825c.3-.162.57.025.794.212.976.8,1.958,1.6,2.9,2.451a1.085,1.085,0,0,1-.044,1.784c-.931.8-1.881,1.581-2.83,2.361a.764.764,0,0,1-.85.215c-.31-.162-.334-.511-.334-.839,0-.9,0-1.8,0-2.708" transform="translate(-627.625 -229.752)"/><path class="a" d="M657.7,289.543c0,.6-.005,1.2,0,1.806,0,.324-.1.45-.438.478-.851.067-1.7.016-2.551.053-.53.021-.762-.265-.706-.75.088-.757-.048-1.5-.03-2.253.007-.316.164-.763-.392-.822a1,1,0,0,0-1.218.756,3.608,3.608,0,0,0-.028.563c0,.85-.008,1.694,0,2.543,0,.529-.178.814-.739.765a8.334,8.334,0,0,1-2.632-.222,1.856,1.856,0,0,1-1.177-1.676c-.053-.522-.015-1.052-.016-1.582,0-.273.071-.489.388-.493s.4.2.4.479c0,.434-.012.87.015,1.3a1.152,1.152,0,0,0,1.054,1.281c.017,0,.036.009.053.012,1.57.352,1.785.171,1.8-1.46a5.785,5.785,0,0,1,.155-2.014,1.48,1.48,0,0,1,1.248-1.028,11.457,11.457,0,0,1,1.572-.044c.322-.005.317.237.318.47.006.9.029,1.81.006,2.711-.012.434.159.575.542.559.342-.015.689-.019,1.031,0,.433.029.571-.184.563-.609-.019-.807-.009-1.62,0-2.427,0-.317-.041-.689.426-.691s.35.381.356.658c.011.546,0,1.092,0,1.637Z" transform="translate(-629.852 -220.812)"/><path class="a" d="M678.038,288.227c0-.7,0-1.395,0-2.089,0-.257.023-.529.334-.553.333-.031.727-.165.975.137a.444.444,0,0,1-.162.71c-.249.117-.277.317-.284.551-.037,1.263.08,2.524-.075,3.781a.506.506,0,0,0,.224.486,1.453,1.453,0,0,0,.594.262c.968.167,1.073.052.834-.9a2.383,2.383,0,0,1,.8-2.465,2.519,2.519,0,0,1,2.584-.085c.19.127.306.264.208.508a.369.369,0,0,1-.485.241c-.228-.056-.454-.133-.684-.173a1.379,1.379,0,0,0-1.678,1.753c.172,1.01.333,1.149,1.308,1.151.453,0,.906,0,1.359,0,.269,0,.53.039.533.4a.436.436,0,0,1-.488.479c-1.446,0-2.893.065-4.336-.069a.826.826,0,0,1-.556-.2c-.44-.483-.833-.281-1.312-.033a5.773,5.773,0,0,1-2.989.282c-.27-.013-.312-.288-.31-.521,0-.278.2-.332.412-.334.562-.007,1.123,0,1.684-.008,1.133-.012,1.508-.4,1.512-1.56,0-.583,0-1.168,0-1.751" transform="translate(-621 -221.376)"/><path class="a" d="M675.363,303.145c-.408,1.144-.819,2.289-1.219,3.435-.105.3-.213.534-.587.545-.392.009-.553-.222-.666-.539-.333-.932-.661-1.869-.99-2.806a1.083,1.083,0,0,0-.27-.577,1.114,1.114,0,0,0-.068.6c-.007.942,0,1.883-.005,2.825,0,.274-.077.479-.394.487s-.46-.165-.458-.485q0-2.343,0-4.687c0-.29.092-.537.4-.579.373-.051.753-.035.918.4.256.683.486,1.375.721,2.067.181.53.35,1.065.534,1.6a4.213,4.213,0,0,0,.231.449,6.022,6.022,0,0,0,.519-1.268c.321-.922.644-1.838.954-2.764a.663.663,0,0,1,.687-.511c.4-.008.6.131.6.582-.015,1.544-.005,3.087-.005,4.635,0,.274-.005.545-.376.553-.4.007-.417-.273-.417-.575v-3.382c-.037,0-.073,0-.11,0" transform="translate(-622.237 -216.13)"/><path class="a" d="M661.333,297.477c-.418,1.16-.844,2.316-1.248,3.482a.557.557,0,0,1-.6.449.6.6,0,0,1-.594-.469c-.344-.992-.7-1.977-1.047-2.966a1.581,1.581,0,0,0-.336-.633v2.745c0,.264,0,.527,0,.792s-.043.5-.369.509-.386-.216-.393-.486c0-.073,0-.15,0-.226q0-2.146,0-4.29c0-.318-.049-.669.4-.722.414-.049.75.024.907.5.325.975.663,1.95,1,2.921a3.45,3.45,0,0,0,.481,1.1c.32-.884.625-1.711.919-2.543.169-.476.343-.954.477-1.44.144-.525.506-.578.932-.533.443.047.415.4.417.722.007,1.465,0,2.936,0,4.4,0,.285.012.6-.39.6s-.465-.276-.465-.611c0-1.105,0-2.211,0-3.315l-.092.013" transform="translate(-626.871 -218.018)"/><path class="a" d="M665.1,300.16c.478-1.349.96-2.625,1.377-3.924a.736.736,0,0,1,.9-.581c.477.041.454.409.454.749,0,1.45,0,2.9,0,4.347,0,.3.028.646-.414.638-.409-.011-.44-.313-.44-.635,0-1.089,0-2.179-.084-3.291-.32.88-.639,1.758-.958,2.64-.1.262-.2.526-.278.8-.1.32-.252.517-.613.51s-.511-.2-.619-.514c-.35-1.031-.711-2.054-1.072-3.081a.691.691,0,0,0-.29-.374v1.937c0,.474,0,.943,0,1.415-.005.285.011.607-.394.594s-.374-.34-.375-.619c-.005-1.018,0-2.033,0-3.05,0-.453,0-.906,0-1.356,0-.3-.04-.642.374-.691.39-.044.75-.055.918.458.362,1.1.759,2.191,1.144,3.286a1.551,1.551,0,0,0,.378.748" transform="translate(-625.032 -218.018)"/><path class="a" d="M688.962,288.546c0-.791,0-1.58,0-2.367,0-.225-.008-.5.288-.523.349-.021.757-.177,1.03.128a.383.383,0,0,1-.173.638c-.355.11-.361.365-.36.657q0,2.316,0,4.627c0,.673-.1.755-.726.714-.233-.013-.467.007-.7.007a2.018,2.018,0,0,1-1.66-.517c-.189-.2-.334-.18-.558-.028a5.148,5.148,0,0,1-3.366.523c-.288-.013-.374-.269-.365-.537.008-.284.212-.322.421-.325.614-.005,1.229.005,1.843-.008.942-.02,1.309-.409,1.315-1.384.007-1.28,0-2.56.005-3.837,0-.253-.065-.571.241-.683a1.238,1.238,0,0,1,1,.017.452.452,0,0,1-.109.767c-.318.115-.349.32-.349.6,0,1.2.013,2.407-.016,3.611a.772.772,0,0,0,.509.777,2.671,2.671,0,0,0,1.442.1c.286-.035.28-.308.28-.534,0-.807,0-1.617,0-2.427Z" transform="translate(-618.365 -221.376)"/><path class="a" d="M668.991,292.415a2.7,2.7,0,0,1,.746-2.207c.069-.06.133-.16.211-.173.74-.122,1.036-.693,1.391-1.3a2.164,2.164,0,0,1,2.658-.96,2.522,2.522,0,0,1,0,4.7,2.369,2.369,0,0,1-2.853-1.243c-.123-.241-.1-.671-.537-.558a.916.916,0,0,0-.719.827c-.048.485-.031.976-.047,1.467-.008.241-.067.453-.345.491s-.479-.031-.5-.358c-.014-.225,0-.452,0-.678m5.752-2.306a1.478,1.478,0,0,0-1.506-1.616,1.6,1.6,0,0,0-1.534,1.586,1.626,1.626,0,0,0,1.59,1.648,1.483,1.483,0,0,0,1.45-1.618" transform="translate(-622.807 -220.677)"/><path class="a" d="M685.668,297.214c0,1.144,0,2.292,0,3.435a1.687,1.687,0,0,1-.069.554c-.077.208-.284.208-.468.185a.358.358,0,0,1-.308-.4q0-2.455,0-4.913a.369.369,0,0,1,.365-.409c.308-.023.615-.067.81.292.526.964,1.064,1.923,1.6,2.885.136.242.268.492.406.731.061.111.1.285.254.244s.115-.218.115-.344c.005-1,0-2,.007-2.994a3.541,3.541,0,0,1,.028-.506.328.328,0,0,1,.342-.3.337.337,0,0,1,.39.3,2.431,2.431,0,0,1,.024.393c0,1.432.005,2.865,0,4.3,0,.262.093.63-.282.694s-.752.093-.991-.357c-.638-1.2-1.3-2.391-1.953-3.587-.043-.077-.092-.155-.137-.233Z" transform="translate(-617.552 -218.018)"/><path class="a" d="M626.609,299.918c.181-.16.1-.382.1-.575.009-1.015,0-2.035.008-3.053,0-.284-.017-.611.381-.611s.384.326.385.61q.006,2.206,0,4.409c0,.269.072.611-.31.685-.365.066-.719.073-.942-.345q-.788-1.482-1.6-2.954a2.009,2.009,0,0,0-.708-.918v1.6c0,.621,0,1.239.06,1.859.032.329.063.743-.424.754-.461.009-.416-.381-.417-.7-.005-1.411,0-2.826,0-4.237,0-.32-.032-.67.386-.763a.739.739,0,0,1,.907.416c.63,1.187,1.28,2.357,1.923,3.535.06.11.087.257.245.29" transform="translate(-638.024 -218.018)"/><path class="a" d="M645.616,289.818c0,.679.029,1.359-.007,2.034a1.891,1.891,0,0,1-2.89,1.56.377.377,0,0,1-.149-.525c.084-.23.237-.341.466-.245a2.06,2.06,0,0,0,.959.133.788.788,0,0,0,.574-.278c.259-.309.181-.545-.209-.623a5.546,5.546,0,0,1-1.308-.344,1.981,1.981,0,0,1-1.219-1.785,2.178,2.178,0,0,1,.954-2.027,3.6,3.6,0,0,1,2.463-.462c.306.021.365.265.366.531,0,.675,0,1.353,0,2.031m-.859-.278c0-.338,0-.675,0-1.014,0-.168,0-.37-.222-.378a1.659,1.659,0,0,0-1.541.47,1.548,1.548,0,0,0-.22,1.536,1.28,1.28,0,0,0,1.205.8c.69.089.778-.008.78-.741,0-.226,0-.452,0-.675" transform="translate(-631.822 -220.812)"/><path class="a" d="M657.03,298.551a2.759,2.759,0,0,1-2.824,2.954,2.811,2.811,0,0,1-2.825-2.932,2.827,2.827,0,1,1,5.649-.023m-4.8-.025a2.065,2.065,0,0,0,2.049,2.2,2.176,2.176,0,0,0-.051-4.331,2.015,2.015,0,0,0-2,2.132" transform="translate(-628.651 -218.033)"/><path class="a" d="M645.564,307.145a2.688,2.688,0,0,1-2.809-2.9,2.8,2.8,0,0,1,2.88-2.93,2.888,2.888,0,0,1,2.822,2.949,2.756,2.756,0,0,1-2.893,2.878m.035-5.008a1.985,1.985,0,0,0-2,2.067,2.048,2.048,0,0,0,1.994,2.207,2.142,2.142,0,0,0,0-4.274" transform="translate(-631.514 -216.136)"/><path class="a" d="M679.491,298.536a2.834,2.834,0,1,1,2.824,3,2.859,2.859,0,0,1-2.824-3m4.792.005a2.043,2.043,0,0,0-1.989-2.151,2.147,2.147,0,0,0-2,2.178,2.105,2.105,0,0,0,2.047,2.168,2.022,2.022,0,0,0,1.941-2.2" transform="translate(-619.321 -218.041)"/><path class="a" d="M620.351,307.158a2.8,2.8,0,0,1-2.828-2.961,2.887,2.887,0,0,1,2.893-2.876,2.806,2.806,0,0,1,2.8,3,2.746,2.746,0,0,1-2.861,2.84m.037-5.023a2,2,0,0,0-2,2.124,2.025,2.025,0,0,0,1.926,2.148,2.14,2.14,0,0,0,.078-4.273" transform="translate(-639.889 -216.135)"/><path class="a" d="M623.876,301.343a3.686,3.686,0,0,1,1.7.27,1.405,1.405,0,0,1,.9,1.239,1.461,1.461,0,0,1-.694,1.581c-.309.165-.384.342-.171.659.289.43.55.883.814,1.332.113.2.389.432.107.623a.522.522,0,0,1-.766-.181c-.325-.518-.639-1.048-.963-1.568a.819.819,0,0,0-.466-.445c-.649-.176-.906.02-.911.725,0,.377,0,.751-.008,1.128a.365.365,0,0,1-.414.4c-.272,0-.389-.12-.388-.411.008-1.617.007-3.23.005-4.847,0-.357.157-.521.5-.512.236.005.471,0,.761,0m-.453,1.766c0,.918,0,.918.783.915.967,0,1.47-.325,1.459-.938-.011-.586-.583-.931-1.549-.931-.7,0-.7,0-.693.954" transform="translate(-638.199 -216.13)"/><path class="a" d="M631.545,298.558c0-.771,0-1.542,0-2.312,0-.328.105-.569.449-.574a7.337,7.337,0,0,1,2.263.117,1.464,1.464,0,0,1,1.159,1.261,1.565,1.565,0,0,1-.627,1.676c-.4.26-.34.482-.112.812.314.458.587.948.887,1.416.2.32.091.434-.236.454a.674.674,0,0,1-.669-.382c-.324-.542-.681-1.067-.986-1.621-.266-.482-.682-.361-1.056-.309s-.265.427-.277.689c-.016.377-.005.752,0,1.128,0,.237.015.474-.305.482a.419.419,0,0,1-.485-.466c0-.791,0-1.581,0-2.371Zm.79-1.139c0,.874.14,1,.992.892.125-.017.249-.044.374-.056.473-.036.839-.18.891-.769.054-.623-.332-.83-.783-.97-1.059-.325-1.474-.064-1.474.9" transform="translate(-635.235 -218.019)"/><path class="a" d="M679.485,304.237c0-.771.009-1.542,0-2.313-.007-.4.145-.581.539-.586a6.208,6.208,0,0,1,2.141.284,2.6,2.6,0,0,1,1.808,2.8A2.736,2.736,0,0,1,681.914,307a8.658,8.658,0,0,1-2,.112c-.332,0-.434-.2-.433-.506.005-.792,0-1.582,0-2.372m.8-.036h0c0,.545,0,1.088,0,1.636,0,.19.016.4.246.441A2.076,2.076,0,0,0,683,305c.437-1.7-.521-2.873-2.357-2.83-.284.007-.361.2-.362.456,0,.527,0,1.052,0,1.578" transform="translate(-619.324 -216.13)"/><path class="a" d="M637.175,304.2c0-.75.011-1.5,0-2.252-.008-.434.17-.606.581-.61a5.483,5.483,0,0,1,2.337.361,2.872,2.872,0,0,1-.364,5.288,8.3,8.3,0,0,1-2.155.127c-.356,0-.394-.264-.394-.546,0-.787,0-1.576,0-2.367m.779.055h-.005v.961c0,1.166.028,1.188,1.169,1.074a1.92,1.92,0,0,0,1.734-1.785c.14-1.678-1.2-2.384-2.535-2.34-.285.009-.362.2-.364.453,0,.549,0,1.094,0,1.637" transform="translate(-633.368 -216.13)"/><path class="a" d="M619.223,299.762c0,1.444-.009,1.471-1.414,1.677a2.759,2.759,0,0,1-3.058-1.309,3.333,3.333,0,0,1,.088-3.27,2.872,2.872,0,0,1,2.961-1.2,6.492,6.492,0,0,1,.734.2c.258.1.611.132.441.6-.153.42-.417.329-.7.187a2.193,2.193,0,0,0-2.042.021,2.27,2.27,0,0,0-.775,3,2.074,2.074,0,0,0,2.685.9c.405-.229.277-.614.271-.952-.009-.354-.29-.322-.525-.334-.2-.011-.4-.008-.6-.035s-.3-.173-.309-.394a.308.308,0,0,1,.326-.361c.507-.011,1.014-.008,1.52,0,.267,0,.394.16.394.432v.848" transform="translate(-640.937 -218.037)"/><path class="a" d="M627.8,298.526c0-.734.009-1.468,0-2.2-.008-.466.157-.7.635-.679.741.02,1.483,0,2.223.008.288,0,.577.06.569.441s-.312.35-.563.354c-.506.005-1.012.011-1.519,0-.345-.007-.5.156-.485.51.008.205,0,.414,0,.619a.389.389,0,0,0,.442.441,6.84,6.84,0,0,1,.92.015c.344.044.915-.24.9.448-.009.623-.543.392-.882.425a7.864,7.864,0,0,1-.92.011c-.312-.005-.445.142-.472.471-.094,1.164-.048,1.228,1.048,1.229.38,0,.759,0,1.139.009.246.009.421.119.409.413-.012.266-.189.352-.406.353-.867.008-1.734,0-2.6.005-.37,0-.444-.244-.442-.563,0-.771,0-1.542,0-2.312" transform="translate(-636.48 -218.018)"/><path class="a" d="M617.052,291.892c-.38,0-.759-.009-1.139,0-.526.017-.678.277-.433.761a2.316,2.316,0,0,0,.708.765c.152.116.465.2.27.5a.473.473,0,0,1-.673.167,2.305,2.305,0,0,1-.911-.856,3.229,3.229,0,0,1-.374-1.735c0-.172.023-.4.193-.432.545-.117.321-.461.242-.766-.413-1.622.245-2.808,1.729-3.085a2.63,2.63,0,0,1,1.578.282.362.362,0,0,1,.2.506.349.349,0,0,1-.465.262c-.245-.061-.489-.145-.737-.182a1.341,1.341,0,0,0-1.6,1.706c.035.2.087.4.129.6a.676.676,0,0,0,.776.606c.577-.02,1.156,0,1.734,0,.3,0,.478.128.472.471-.005.32-.185.422-.455.422h-1.248Z" transform="translate(-640.892 -220.827)"/><path class="a" d="M619.39,298.543c0-.751.013-1.506-.005-2.256-.011-.462.178-.649.615-.639.758.016,1.517,0,2.277.009.264,0,.534.059.545.411.011.381-.276.385-.537.386-.523.005-1.048.009-1.572,0-.357-.007-.55.129-.53.525.009.205,0,.416,0,.621.007.358.18.493.523.471.433-.029.866-.012,1.3-.027.28-.009.516.031.527.4.012.384-.227.471-.531.473-.417,0-.833.017-1.248,0s-.574.165-.582.6c-.021,1.106-.036,1.1,1.05,1.106.4,0,.8,0,1.193.005.248,0,.426.108.424.4s-.2.378-.438.38c-.833,0-1.664,0-2.495,0-.361,0-.526-.171-.521-.552.009-.77,0-1.541,0-2.312Z" transform="translate(-639.27 -218.019)"/><path class="a" d="M675.99,304.183c0-.751.021-1.506-.008-2.256-.016-.426.149-.59.531-.587.759,0,1.52,0,2.279,0,.3,0,.561.063.565.446,0,.4-.289.368-.541.37-.507,0-1.014.009-1.52,0-.372-.011-.534.161-.517.541.007.169.008.34,0,.508-.02.353.137.527.476.526.45,0,.9-.016,1.353,0,.258.007.533.048.545.409.013.394-.266.454-.551.463-.451.012-.9.012-1.357.008-.313,0-.442.147-.466.477-.085,1.2-.068,1.225,1.1,1.227.38,0,.761,0,1.14.012a.349.349,0,0,1,.381.382.36.36,0,0,1-.406.409c-.85,0-1.7,0-2.55,0-.374,0-.444-.24-.444-.559,0-.79,0-1.578,0-2.371Z" transform="translate(-620.486 -216.13)"/><path class="a" d="M637.7,295.658c.366,0,.543.236.665.558.557,1.489,1.124,2.974,1.672,4.463.08.217.308.522-.065.67a.461.461,0,0,1-.665-.376c-.2-.98-.77-1.243-1.687-1.161-1.018.088-1.026.019-1.4,1.068-.079.217-.152.432-.4.489a.458.458,0,0,1-.464-.057c-.136-.133-.037-.282.012-.418q.913-2.446,1.833-4.886a.483.483,0,0,1,.5-.35m.1,1.353c-.049.007-.1.015-.145.02-.2.535-.393,1.072-.586,1.613-.045.121-.094.3.064.334a3.364,3.364,0,0,0,1.228.005c.1-.013.136-.121.1-.224-.217-.583-.439-1.167-.66-1.749" transform="translate(-633.993 -218.015)"/><path class="a" d="M656.839,303.509c0-.543-.008-1.089,0-1.637.005-.256.059-.515.378-.51s.373.258.376.515c.009.734,0,1.469.007,2.206,0,.242-.007.49.016.731a1.548,1.548,0,0,0,2.365,1.405,1.282,1.282,0,0,0,.645-1.273c.026-.9.011-1.806.015-2.712a3.175,3.175,0,0,1,.029-.506.383.383,0,0,1,.409-.366.372.372,0,0,1,.391.388,14.369,14.369,0,0,1-.208,4.2,1.436,1.436,0,0,1-.863.964,2.924,2.924,0,0,1-2.853-.241,2.06,2.06,0,0,1-.706-1.7c-.027-.49-.005-.98-.005-1.47Z" transform="translate(-626.843 -216.121)"/><path class="a" d="M689.348,307.109a.419.419,0,0,1-.475-.4c-.194-1.076-.859-1.295-1.809-1.209-.923.08-.927.019-1.232.92a2.128,2.128,0,0,1-.212.514.475.475,0,0,1-.638.128c-.24-.106-.112-.317-.048-.486.594-1.569,1.192-3.139,1.78-4.715.105-.281.226-.508.558-.514s.484.229.59.494c.316.776.626,1.558.923,2.343.3.8.585,1.614.887,2.416.123.325.077.516-.324.509m-2.043-4.5c-.181.448-.3.758-.434,1.067-.45,1.059-.338,1.208.782,1.117.32-.028.438-.158.324-.466-.2-.535-.415-1.068-.671-1.718" transform="translate(-617.545 -216.126)"/><path class="a" d="M633.375,306.718c.02.2-.017.328-.167.364-.22.051-.452.056-.577-.182s-.225-.514-.333-.77c-.036-.089-.061-.179-.1-.264-.292-.609-.832-.328-1.259-.332-.406,0-.935-.265-1.2.34-.134.309-.274.614-.4.931a.446.446,0,0,1-.626.27c-.318-.113-.158-.382-.087-.573q.861-2.313,1.744-4.623c.111-.292.268-.543.625-.526.329.012.452.257.557.533q.851,2.228,1.706,4.455c.053.137.087.286.115.377m-2.495-1.939c.833.032.908-.079.619-.85-.111-.293-.229-.586-.346-.88-.04-.1-.063-.237-.193-.24s-.182.113-.209.222a8.026,8.026,0,0,1-.478,1.368c-.105.236-.018.352.229.352.143,0,.287.02.378.028" transform="translate(-636.237 -216.125)"/><path class="a" d="M660.815,306.641c.321-.854.667-1.779,1.019-2.708.265-.7.541-1.393.8-2.092.1-.26.224-.467.525-.493a.588.588,0,0,1,.611.458q.9,2.381,1.785,4.778c.063.172.146.389-.091.481a.436.436,0,0,1-.613-.183,2.427,2.427,0,0,1-.262-.617.845.845,0,0,0-1.108-.747,1.32,1.32,0,0,1-.162,0c-1.248.029-1.164-.246-1.667,1.16-.1.28-.248.446-.551.433-.259-.011-.368-.126-.288-.471m2.327-1.854c.844-.009.891-.085.569-.88-.105-.257-.181-.527-.274-.791-.041-.117-.047-.28-.2-.3s-.191.144-.237.26c-.132.325-.272.649-.381.984-.216.658-.154.734.525.726" transform="translate(-625.528 -216.126)"/><path class="a" d="M637.28,303.672a13.122,13.122,0,0,1-.059,1.829,1.8,1.8,0,0,1-1.751,1.617,8.6,8.6,0,0,1-.867.007,1.828,1.828,0,0,1-1.89-1.775c-.128-1.16.039-2.331-.087-3.494a.4.4,0,0,1,.406-.486c.3,0,.42.2.423.477.014.678.009,1.355.014,2.03,0,.322-.011.643.01.959a1.517,1.517,0,0,0,2.3,1.407,1.413,1.413,0,0,0,.718-1.413c.024-.827.007-1.656.01-2.481,0-.171,0-.34.008-.509.02-.266.1-.491.416-.477.284.011.344.232.346.476,0,.567,0,1.131,0,1.835" transform="translate(-634.877 -216.121)"/><path class="a" d="M675.515,301.559c-.482-.1-.981-.192-1.471-.313-.292-.075-.5-.252-.368-.613.128-.336.36-.293.627-.185a2.662,2.662,0,0,0,1.585.242c.416-.093.755-.289.776-.8a.848.848,0,0,0-.684-.887c-.446-.156-.9-.3-1.332-.477a1.49,1.49,0,0,1-.916-1.457,1.4,1.4,0,0,1,.959-1.3,3.041,3.041,0,0,1,2.465.226.337.337,0,0,1,.189.5.37.37,0,0,1-.526.241,3.327,3.327,0,0,0-.87-.3,2.65,2.65,0,0,0-.43-.041c-.412.037-.851.144-.931.619s.3.709.7.864a6.959,6.959,0,0,1,1.462.585,1.519,1.519,0,0,1,.75,1.612,1.434,1.434,0,0,1-1.167,1.305c-.265.06-.529.116-.819.178" transform="translate(-621.264 -218.037)"/><path class="a" d="M671.746,295.636a2.775,2.775,0,0,1,1.317.3c.253.115.378.281.252.574-.113.264-.3.285-.539.2-.289-.108-.581-.211-.875-.3a1.284,1.284,0,0,0-.9.091.655.655,0,0,0-.456.578.643.643,0,0,0,.43.651c.285.119.574.229.868.32a3.422,3.422,0,0,1,1.034.487,1.444,1.444,0,0,1,.621,1.56,1.494,1.494,0,0,1-1.112,1.241,3.967,3.967,0,0,1-2.3-.092c-.3-.089-.558-.234-.419-.641s.406-.269.663-.157a2.322,2.322,0,0,0,1.585.2c.387-.111.73-.282.75-.768a.9.9,0,0,0-.7-.892c-.336-.134-.689-.222-1.03-.346a1.6,1.6,0,0,1-1.2-1.817,1.559,1.559,0,0,1,1.634-1.193c.108-.005.217,0,.374,0" transform="translate(-622.593 -218.023)"/><path class="a" d="M654.828,307.129a2.985,2.985,0,0,1-1.437-.21c-.269-.128-.49-.273-.317-.642.158-.338.37-.242.63-.125a2.466,2.466,0,0,0,1.746.173.777.777,0,0,0,.609-.766.753.753,0,0,0-.517-.763,14.639,14.639,0,0,1-1.711-.694,1.428,1.428,0,0,1-.707-1.57,1.475,1.475,0,0,1,1.271-1.16,2.97,2.97,0,0,1,1.962.246c.222.113.52.2.37.563-.143.342-.4.342-.677.185a2.245,2.245,0,0,0-1.323-.216c-.368.02-.721.16-.79.559-.076.441.259.683.608.827a10.083,10.083,0,0,1,1.615.649,1.58,1.58,0,0,1,.726,1.741,1.508,1.508,0,0,1-1.407,1.2c-.216.02-.434,0-.651,0" transform="translate(-628.109 -216.14)"/><path class="a" d="M648.078,298.354a2.086,2.086,0,0,0,2.889,2.218,2.15,2.15,0,0,0,.3-.131c.232-.116.421-.1.529.176a.418.418,0,0,1-.2.57,2.989,2.989,0,0,1-4.385-2.352,2.852,2.852,0,0,1,1.32-2.781,3.008,3.008,0,0,1,3.014-.113.393.393,0,0,1,.232.587c-.141.3-.369.266-.6.152a2.128,2.128,0,0,0-1.982-.057,1.987,1.987,0,0,0-1.123,1.731" transform="translate(-630.036 -218.037)"/><path class="a" d="M649.685,305.841c.466-1.3.88-2.461,1.294-3.621.024-.069.044-.141.073-.212.147-.337.254-.807.735-.621.457.18.122.578.039.819-.515,1.5-1.075,2.991-1.611,4.486a.543.543,0,0,1-.556.429.574.574,0,0,1-.6-.457q-.873-2.429-1.751-4.854c-.055-.152-.1-.312.061-.4a.441.441,0,0,1,.593.092,2.125,2.125,0,0,1,.343.7q.5,1.489,1.029,2.968a5.856,5.856,0,0,0,.35.669" transform="translate(-630.019 -216.13)"/><path class="a" d="M614.656,304.283c0-.753.009-1.508,0-2.259-.008-.479.2-.691.654-.687.723.008,1.448,0,2.171,0,.286,0,.49.071.494.438.007.421-.26.377-.514.377-.489,0-.978.016-1.466,0-.392-.012-.546.152-.558.562-.027.982-.023.992.946,1,.325,0,.649.044.974.055.252.009.432.1.427.389a.4.4,0,0,1-.422.425c-.433.02-.868.029-1.3.015s-.639.157-.621.627c.02.453,0,.906,0,1.357,0,.29-.053.531-.409.522-.33-.008-.369-.245-.37-.507,0-.771,0-1.544,0-2.315Z" transform="translate(-640.841 -216.13)"/><path class="a" d="M665.929,303.855c0,.544,0,1.088,0,1.636,0,.794.009.8.8.8.433,0,.866,0,1.3,0,.264,0,.47.093.477.412.008.334-.218.393-.476.393-.812,0-1.625,0-2.436,0-.371,0-.521-.181-.519-.551,0-1.538,0-3.077,0-4.616,0-.278.049-.554.393-.559s.455.242.455.565c0,.637,0,1.276,0,1.914Z" transform="translate(-624.106 -216.117)"/><path class="a" d="M639.922,298.464c0-.751,0-1.506,0-2.258,0-.25-.01-.522.332-.535.359-.012.461.225.461.55q0,1.81,0,3.613c0,.767.012.775.77.778.453,0,.906,0,1.357.007.257,0,.478.083.466.414-.012.3-.225.358-.458.36-.812.005-1.628,0-2.441.007-.38,0-.5-.192-.493-.565.013-.79,0-1.578,0-2.371" transform="translate(-632.456 -218.01)"/><path class="a" d="M655.084,282.436v2.822c0,.328-.048.619-.458.6-.385-.013-.4-.308-.4-.6q0-2.791,0-5.586c0-.3.041-.582.426-.579s.432.27.432.578c0,.92,0,1.845,0,2.765" transform="translate(-627.707 -223.513)"/><path class="a" d="M665.752,289.016c0,.9.005,1.8,0,2.7,0,.288.065.67-.366.679-.475.012-.394-.4-.4-.7-.007-1.861,0-3.717-.01-5.577,0-.281-.02-.546.356-.553s.42.274.42.577c0,.958,0,1.913,0,2.872" transform="translate(-624.137 -221.363)"/><path class="a" d="M641.2,289.012q0,1.41,0,2.821c0,.277-.024.558-.379.562s-.389-.272-.389-.55q0-2.877,0-5.755c0-.256.011-.5.364-.493.314.008.4.2.4.48q0,1.468,0,2.936Z" transform="translate(-632.284 -221.354)"/><path class="a" d="M688.117,282.456v2.82c0,.3-.029.594-.417.579-.352-.016-.37-.3-.37-.573,0-1.915,0-3.833-.012-5.749,0-.273.077-.434.358-.442s.437.131.437.436v2.929Z" transform="translate(-616.722 -223.513)"/><path class="a" d="M641.336,304.261c0-.75,0-1.5,0-2.255,0-.324.053-.639.442-.646.425-.007.408.357.409.654.008,1.465,0,2.933,0,4.4,0,.057,0,.113-.009.169-.024.285-.092.525-.435.523s-.41-.237-.41-.53v-2.312" transform="translate(-631.985 -216.122)"/><path class="a" d="M668.617,298.6c0,.753-.008,1.508,0,2.258.005.3-.021.538-.382.537-.309,0-.4-.2-.4-.483,0-1.578,0-3.162,0-4.742,0-.27.08-.5.392-.5s.384.23.384.5c0,.807,0,1.618,0,2.427Z" transform="translate(-623.19 -218.01)"/><path class="a" d="M677.786,298.486v-2.312c0-.267.033-.506.365-.508s.424.221.424.521v4.686c0,.269-.06.5-.376.51-.349.012-.413-.233-.413-.526Z" transform="translate(-619.887 -218.013)"/><path class="a" d="M684.45,304.24v2.311c0,.282-.029.539-.389.546s-.408-.236-.408-.526q0-2.307,0-4.622c0-.309.063-.585.427-.583s.37.294.371.566c0,.77,0,1.541,0,2.308" transform="translate(-617.939 -216.121)"/><path class="a" d="M652.3,304.243c0,.753,0,1.508,0,2.259,0,.286.011.6-.4.59-.365-.007-.377-.282-.377-.557q0-2.315,0-4.634c0-.278.019-.534.4-.522s.378.276.38.55c0,.771,0,1.542,0,2.314" transform="translate(-628.605 -216.116)"/><path class="a" d="M683.32,288.631c0-.621,0-1.243,0-1.861,0-.288.093-.478.405-.467.278.011.38.185.38.443,0,1.26,0,2.523,0,3.781,0,.316-.138.507-.457.5-.341-.011-.332-.284-.333-.531,0-.619,0-1.241,0-1.862Z" transform="translate(-618.051 -221.12)"/><path class="a" d="M675.347,288.633v-1.806c0-.293.057-.537.413-.523.332.013.357.258.358.518q0,1.836,0,3.671c0,.253-.015.514-.348.526s-.424-.225-.424-.522v-1.863" transform="translate(-620.696 -221.12)"/><path class="a" d="M668.131,280.647c-.236-.076-.674.176-.768-.23a1.346,1.346,0,0,1,.188-1.235,1.05,1.05,0,0,1,1.057-.274.233.233,0,0,1,.208.225.226.226,0,0,1-.185.244c-.1.029-.213.039-.317.073-.18.056-.364.133-.332.373.029.22.222.21.385.228.053.007.108,0,.162.007.227.021.543-.029.529.321s-.342.242-.56.266a2.991,2.991,0,0,1-.368,0" transform="translate(-623.368 -223.586)"/><path class="a" d="M655.03,287.174c-.237-.089-.618.138-.7-.245a1.308,1.308,0,0,1,.238-1.265,1.008,1.008,0,0,1,1-.252.247.247,0,0,1,.208.229.253.253,0,0,1-.211.28c-.1.028-.213.037-.316.071-.178.057-.359.138-.324.378.032.222.229.184.384.219.252.052.7-.164.686.282s-.486.221-.752.3a.722.722,0,0,1-.214,0" transform="translate(-627.692 -221.427)"/><path class="a" d="M683.743,291.911c.021.036.031.081.056.092.2.1.614.06.478.44s-.493.173-.751.092a.731.731,0,0,1-.517-.653c-.074-.549.052-.719.59-.726a4.507,4.507,0,0,1,.7.033.331.331,0,0,1,.294.349c0,.212-.167.258-.336.29s-.357-.055-.513.083" transform="translate(-618.16 -219.51)"/><path class="b" d="M633.914,267.309a22.246,22.246,0,0,0,3.879,6.435l1.1,1.2c-1.335.374-2.395,1.466-3.3,1.933a14.231,14.231,0,0,1-7.316,1.534,13.982,13.982,0,0,1-8.763-3.619,14.865,14.865,0,0,1-3.531-4.679,15.583,15.583,0,0,1-1.255-10.057,14.762,14.762,0,0,1,4.707-8.31,14.162,14.162,0,0,1,17.272-1.524.524.524,0,0,1,.105.859,15.406,15.406,0,0,0-3.785,6.389c-.153.519-.344.521-.769.254a5.756,5.756,0,0,0-5.432-.518,6.518,6.518,0,0,0-3.551,8.359,6.074,6.074,0,0,0,5.819,4.116,5.61,5.61,0,0,0,2.611-.659,9.76,9.76,0,0,0,1.686-1.324c.079-.071.172-.125.242-.184Z" transform="translate(-640.925 -233.843)"/><path class="b" d="M638.07,262.844h-.611c-3.4,0-6.815.048-10.219.041a2.757,2.757,0,0,1-2.594-1.8,2.82,2.82,0,0,1,2.48-3.845c.742-.025,1.484-.005,2.227-.005l10.684.073c.168.063.141.256.159.426a15.606,15.606,0,0,1-.111,5.389,1.356,1.356,0,0,0-.083.807,1.977,1.977,0,0,0,.549.685,2.693,2.693,0,0,1-1.531-1.954" transform="translate(-637.585 -230.769)"/></g></svg>