<svg xmlns="http://www.w3.org/2000/svg" width="84.643" height="91.524" viewBox="0 0 84.643 91.524"><defs><style>.a{fill:#1c7da9;}.b{fill:#fff;}.c{fill:#e22f47;}</style></defs><path class="a" d="M1455.692,506.373a2.062,2.062,0,0,0-1.877,1.681h-.117a1.976,1.976,0,0,0-1.89-1.681,2.063,2.063,0,0,0,0,4.123,2.056,2.056,0,0,0,1.876-1.68h.118a1.971,1.971,0,0,0,1.888,1.68,2.063,2.063,0,0,0,0-4.123" transform="translate(-1412.391 -419.054)"/><path class="a" d="M1449.079,500.472a2.062,2.062,0,1,0-1.981-2.063,2.027,2.027,0,0,0,1.981,2.063" transform="translate(-1414.249 -425.883)"/><path class="a" d="M1474.056,499.7a7.764,7.764,0,0,0-2.877-.531,9.194,9.194,0,0,0-2.97.422,5.565,5.565,0,0,0-4.074,5.388c0,3.7,2.5,5.408,5.514,5.408h1.27c0,.779-.3,1.3-1.421,1.3h-3.462a.365.365,0,0,0-.355.373v3.057a.361.361,0,0,0,.355.368l3.948,0c2.564,0,4.431-1.868,4.562-5.2.085-2.218.078-8.335.027-9.763a.788.788,0,0,0-.516-.82m-3.161,6.674h-1.078c-1.095,0-1.816-.567-1.816-1.5a1.675,1.675,0,0,1,1.806-1.569h.884c.158,0,.2.094.2.219Z" transform="translate(-1402.64 -423.961)"/><path class="a" d="M1481.367,501.769c-1.106-1.587-2.653-2.487-5.361-2.487h-3.63a.366.366,0,0,0-.357.373v3.227a.363.363,0,0,0,.357.37h3.872a2.67,2.67,0,0,1,1.919.715,3.157,3.157,0,0,1,.454,2.006.141.141,0,0,1-.145.13l-6.813,0a.365.365,0,0,0-.357.372v3.467a.364.364,0,0,0,.357.372h9.623a.591.591,0,0,0,.585-.372,19.3,19.3,0,0,0,.523-4.069,6.833,6.833,0,0,0-1.028-4.1" transform="translate(-1397.752 -423.884)"/><path class="a" d="M1431.265,496.307a2.064,2.064,0,1,0,1.982,2.061,2.026,2.026,0,0,0-1.982-2.061" transform="translate(-1426.39 -425.913)"/><path class="a" d="M1433.88,499.286h-2.885a.364.364,0,0,0-.355.37v9.7c0,1.708-.6,2.258-1.5,2.258h-1.223a.363.363,0,0,0-.358.373v3.05a.362.362,0,0,0,.358.37h1.293c3.847,0,5.021-2.349,5.021-6.43v-9.32a.364.364,0,0,0-.355-.37" transform="translate(-1427.563 -423.882)"/><path class="a" d="M1478.93,499.189a4.624,4.624,0,0,0-3.489,1.656,12.843,12.843,0,0,0-1.871,3.043c-.607,1.212-1,2.3-2.157,2.3l-.1,0h-.8c-.819,0-1.709-.314-1.709-2.146v-4.31a.362.362,0,0,0-.357-.368h-2.877a.363.363,0,0,0-.355.368v4.31c0,1.708-.525,2.146-1.572,2.146h-1.078c-.819,0-1.708-.314-1.708-2.146v-4.31a.363.363,0,0,0-.356-.368h-2.877a.363.363,0,0,0-.356.368v4.31c0,1.708-.523,2.146-1.572,2.146H1442.97c.012-2.347,0-4.821-.036-5.665a.788.788,0,0,0-.514-.82,7.814,7.814,0,0,0-2.877-.531,9.241,9.241,0,0,0-2.969.422,5.564,5.564,0,0,0-4.074,5.389c0,3.7,2.5,5.408,5.515,5.408h1.268c0,.777-.3,1.295-1.419,1.295H1434.4a.365.365,0,0,0-.357.373v3.057a.361.361,0,0,0,.357.368l3.948,0c2.537,0,4.388-1.834,4.552-5.1h14.178a3.071,3.071,0,0,0,3.011-2.446h.125a2.866,2.866,0,0,0,2.717,2.446h2.092a3.068,3.068,0,0,0,3.013-2.446h.128a2.862,2.862,0,0,0,2.714,2.446h.965c1.149,0,2.156-.412,2.975-2.394l.121,0a5.073,5.073,0,0,0,4.223,2.534,4.5,4.5,0,0,0,3.353-1.375,6.212,6.212,0,0,0,1.742-4.289c0-3.069-2.05-5.672-5.328-5.672m-39.67,7.187h-1.079c-1.093,0-1.818-.565-1.818-1.507a1.677,1.677,0,0,1,1.8-1.565h.888c.158,0,.2.094.2.219Zm39.409.21a1.748,1.748,0,0,1-1.718-1.762,1.845,1.845,0,0,1,1.806-1.888,1.754,1.754,0,0,1,1.68,1.841,1.716,1.716,0,0,1-1.767,1.809" transform="translate(-1424.198 -423.961)"/><path class="b" d="M1494.757,473.176l-16.9-17.583a3.672,3.672,0,0,0-5.339,0l-14.177,14.748-23.58,24.531a4.059,4.059,0,0,0,0,5.566l16.891,17.585a3.743,3.743,0,0,0,2.679,1.148,3.7,3.7,0,0,0,2.665-1.148l21.143-22,16.613-17.287a4.044,4.044,0,0,0,0-5.556" transform="translate(-1423.405 -454.443)"/><path class="c" d="M1469.877,478.794a4.768,4.768,0,0,1-6.921,0,5.223,5.223,0,0,1,0-7.2,4.756,4.756,0,0,1,6.921,0,5.238,5.238,0,0,1,0,7.2m14.857-5.085-16.892-17.573a2.011,2.011,0,0,0-2.953,0l-18.272,19,19.844,20.657,18.273-19.019a2.227,2.227,0,0,0,0-3.069" transform="translate(-1414.577 -453.728)"/><path class="a" d="M1457.353,485a4.748,4.748,0,0,1,6.92,0,5.211,5.211,0,0,1,0,7.2,4.759,4.759,0,0,1-6.92,0,5.234,5.234,0,0,1,0-7.2m-7.442,7a4.781,4.781,0,0,1-6.926,0,5.264,5.264,0,0,1,0-7.208,4.773,4.773,0,0,1,6.926,0,5.259,5.259,0,0,1,0,7.208m-14.634-5.07a2.234,2.234,0,0,0,0,3.074l16.9,17.573a2.023,2.023,0,0,0,2.954,0l18.259-18.994-19.855-20.654Z" transform="translate(-1422.723 -445.252)"/><path class="a" d="M1452.059,493V490.78h-.772v-.528h2.1v.528h-.759V493Z" transform="translate(-1411.395 -430.039)"/><path class="a" d="M1455.051,493v-1.987L1454.3,493h-.249l-.74-1.987V493h-.565v-2.753h.791l.642,1.71.649-1.71h.792V493Z" transform="translate(-1410.399 -430.039)"/></svg>