<svg xmlns="http://www.w3.org/2000/svg" xmlns:xlink="http://www.w3.org/1999/xlink" width="64.145" height="93.999" viewBox="0 0 64.145 93.999"><defs><style>.a{fill:none;}.b{fill:#592c82;}.c{clip-path:url(#a);}.d{fill:url(#b);}.e{clip-path:url(#c);}.f{fill:url(#d);}.g{clip-path:url(#e);}.h{fill:url(#f);}.i{clip-path:url(#g);}.j{fill:url(#h);}.k{clip-path:url(#i);}.l{fill:url(#j);}.m{clip-path:url(#k);}.n{fill:url(#l);}</style><clipPath id="a"><path class="a" d="M984.488,366.639v6.632a1.429,1.429,0,0,1-.1.538,1.374,1.374,0,0,1-.483.609,1.289,1.289,0,0,1-.745.237,1.306,1.306,0,0,1-.516-.107,1.379,1.379,0,0,1-.587-.5,1.405,1.405,0,0,1-.227-.772v-6.632h-2.463v6.631a4.08,4.08,0,0,0,.3,1.534,3.937,3.937,0,0,0,1.375,1.739,3.671,3.671,0,0,0,3.6.363,3.861,3.861,0,0,0,1.669-1.431,4.048,4.048,0,0,0,.648-2.206V366.64h-2.465Z" transform="translate(-979.364 -366.639)"/></clipPath><linearGradient id="b" x1="-110.083" y1="86.961" x2="-109.97" y2="86.961" gradientUnits="objectBoundingBox"><stop offset="0" stop-color="#592c82"/><stop offset="1" stop-color="#00bed6"/></linearGradient><clipPath id="c"><path class="a" d="M983.157,356.618a3.66,3.66,0,0,0-1.476.309,3.863,3.863,0,0,0-1.669,1.429,4.053,4.053,0,0,0-.648,2.207v6.5h2.463v-6.5a1.406,1.406,0,0,1,.1-.535,1.377,1.377,0,0,1,.484-.611,1.275,1.275,0,0,1,.742-.236,1.247,1.247,0,0,1,.516.108,1.352,1.352,0,0,1,.591.5,1.413,1.413,0,0,1,.224.769v6.5h2.465v-6.5a4.085,4.085,0,0,0-.3-1.536,3.919,3.919,0,0,0-1.372-1.735,3.687,3.687,0,0,0-2.12-.674Z" transform="translate(-979.364 -356.618)"/></clipPath><linearGradient id="d" x1="-111.09" y1="88.717" x2="-110.977" y2="88.717" xlink:href="#b"/><clipPath id="e"><path class="a" d="M973.092,366.636v6.637a1.424,1.424,0,0,1-.1.538,1.387,1.387,0,0,1-.484.608,1.28,1.28,0,0,1-.743.237,1.325,1.325,0,0,1-.518-.107,1.37,1.37,0,0,1-.587-.5,1.4,1.4,0,0,1-.225-.772v-6.637h-2.465v6.637a4.054,4.054,0,0,0,.3,1.534,3.9,3.9,0,0,0,1.374,1.739,3.67,3.67,0,0,0,3.6.363,3.847,3.847,0,0,0,1.667-1.431,4.051,4.051,0,0,0,.65-2.206v-6.635h-2.466Z" transform="translate(-967.968 -366.636)"/></clipPath><linearGradient id="f" x1="-108.763" y1="86.936" x2="-108.65" y2="86.936" xlink:href="#b"/><clipPath id="g"><path class="a" d="M971.763,356.618a3.654,3.654,0,0,0-1.477.309,3.878,3.878,0,0,0-1.669,1.429,4.069,4.069,0,0,0-.648,2.207v6.491h2.465v-6.491a1.389,1.389,0,0,1,.1-.535,1.359,1.359,0,0,1,.484-.611,1.276,1.276,0,0,1,.742-.236,1.257,1.257,0,0,1,.516.108,1.331,1.331,0,0,1,.588.5,1.391,1.391,0,0,1,.225.769v6.491h2.466v-6.489a4.078,4.078,0,0,0-.3-1.536,3.91,3.91,0,0,0-1.374-1.735,3.682,3.682,0,0,0-2.118-.674Z" transform="translate(-967.968 -356.618)"/></clipPath><linearGradient id="h" x1="-109.851" y1="88.743" x2="-109.737" y2="88.743" xlink:href="#b"/><clipPath id="i"><path class="a" d="M978.046,364.065h0Zm4.3-4.482a.964.964,0,0,0-.627.276,1.111,1.111,0,0,0-.305.614l-.473,2.73,0,.012-.581,3.871-.5-2.81a1.1,1.1,0,0,0-.269-.562.9.9,0,0,0-.56-.3.857.857,0,0,0-.108-.007.875.875,0,0,0-.543.192,1.044,1.044,0,0,0-.339.468l-.989,2.643H966.7a.842.842,0,0,0-.4.1.992.992,0,0,0-.412.41,1.213,1.213,0,0,0-.144.576,1.174,1.174,0,0,0,.251.736,1,1,0,0,0,.3.252.859.859,0,0,0,.4.1h10.992a.894.894,0,0,0,.548-.195,1.052,1.052,0,0,0,.331-.465l.04-.1.89,4.735a1.131,1.131,0,0,0,.306.6.9.9,0,0,0,.63.271h.017a.886.886,0,0,0,.351-.085.958.958,0,0,0,.388-.335,1.145,1.145,0,0,0,.184-.473l.5-2.893h0l0-.009.405-2.7.364,2.851h0a1.113,1.113,0,0,0,.257.6.95.95,0,0,0,.253.212.876.876,0,0,0,.326.113h0l.107.006a.875.875,0,0,0,.569-.214,1.074,1.074,0,0,0,.337-.509v0l.424-1.385h10.63a.842.842,0,0,0,.4-.1.965.965,0,0,0,.411-.41,1.184,1.184,0,0,0,.146-.575,1.157,1.157,0,0,0-.254-.734.924.924,0,0,0-.3-.25.836.836,0,0,0-.4-.1H984.244l-.1,0-.841-6.212v0a1.138,1.138,0,0,0-.29-.633.966.966,0,0,0-.284-.212.854.854,0,0,0-.36-.085Z" transform="translate(-965.745 -359.583)"/></clipPath><linearGradient id="j" x1="-50.217" y1="31.644" x2="-50.165" y2="31.644" xlink:href="#b"/><clipPath id="k"><path class="a" d="M982.81,398.474a3.192,3.192,0,0,1-.866-.339L964.9,387.9a3.463,3.463,0,0,1-.714-.611,5.5,5.5,0,0,1-.933-1.488,4.006,4.006,0,0,1-.342-1.491V363.835a3.5,3.5,0,0,1,.151-.954,5.343,5.343,0,0,1,.771-1.581,3.751,3.751,0,0,1,1.068-1.055l17.044-10.24a3.139,3.139,0,0,1,.866-.338,4.87,4.87,0,0,1,2.25,0,3.105,3.105,0,0,1,.865.338l17.044,10.24a3.276,3.276,0,0,1,.715.609,5.4,5.4,0,0,1,.932,1.488,3.983,3.983,0,0,1,.344,1.494v20.473a3.48,3.48,0,0,1-.151.951,5.465,5.465,0,0,1-.772,1.581,3.83,3.83,0,0,1-1.068,1.058l-17.042,10.237a3.218,3.218,0,0,1-.868.339,4.886,4.886,0,0,1-1.125.127h-.01a4.872,4.872,0,0,1-1.114-.127m-.734-52.082a6.267,6.267,0,0,0-1.748.7l-17.043,10.238a6.4,6.4,0,0,0-1.458,1.223,8.842,8.842,0,0,0-1.534,2.439,7.426,7.426,0,0,0-.616,2.842v20.473a6.911,6.911,0,0,0,.291,1.927,8.842,8.842,0,0,0,1.261,2.6,7.011,7.011,0,0,0,2.057,1.973l17.043,10.238a6.316,6.316,0,0,0,1.748.7,8.037,8.037,0,0,0,3.719,0,6.339,6.339,0,0,0,1.748-.7l17.043-10.238a6.445,6.445,0,0,0,1.457-1.226,8.73,8.73,0,0,0,1.536-2.436,7.394,7.394,0,0,0,.616-2.839V363.835a6.914,6.914,0,0,0-.291-1.93,8.748,8.748,0,0,0-1.261-2.6,6.974,6.974,0,0,0-2.057-1.973l-17.043-10.238a6.29,6.29,0,0,0-1.748-.7,7.987,7.987,0,0,0-3.719,0" transform="translate(-959.676 -346.173)"/></clipPath><linearGradient id="l" x1="-19.078" y1="15.319" x2="-19.058" y2="15.319" xlink:href="#b"/></defs><path class="b" d="M959.915,402.985a1.032,1.032,0,0,0-1.011,1.053v3.288h-4.68v-3.288a1.011,1.011,0,1,0-2.02,0v9.071a1.011,1.011,0,1,0,2.02,0v-3.78h4.68v3.78a1.011,1.011,0,1,0,2.02,0v-9.071a1.032,1.032,0,0,0-1.01-1.053" transform="translate(-952.205 -320.163)"/><path class="b" d="M960.748,409.906h0v0Z" transform="translate(-948.251 -316.961)"/><path class="b" d="M963.973,403.557h0v0Z" transform="translate(-946.759 -319.901)"/><path class="b" d="M967.116,402.838a1.032,1.032,0,0,0-1.011,1.05v6.47l-4.886-7.049c-.009-.015-.019-.025-.028-.041l-.024-.034a1,1,0,0,0-.79-.4,1.031,1.031,0,0,0-1.011,1.053v9.286a1.011,1.011,0,1,0,2.02,0v-6.471l4.886,7.051c.009.015.019.025.028.038l.023.036h0a.992.992,0,0,0,.79.395,1.029,1.029,0,0,0,1.009-1.052v-9.286a1.031,1.031,0,0,0-1.009-1.053" transform="translate(-948.89 -320.232)"/><path class="b" d="M967.187,410.625h-.161a1.01,1.01,0,0,0,.161,0" transform="translate(-945.345 -316.629)"/><path class="b" d="M971.058,408.964h.017l-1.457-3.705Z" transform="translate(-944.145 -319.113)"/><path class="b" d="M972.262,410.625H972.1a1.006,1.006,0,0,0,.161,0" transform="translate(-942.997 -316.629)"/><path class="b" d="M968.622,408.964h.019l1.438-3.705Z" transform="translate(-944.607 -319.113)"/><path class="b" d="M971.943,403.661h0a.84.84,0,0,0-1.647,0h0l-3.854,9.176a1.017,1.017,0,0,0,.661,1.28,1.11,1.11,0,0,0,.228.042h.159a.913.913,0,0,0,.777-.565l.066-.167.594-1.527h4.39l.6,1.527.066.167a.911.911,0,0,0,.777.565h.159a1.18,1.18,0,0,0,.23-.042,1.016,1.016,0,0,0,.658-1.28Zm.614,6.354h-2.9l1.458-3.705,1.457,3.705Z" transform="translate(-945.645 -320.162)"/><path class="b" d="M975.319,408.991a2.718,2.718,0,0,1,.723-1.887,2.45,2.45,0,0,1,1.047-.654,2.6,2.6,0,0,1,.787-.117c.06,0,.119,0,.176,0l.042,0c.044,0,.086.007.127.012l.026,0a2.177,2.177,0,0,1,.843.307,2.379,2.379,0,0,1,.495.423.888.888,0,0,0,.857.224l.4-.244a.967.967,0,0,0,.042-1.276,4.288,4.288,0,0,0-3.008-1.248,5.338,5.338,0,0,0-.762.056c-.184.031-.363.067-.535.114a4.242,4.242,0,0,0-2,1.213,4.566,4.566,0,0,0,0,6.134,4.239,4.239,0,0,0,2,1.211,4.733,4.733,0,0,0,.535.113,5.13,5.13,0,0,0,.762.057,4.3,4.3,0,0,0,3.008-1.246.968.968,0,0,0-.042-1.276l-.4-.244a.884.884,0,0,0-.857.224,2.412,2.412,0,0,1-.495.421,2.149,2.149,0,0,1-.843.307l-.026.006c-.041,0-.083.009-.127.01-.015,0-.028,0-.042,0-.057,0-.116.006-.176.006a2.646,2.646,0,0,1-.787-.117,2.441,2.441,0,0,1-1.047-.655,2.716,2.716,0,0,1-.723-1.887" transform="translate(-942.398 -319.442)"/><path class="b" d="M987.254,404.543a.9.9,0,0,0-.907.887v.3a3.027,3.027,0,0,0-2.537-1.186,4.134,4.134,0,0,0-3.145,1.441,4.661,4.661,0,0,0-1.169,3.007,4.722,4.722,0,0,0,1.106,3.043,4.01,4.01,0,0,0,3.113,1.406,3.3,3.3,0,0,0,2.632-1.194v.25a.908.908,0,1,0,1.814,0v-7.067a.9.9,0,0,0-.907-.887m-1.581,6.335a2.377,2.377,0,0,1-1.73.774,2.454,2.454,0,0,1-1.774-.774,2.758,2.758,0,0,1,0-3.774,2.458,2.458,0,0,1,1.774-.772,2.38,2.38,0,0,1,1.73.772,2.8,2.8,0,0,1,0,3.774" transform="translate(-939.574 -319.442)"/><path class="b" d="M989.794,405.4a.877.877,0,0,0,0-.256Z" transform="translate(-934.808 -319.162)"/><path class="b" d="M989.148,404.658h0a.163.163,0,0,0,.028,0l-.028,0" transform="translate(-935.107 -319.39)"/><path class="b" d="M991.149,405.414a.828.828,0,0,0-.918-.709l-.026,0a2.71,2.71,0,0,0-.54.143,3.6,3.6,0,0,0-.7.364,1.356,1.356,0,0,0-.38.386v-.158a.86.86,0,1,0-1.719,0v7.038a.917.917,0,1,0,1.832,0v-4.849a1.077,1.077,0,0,1,.351-.822,1.733,1.733,0,0,1,.8-.389,2.03,2.03,0,0,1,.5-.063.844.844,0,0,0,.8-.677v-.268" transform="translate(-936.164 -319.439)"/><path class="b" d="M994.448,408.92h0l.019-.019-.019.019" transform="translate(-932.653 -317.425)"/><path class="b" d="M995.081,408.78l.193.114a1,1,0,0,0-.193-.114" transform="translate(-932.361 -317.482)"/><path class="b" d="M998.795,408.756a4.621,4.621,0,0,0-1.448-3.078,4.219,4.219,0,0,0-2.747-1.135,4.382,4.382,0,0,0-3.3,1.382,4.565,4.565,0,0,0,0,6.134,4.386,4.386,0,0,0,3.3,1.381,4.514,4.514,0,0,0,3.054-1.252.983.983,0,0,1,.079-.075.876.876,0,0,0-.07-1.176,1.011,1.011,0,0,0-.091-.082l-.193-.114a.785.785,0,0,0-.907.177l-.017.019a2.612,2.612,0,0,1-1.893.815,2.53,2.53,0,0,1-1.615-.6,2.233,2.233,0,0,1-.786-1.48h5.878a.78.78,0,0,0,.765-.79v-.006a1,1,0,0,0-.009-.12m-6.625-.679a2.452,2.452,0,0,1,.788-1.347,2.169,2.169,0,0,1,1.414-.5,2.292,2.292,0,0,1,1.437.483,2.688,2.688,0,0,1,.876,1.362Z" transform="translate(-934.659 -319.442)"/><path class="b" d="M983.395,391.992a1.371,1.371,0,1,0-1.318-1.371,1.345,1.345,0,0,0,1.318,1.371" transform="translate(-938.379 -326.432)"/><path class="b" d="M959.573,399.4a1.319,1.319,0,1,0,1.266,1.317,1.291,1.291,0,0,0-1.266-1.317" transform="translate(-949.38 -321.821)"/><path class="b" d="M957.588,399.4a1.319,1.319,0,1,0,1.266,1.317,1.292,1.292,0,0,0-1.266-1.317" transform="translate(-950.298 -321.821)"/><path class="b" d="M979.4,393.545H968.807a2.261,2.261,0,0,1,2.15-2.92h11.6v0a1.052,1.052,0,0,0,0-2.1v0h-11.6a4.113,4.113,0,0,0-4.23,4.4V394.6a1.048,1.048,0,0,0,1,1.055H979.4a2.2,2.2,0,0,1,2.212,2.3v2.509H963.145v-5.652a1.016,1.016,0,1,0-2.032,0v5.652h-4.819V394.82a1.01,1.01,0,1,0-2.018,0V403.2c0,2.131-.61,2.025-1.124,2.025a.952.952,0,0,0,0,1.9c1.043,0,3.142-.366,3.142-3.928v-1.562a1.029,1.029,0,0,0,1.005.941h5.845v-.948a1.027,1.027,0,0,0,1,.948h18.483a1.031,1.031,0,0,0,1.009-1.053v-3.559a4.136,4.136,0,0,0-4.244-4.418" transform="translate(-952.189 -326.859)"/><path class="b" d="M1004.529,396.441A4.4,4.4,0,0,0,1003,394.5a4.073,4.073,0,0,0-2.365-.761h-2.022a3.985,3.985,0,0,0-3.411-1.657,2.132,2.132,0,0,1-2.006-1.415,2.309,2.309,0,0,1-.166-.569c-.06-.335-.484-.471-.834-.471-.545,0-1.128.6-1,1.021l0,.019a4.648,4.648,0,0,0,2.282,3.2l.021.009-1.65.86a.821.821,0,0,0-.115.064,1.572,1.572,0,0,0-.579.625,1.723,1.723,0,0,0-.19.8v1.94a2.758,2.758,0,0,0,.827,2.3h-5v-5.651a1.017,1.017,0,1,0-2.034,0v5.651h-5.708c0-.048-.007-.088-.007-.137V389.558h0a1.014,1.014,0,1,0-2.028,0h0v11.957a1.031,1.031,0,0,0,1.009,1.052H986.8v-.932a1.027,1.027,0,0,0,1.005.932l12.83,0a3.945,3.945,0,0,0,1.439-.265c.069-.025.139-.054.208-.083a4.308,4.308,0,0,0,1.861-1.6,4.492,4.492,0,0,0,.667-1.738,4.555,4.555,0,0,0-.276-2.443m-7.118,4.026H995.2c-.032,0-.064,0-.1,0a2.209,2.209,0,0,1-2.117-2.3v-2.772a1.551,1.551,0,0,1,.765-1.419c.121.04.251.076.373.1a5.028,5.028,0,0,0,1.074.111,2.137,2.137,0,0,1,2.13,1.662,2.578,2.578,0,0,1,.083.638v3.98Zm5.321-1.6,0,0q-.029.094-.066.184a2.317,2.317,0,0,1-.8,1.02,2.136,2.136,0,0,1-1.23.4h-1.189v-4.617h1.189a2.1,2.1,0,0,1,.853.18,2.286,2.286,0,0,1,.976.843,2.365,2.365,0,0,1,.273,1.991" transform="translate(-940.722 -326.789)"/><g transform="translate(39.729 29.836)"><g class="c" transform="translate(0 0)"><rect class="d" width="12.989" height="12.008" transform="matrix(0.524, -0.852, 0.852, 0.524, -4.722, 7.678)"/></g></g><g transform="translate(39.729 15.227)"><g class="e" transform="translate(0 0)"><rect class="f" width="12.872" height="11.936" transform="matrix(0.524, -0.852, 0.852, 0.524, -4.661, 7.578)"/></g></g><g transform="translate(23.058 29.831)"><g class="g" transform="translate(0 0)"><rect class="h" width="12.994" height="12.011" transform="translate(-4.724 7.681) rotate(-58.409)"/></g></g><g transform="translate(23.058 15.227)"><g class="i" transform="translate(0 0)"><rect class="j" width="12.866" height="11.932" transform="translate(-4.657 7.572) rotate(-58.408)"/></g></g><g transform="translate(19.808 19.546)"><g class="k" transform="translate(0 0)"><rect class="l" width="28.158" height="33.611" transform="translate(-6.308 10.257) rotate(-58.408)"/></g></g><g transform="translate(10.929 0)"><g class="m" transform="translate(0 0)"><rect class="n" width="72.942" height="70.556" transform="matrix(0.524, -0.852, 0.852, 0.524, -24.896, 40.482)"/></g></g></svg>