<svg xmlns="http://www.w3.org/2000/svg" width="73.269" height="75.875" viewBox="0 0 73.269 75.875"><defs><style>.a{fill:#109784;}.b{fill:#1a8687;}.c{fill:#76c16d;}.d{fill:#b8d561;}.e{fill:#0fb8af;}</style></defs><path class="a" d="M981.161,286.013a73.862,73.862,0,0,0-11.917-12.649c-11.481-9.767-25.114-16.052-36.112-16.778-.266.152-.556.3-.821.476a35.762,35.762,0,0,0-5.632,4.033s-.218.174-.29.252h.023l3.457-.352,1.426-.151c.58-.049,2.224-.2,3.239-.2,11.24,0,25.766,6.412,37.9,16.729,1.4,1.177,2.731,2.4,4.013,3.631,1.692,1.629,3.262,3.306,4.713,5.011m4.085-23.192c-.942-.851-1.934-1.65-2.973-2.454a32.25,32.25,0,0,1,9.089,15.151A26.394,26.394,0,0,1,988.2,296.08a6.916,6.916,0,0,1-.459.7c-.1.15-.169.275-.266.428a.485.485,0,0,1-.1.125,2.05,2.05,0,0,1,.195.4c.024.027.024.076.047.1,0,0,.315-.451.362-.526l.218.578c-.024.023-.29.4-.362.5.072.2.194.6.194.6.048.175.121.351.169.526,2.056,7.037.943,12.8-3.19,16.353-2.756,2.382-6.817,3.634-11.7,3.634-5.729,0-12.5-1.7-19.434-4.835l-1.329-.073c-.9-.052-1.813-.152-2.708-.277l-1.257-.148,3.457,1.978,1.379.727c.023,0,.023.023.048.023l.049.027c8.242,4.306,16.509,6.661,23.3,6.661,5,0,9.16-1.3,12.012-3.731,4.545-3.908,5.584-10.343,2.95-18.184a1,1,0,0,0-.074-.2l-.192-.6c8.242-12.271,5.22-27.625-6.262-38.042" transform="translate(-922.909 -247.703)"/><path class="b" d="M968.638,284.957h0" transform="translate(-904.176 -235.316)"/><path class="c" d="M984.276,293.613c5.994-13.626-.967-29.027-16.581-36.618a43.323,43.323,0,0,0-18.733-4.259,40.093,40.093,0,0,0-21.61,6.112l-.1.052-.1.023a27.02,27.02,0,0,1,3.552-.25c11.24,0,25.767,6.413,37.9,16.73a68.119,68.119,0,0,1,15.566,18.413,1.85,1.85,0,0,0,.1-.2m3.554,5.984a.452.452,0,0,0-.074.1l-.1.127c-6.793,9.692-19.144,15.477-33.043,15.477a47.826,47.826,0,0,1-5-.25h-.1c8.267,4.337,16.558,6.712,23.4,6.712,5,0,9.162-1.3,12.014-3.73,4.618-3.982,5.632-10.5,2.9-18.435" transform="translate(-922.569 -249.411)"/><path class="d" d="M972.974,255.27c-16.582-8.113-36.717-5.71-48.706,4.882,0,0-.218.178-.29.251H924l3.6-.374c.169-.125.9-.6.918-.6,11.191-7.262,27.314-8.416,40.8-1.854,15.977,7.761,22.793,23.687,16.823,37.26a28.9,28.9,0,0,1-2.369,4.283c-7.4,10.916-22.02,16.2-36.377,14.348l-1.257-.15,3.554,2.029c.072.047,2.949.322,3.7.375a1.038,1.038,0,0,1,.217.023c14.092.726,27.8-4.733,35.122-15.2a3.193,3.193,0,0,0,.218-.326c10.442-15.4,3.311-35.508-15.977-44.947" transform="translate(-923.978 -250.432)"/><path class="e" d="M962.193,291.809c0-2.965,1.185-3.344,2.224-3.344s2.223.38,2.223,3.321c0,2.992-1.256,3.321-2.2,3.321a1.961,1.961,0,0,1-1.6-.654,4,4,0,0,1-.653-2.644m-2.683-.023c0,3.393,1.934,5.582,4.955,5.582,3,0,4.859-2.135,4.859-5.608,0-3.421-1.885-5.556-4.906-5.556s-4.908,2.135-4.908,5.582m-8.678-.049c0,3.418,1.91,5.456,5.077,5.456h.072a5.384,5.384,0,0,0,3.288-.879,5.972,5.972,0,0,0-1.234-1.937,4.66,4.66,0,0,1-1.933.554c-1.667-.027-2.587-1.185-2.587-3.272,0-1.43.434-3.144,2.539-3.167a4.175,4.175,0,0,1,1.98.551,5.812,5.812,0,0,0,1.234-1.934,6.054,6.054,0,0,0-3.288-.882c-3.19.049-5.149,2.162-5.149,5.509m-7.444,2.311a5.812,5.812,0,0,0-1.16,1.988,6.236,6.236,0,0,0,3.988,1.184c2.369-.075,3.844-1.436,3.771-3.447a3.473,3.473,0,0,0-.749-2.012,5.128,5.128,0,0,0-1.667-1.155l-.8-.4a5.01,5.01,0,0,1-.894-.5.692.692,0,0,1-.266-.531c0-.2-.026-.628.821-.7a4.589,4.589,0,0,1,2.369.7,5.9,5.9,0,0,0,1.184-1.986,5.855,5.855,0,0,0-3.7-.979c-2.126.176-3.457,1.482-3.384,3.37a2.735,2.735,0,0,0,.87,2.06,6.327,6.327,0,0,0,1.546,1.008l1.258.626c.6.279.7.6.7.83.024.68-.726.805-1.185.833a4.645,4.645,0,0,1-2.706-.883M935.6,294c0-.625.074-.954,1.62-1.481l1.354-.478v2.06c0,.429-.024.429-.265.554a3.707,3.707,0,0,1-1.4.279c-1.306,0-1.306-.631-1.306-.934m-2.682.077c0,1.511,1.038,3.119,3.964,3.119,3.167,0,4.278-1.41,4.278-2.617V289.3c0-1.158-.459-3.092-3.529-3.092a6.3,6.3,0,0,0-4.11,1.306,6.255,6.255,0,0,0,1.233,1.937c.1-.049.169-.127.29-.2s.266-.15.387-.227a6.469,6.469,0,0,1,.677-.3,3.652,3.652,0,0,1,1.306-.253c1.135,0,1.135.456,1.135.756v.479a.872.872,0,0,1-.241.123l-1.354.453a12.538,12.538,0,0,0-2.682,1.257,3.09,3.09,0,0,0-1.354,2.54m-7.639-.026a5.808,5.808,0,0,0-1.161,1.988,6.238,6.238,0,0,0,3.988,1.184c2.369-.075,3.844-1.436,3.77-3.447a3.459,3.459,0,0,0-.748-2.012,5.119,5.119,0,0,0-1.669-1.155l-.8-.4a5.066,5.066,0,0,1-.893-.5.693.693,0,0,1-.266-.531c0-.2-.024-.628.821-.7a4.585,4.585,0,0,1,2.369.7,5.878,5.878,0,0,0,1.184-1.986,5.851,5.851,0,0,0-3.7-.979c-2.127.176-3.457,1.482-3.385,3.37a2.735,2.735,0,0,0,.87,2.06,6.31,6.31,0,0,0,1.547,1.008l1.256.626c.6.279.7.6.7.83.025.68-.725.805-1.183.833a4.645,4.645,0,0,1-2.708-.883m3.673-15.188H927.24c-.7,0-.943-.956-.943-1.609a3.494,3.494,0,0,1,.146-1.156,1.367,1.367,0,0,1,.628-.883,2.3,2.3,0,0,1,.725-.15h.17a3.119,3.119,0,0,1,.459.051l.29.076a.4.4,0,0,1,.217.175.731.731,0,0,1,.025.277v3.22Zm24.341-.554v-5.131h-.6c-.169.026-.362.051-.556.077a6.007,6.007,0,0,0-1.016.3c-.025,0-.072.028-.1.028v4.4c0,.6-.193.833-.749.854H950.2a2.03,2.03,0,0,1-.363-.022c-.362-.078-.508-.329-.508-.833v-4.827h-.6a1.961,1.961,0,0,0-.385.049c-.049,0-.121.025-.17.025-.024,0-.048.026-.1.026a5.569,5.569,0,0,0-.92.3c-.025,0-.072.028-.1.028v4.4c0,.5-.146.755-.508.833a2.029,2.029,0,0,1-.363.022c-.6,0-.821-.225-.821-.854v-4.827h-.6c-.193.023-.362.049-.58.074-.023,0-.048.026-.072.026a5.6,5.6,0,0,0-.918.3.347.347,0,0,0-.1.049v4.577c-.025.352-.146.554-.434.632a3.325,3.325,0,0,1-.461.049h-.724V277.5c0-2.185-1.064-3.344-3.07-3.344h-3.167a2.25,2.25,0,0,1,1.741-1.257,3.739,3.739,0,0,1,1.3,0,5.1,5.1,0,0,1,.726.176l.434.15a2.177,2.177,0,0,0,.315.126c.048-.074.072-.126.121-.2a5.167,5.167,0,0,0,.266-.478c.023-.027.023-.052.048-.076.073-.152.121-.276.193-.429.025-.075.049-.147.072-.224a4.837,4.837,0,0,0,.17-.556,1.079,1.079,0,0,0,.023-.126,1.769,1.769,0,0,1-.193-.1,4.763,4.763,0,0,0-.821-.329,5.017,5.017,0,0,0-1.5-.276h-.29a8.41,8.41,0,0,0-1.306.127H936.5a.191.191,0,0,0-.1.023,4.453,4.453,0,0,0-3.432,3.473v.049a3.281,3.281,0,0,1-.048.351,6.7,6.7,0,0,0-.049,1.207.331.331,0,0,0,.024.152c0,.025.025.049.025.075a.583.583,0,0,0,.556.4h4.786c.531,0,.821.176.821,1.107v1.308h-7.808v-3.343a2.823,2.823,0,0,0-.218-1.032,1.486,1.486,0,0,0-.218-.378,1.713,1.713,0,0,0-.531-.5c-.121-.078-.29-.155-.434-.23a2.952,2.952,0,0,0-.411-.126,5.78,5.78,0,0,0-1.4-.176h-.29a8.25,8.25,0,0,0-1.257.151,2.894,2.894,0,0,0-1.741,1.055,4.8,4.8,0,0,0-.8,2.943,4.139,4.139,0,0,0,.8,2.64,3.074,3.074,0,0,0,2.418,1.207h1.764v.378c0,.4-.387.654-1.039.654H926.66v.026a4.585,4.585,0,0,0-.266.983c-.047.274-.072.55-.1.8v.455h1.765a3.207,3.207,0,0,0,2.8-1.412,2.521,2.521,0,0,0,.339-.878,4.522,4.522,0,0,0,.048-.58v-.4h10.612a4.4,4.4,0,0,0,2.126-.576,3.012,3.012,0,0,0,1.886.6,4.712,4.712,0,0,0,2.3-.657,4.429,4.429,0,0,0,2.3.657,2.627,2.627,0,0,0,2.828-2.793m16.026,0v-5.131h-.6c-.193.026-.362.051-.579.077a6.014,6.014,0,0,0-1.016.3c-.025,0-.072.028-.1.028v4.4c0,.6-.193.833-.749.854h-.072a2.023,2.023,0,0,1-.362-.022c-.364-.078-.508-.329-.508-.833v-4.827h-.6a1.989,1.989,0,0,0-.387.049c-.048,0-.121.025-.169.025-.023,0-.047.026-.1.026a5.6,5.6,0,0,0-.918.3c-.024,0-.073.028-.1.028v4.4c0,.5-.146.755-.508.833a2.029,2.029,0,0,1-.362.022c-.6,0-.821-.225-.821-.854v-4.827h-.6c-.193.023-.362.049-.58.074-.024,0-.049.026-.072.026a5.558,5.558,0,0,0-.918.3.345.345,0,0,0-.1.049v4.577c-.024.352-.146.554-.436.632a3.3,3.3,0,0,1-.459.049h-.049c-.58,0-.772-.227-.772-.856v-7.419h-.6c-.169.025-.362.052-.556.075a6.015,6.015,0,0,0-1.016.3c-.023.027-.072.027-.1.05v7.32a2.639,2.639,0,0,0,2.829,2.79,4.406,4.406,0,0,0,2.126-.6,3,3,0,0,0,1.885.6,4.755,4.755,0,0,0,2.3-.654,4.493,4.493,0,0,0,2.3.654,2.645,2.645,0,0,0,2.78-2.816" transform="translate(-923.978 -241.673)"/></svg>